{
.appVersion = "3218";
.formatVersion = 3;
classes = (
{
automatic = 1;
code = "A Aacute Abreve Acircumflex Adieresis Adotbelow Agrave Amacron Aogonek Aring Aringacute Atilde AE AEacute B C Cacute Ccaron Ccedilla Ccedillaacute Ccircumflex Cdotaccent D Eth Dcaron Dcroat Ddotbelow Dlinebelow E Eacute Ebreve Ecaron Ecedillabreve Ecircumflex Edieresis Edotaccent Edotbelow Egrave Emacron Emacronacute Emacrongrave Eogonek Etilde F G Gbreve Gcaron Gcircumflex Gcommaaccent Gdotaccent Gmacron H Hbar Hbrevebelow Hcircumflex Hdotbelow I IJ Iacute Ibreve Icircumflex Idieresis Idieresisacute Idotaccent Igrave Imacron Iogonek Itilde J K Kcommaaccent L Lacute Lcaron Lcommaaccent Ldot Ldotbelow Llinebelow Lslash M Mdotbelow N Nacute Ncaron Ncommaaccent Ndotaccent Ndotbelow Nhookleft Nlinebelow Ntilde Eng O Oacute Obreve Ocircumflex Odieresis Odotbelow Ograve Ohungarumlaut Omacron Omacronacute Omacrongrave Oogonek Oslash Oslashacute Otilde Otildeacute Otildedieresis OE P Thorn Q R Racute Rcaron Rcommaaccent Rdotbelow Rlinebelow S Sacute Sacutedotaccent Scaron Scarondotaccent Scedilla Scircumflex Scommaaccent Sdotaccent Sdotbelow Sdotbelowdotaccent Germandbls T Tbar Tcedilla Tcommaaccent Tdotbelow Tlinebelow U Uacute Ubreve Ucircumflex Udieresis Udotbelow Ugrave Uhungarumlaut Umacron Umacrondieresis Uogonek Uring Utilde Utildeacute V W Wacute Wcircumflex Wdieresis Wgrave X Y Yacute Ycircumflex Ydieresis Ydotaccent Ygrave Ymacron Ytilde Z Zacute Zcaron Zdotaccent Zdotbelow Delta Omega";
name = Uppercase;
}
);
customParameters = (
{
name = panose;
value = (
0,
0,
5,
0,
0,
0,
0,
0,
0,
0
);
},
{
name = blueScale;
value = 0.037;
},
{
name = fsType;
value = (
);
},
{
name = "Use Typo Metrics";
value = 1;
},
{
name = "gasp Table";
value = {
"21" = 7;
"65535" = 15;
"9" = 10;
};
},
{
name = unicodeRanges;
value = (
0,
1
);
},
{
name = codePageRanges;
value = (
"1252"
);
},
{
name = "Use Extension Kerning";
value = 1;
}
);
date = "2023-09-04 14:19:16 +0000";
familyName = Beon;

glyphs = (
{
glyphname = A;
kernLeft = A;
kernRight = A;
lastChange = "2023-09-04 14:13:34 +0000";
layers = (
{
anchors = (
{
name = bottom;
pos = (325,16);
},
{
name = ogonek;
pos = (602,25);
},
{
name = top;
pos = (325,774);
}
);
background = {
hints = (
{
horizontal = 1;
place = (224,25);
type = Stem;
},
{
horizontal = 1;
place = (308,24);
type = Stem;
},
{
place = (35.57,394.84);
type = Stem;
}
);
shapes = (
{
closed = 1;
nodes = (
(573,17,ls),
(578,6,o),
(589,-1,o),
(601,-1,cs),
(605,-1,o),
(609,0,o),
(613,2,cs),
(624,7,o),
(631,18,o),
(631,30,cs),
(631,34,o),
(630,38,o),
(628,42,cs),
(354,682,ls),
(349,693,o),
(338,700,o),
(326,700,cs),
(322,700,o),
(318,699,o),
(314,697,cs),
(303,692,o),
(296,681,o),
(296,669,cs),
(296,665,o),
(297,661,o),
(299,657,cs)
);
},
{
closed = 1;
nodes = (
(24,42,ls),
(22,38,o),
(21,34,o),
(21,29,cs),
(21,14,o),
(33,-1,o),
(51,-1,cs),
(63,-1,o),
(74,6,o),
(79,17,cs),
(301,535,ls),
(303,539,o),
(304,543,o),
(304,548,cs),
(304,563,o),
(292,578,o),
(274,578,cs),
(262,578,o),
(251,571,o),
(246,560,cs)
);
},
{
closed = 1;
nodes = (
(245,286,ls),
(228,286,o),
(215,273,o),
(215,256,cs),
(215,239,o),
(228,226,o),
(245,226,cs),
(405,226,ls),
(422,226,o),
(435,239,o),
(435,256,cs),
(435,273,o),
(422,286,o),
(405,286,cs)
);
}
);
};
layerId = m01;
shapes = (
{
closed = 1;
nodes = (
(32,41,ls),
(31,38,o),
(30,34,o),
(30,30,cs),
(30,13,o),
(43,0,o),
(60,0,cs),
(73,0,o),
(84,8,o),
(88,19,cs),
(301,562,ls),
(302,565,o),
(303,569,o),
(303,573,cs),
(303,590,o),
(290,603,o),
(273,603,cs),
(260,603,o),
(249,595,o),
(245,584,cs)
);
},
{
closed = 1;
nodes = (
(413,211,ls),
(430,211,o),
(443,224,o),
(443,241,cs),
(443,258,o),
(430,271,o),
(413,271,cs),
(236,271,ls),
(219,271,o),
(206,258,o),
(206,241,cs),
(206,224,o),
(219,211,o),
(236,211,cs)
);
},
{
closed = 1;
nodes = (
(561,19,ls),
(565,8,o),
(576,0,o),
(589,0,cs),
(606,0,o),
(619,13,o),
(619,30,cs),
(619,34,o),
(618,38,o),
(617,41,cs),
(353,716,ls),
(349,727,o),
(338,735,o),
(325,735,cs),
(308,735,o),
(295,722,o),
(295,705,cs),
(295,701,o),
(296,697,o),
(297,694,cs)
);
}
);
width = 649;
},
{
associatedMasterId = m01;
hints = (
{
horizontal = 1;
place = (224,25);
type = Stem;
},
{
horizontal = 1;
place = (308,24);
type = Stem;
},
{
place = (35.57,394.84);
type = Stem;
}
);
layerId = "EEE9BDDF-A4C5-4849-A08F-9C3DE8D020FF";
name = "22 août 23 à 12:50";
shapes = (
{
closed = 1;
nodes = (
(36,18,ls),
(34,11,o),
(38,5,o),
(45,3,cs),
(52,1,o),
(58,5,o),
(60,12,cs),
(115,224,l),
(351,224,l),
(406,12,ls),
(408,5,o),
(414,1,o),
(421,3,cs),
(428,5,o),
(432,11,o),
(430,18,cs),
(245,738,ls),
(244,744,o),
(239,748,o),
(233,748,cs),
(227,748,o),
(222,744,o),
(221,738,cs)
);
},
{
closed = 1;
nodes = (
(324,332,l),
(142,332,l),
(233,685,l)
);
},
{
closed = 1;
nodes = (
(121,249,l),
(136,308,l),
(330,308,l),
(345,249,l)
);
}
);
width = 462;
},
{
associatedMasterId = m01;
background = {
hints = (
{
horizontal = 1;
place = (224,25);
type = Stem;
},
{
horizontal = 1;
place = (308,24);
type = Stem;
},
{
place = (35.57,394.84);
type = Stem;
}
);
shapes = (
{
closed = 1;
nodes = (
(36,18,ls),
(34,11,o),
(38,5,o),
(45,3,cs),
(52,1,o),
(58,5,o),
(60,12,cs),
(115,224,l),
(351,224,l),
(406,12,ls),
(408,5,o),
(414,1,o),
(421,3,cs),
(428,5,o),
(432,11,o),
(430,18,cs),
(245,738,ls),
(244,744,o),
(239,748,o),
(233,748,cs),
(227,748,o),
(222,744,o),
(221,738,cs)
);
},
{
closed = 1;
nodes = (
(324,332,l),
(142,332,l),
(233,685,l)
);
},
{
closed = 1;
nodes = (
(121,249,l),
(136,308,l),
(330,308,l),
(345,249,l)
);
}
);
};
layerId = "1D38399B-09C9-4CDE-9A0E-F3F92053CDB2";
name = "22 août 23 à 13:37";
shapes = (
{
closed = 0;
nodes = (
(44,0,l),
(233,737,l),
(422,0,l)
);
},
{
closed = 0;
nodes = (
(361,237,l),
(105,237,l)
);
},
{
closed = 0;
nodes = (
(340,321,l),
(127,321,l)
);
}
);
width = 462;
},
{
associatedMasterId = m01;
background = {
hints = (
{
horizontal = 1;
place = (224,25);
type = Stem;
},
{
horizontal = 1;
place = (308,24);
type = Stem;
},
{
place = (35.57,394.84);
type = Stem;
}
);
shapes = (
{
closed = 1;
nodes = (
(36,18,ls),
(34,11,o),
(38,5,o),
(45,3,cs),
(52,1,o),
(58,5,o),
(60,12,cs),
(115,224,l),
(351,224,l),
(406,12,ls),
(408,5,o),
(414,1,o),
(421,3,cs),
(428,5,o),
(432,11,o),
(430,18,cs),
(245,738,ls),
(244,744,o),
(239,748,o),
(233,748,cs),
(227,748,o),
(222,744,o),
(221,738,cs)
);
},
{
closed = 1;
nodes = (
(324,332,l),
(142,332,l),
(233,685,l)
);
},
{
closed = 1;
nodes = (
(121,249,l),
(136,308,l),
(330,308,l),
(345,249,l)
);
}
);
};
layerId = "E314821B-AB1E-4014-A002-FAB0ACE9166A";
name = "22 août 23 à 15:26";
shapes = (
{
closed = 0;
nodes = (
(44,15,l),
(233,737,l)
);
},
{
closed = 0;
nodes = (
(361,237,l),
(105,237,l)
);
},
{
closed = 0;
nodes = (
(340,321,l),
(127,321,l)
);
},
{
closed = 0;
nodes = (
(233,737,l),
(422,15,l)
);
}
);
width = 462;
},
{
anchors = (
{
name = bottom;
pos = (229,0);
},
{
name = ogonek;
pos = (412,10);
},
{
name = top;
pos = (229,747);
}
);
associatedMasterId = m01;
background = {
hints = (
{
horizontal = 1;
place = (224,25);
type = Stem;
},
{
horizontal = 1;
place = (308,24);
type = Stem;
},
{
place = (35.57,394.84);
type = Stem;
}
);
shapes = (
{
closed = 1;
nodes = (
(32,18,ls),
(30,11,o),
(34,5,o),
(41,3,cs),
(48,1,o),
(54,5,o),
(56,12,cs),
(111,224,l),
(347,224,l),
(402,12,ls),
(404,5,o),
(410,1,o),
(417,3,cs),
(424,5,o),
(428,11,o),
(426,18,cs),
(241,738,ls),
(240,744,o),
(235,748,o),
(229,748,cs),
(223,748,o),
(218,744,o),
(217,738,cs)
);
},
{
closed = 1;
nodes = (
(320,332,l),
(138,332,l),
(229,685,l)
);
},
{
closed = 1;
nodes = (
(117,249,l),
(132,308,l),
(326,308,l),
(341,249,l)
);
}
);
};
layerId = "3C98CEC1-9AF6-4365-9559-774BCE1CC7C3";
name = "22 août 23 à 17:21";
shapes = (
{
closed = 0;
nodes = (
(40,15,l),
(229,737,l)
);
},
{
closed = 0;
nodes = (
(357,237,l),
(101,237,l)
);
},
{
closed = 0;
nodes = (
(336,321,l),
(123,321,l)
);
},
{
closed = 0;
nodes = (
(229,737,l),
(418,15,l)
);
}
);
width = 458;
},
{
anchors = (
{
name = bottom;
pos = (229,0);
},
{
name = ogonek;
pos = (412,10);
},
{
name = top;
pos = (229,747);
}
);
associatedMasterId = m01;
background = {
hints = (
{
horizontal = 1;
place = (224,25);
type = Stem;
},
{
horizontal = 1;
place = (308,24);
type = Stem;
},
{
place = (35.57,394.84);
type = Stem;
}
);
shapes = (
{
closed = 1;
nodes = (
(32,18,ls),
(30,11,o),
(34,5,o),
(41,3,cs),
(48,1,o),
(54,5,o),
(56,12,cs),
(111,224,l),
(347,224,l),
(402,12,ls),
(404,5,o),
(410,1,o),
(417,3,cs),
(424,5,o),
(428,11,o),
(426,18,cs),
(241,738,ls),
(240,744,o),
(235,748,o),
(229,748,cs),
(223,748,o),
(218,744,o),
(217,738,cs)
);
},
{
closed = 1;
nodes = (
(320,332,l),
(138,332,l),
(229,685,l)
);
},
{
closed = 1;
nodes = (
(117,249,l),
(132,308,l),
(326,308,l),
(341,249,l)
);
}
);
};
layerId = "CAAB4072-C64E-4BC2-8620-B19A8D8CED4D";
name = "22 août 23 à 17:21";
shapes = (
{
closed = 0;
nodes = (
(40,15,l),
(229,737,l)
);
},
{
closed = 0;
nodes = (
(357,237,l),
(101,237,l)
);
},
{
closed = 0;
nodes = (
(336,321,l),
(123,321,l)
);
},
{
closed = 0;
nodes = (
(229,737,l),
(418,15,l)
);
}
);
width = 458;
},
{
anchors = (
{
name = bottom;
pos = (321,16);
},
{
name = ogonek;
pos = (588,25);
},
{
name = top;
pos = (321,774);
}
);
associatedMasterId = m01;
layerId = "CE705CD6-85C7-486B-A18C-0D83CDF9128F";
name = "3 sept. 23 à 23:40";
shapes = (
{
closed = 1;
nodes = (
(28,41,ls),
(27,38,o),
(26,34,o),
(26,30,cs),
(26,13,o),
(39,0,o),
(56,0,cs),
(69,0,o),
(80,8,o),
(84,19,cs),
(297,562,ls),
(298,565,o),
(299,569,o),
(299,573,cs),
(299,590,o),
(286,603,o),
(269,603,cs),
(256,603,o),
(245,595,o),
(241,584,cs)
);
},
{
closed = 1;
nodes = (
(409,211,ls),
(426,211,o),
(439,224,o),
(439,241,cs),
(439,258,o),
(426,271,o),
(409,271,cs),
(232,271,ls),
(215,271,o),
(202,258,o),
(202,241,cs),
(202,224,o),
(215,211,o),
(232,211,cs)
);
},
{
closed = 1;
nodes = (
(557,19,ls),
(561,8,o),
(572,0,o),
(585,0,cs),
(602,0,o),
(615,13,o),
(615,30,cs),
(615,34,o),
(614,38,o),
(613,41,cs),
(349,716,ls),
(345,727,o),
(334,735,o),
(321,735,cs),
(304,735,o),
(291,722,o),
(291,705,cs),
(291,701,o),
(292,697,o),
(293,694,cs)
);
}
);
width = 641;
}
);
note = A;
unicode = 65;
},
{
glyphname = AE;
kernLeft = A;
kernRight = E;
lastChange = "2023-09-04 14:13:34 +0000";
layers = (
{
anchors = (
{
name = bottom;
pos = (745,16);
},
{
name = ogonek;
pos = (907,25);
},
{
name = top;
pos = (579,774);
},
{
name = topleft;
pos = (418,714);
}
);
layerId = m01;
shapes = (
{
closed = 1;
nodes = (
(908,670,ls),
(925,670,o),
(938,683,o),
(938,700,cs),
(938,717,o),
(925,730,o),
(908,730,cs),
(602,730,ls),
(585,730,o),
(572,717,o),
(572,700,cs),
(572,683,o),
(585,670,o),
(602,670,cs)
);
},
{
closed = 1;
nodes = (
(602,423,ls),
(585,423,o),
(572,410,o),
(572,393,cs),
(572,376,o),
(585,363,o),
(602,363,cs),
(846,363,ls),
(863,363,o),
(876,376,o),
(876,393,cs),
(876,410,o),
(863,423,o),
(846,423,cs)
);
},
{
closed = 1;
nodes = (
(532,700,ls),
(532,717,o),
(519,730,o),
(502,730,cs),
(485,730,o),
(472,717,o),
(472,700,cs),
(472,30,ls),
(472,13,o),
(485,0,o),
(502,0,cs),
(519,0,o),
(532,13,o),
(532,30,cs)
);
},
{
closed = 1;
nodes = (
(602,60,ls),
(585,60,o),
(572,47,o),
(572,30,cs),
(572,13,o),
(585,0,o),
(602,0,cs),
(908,0,ls),
(925,0,o),
(938,13,o),
(938,30,cs),
(938,47,o),
(925,60,o),
(908,60,cs)
);
},
{
closed = 1;
nodes = (
(34,45,l),
(31,41,o),
(30,35,o),
(30,30,cs),
(30,13,o),
(43,0,o),
(60,0,cs),
(71,0,o),
(81,6,o),
(86,15,cs),
(433,612,l),
(436,616,o),
(437,622,o),
(437,627,cs),
(437,644,o),
(424,657,o),
(407,657,cs),
(396,657,o),
(386,651,o),
(381,642,cs)
);
},
{
closed = 1;
nodes = (
(413,211,ls),
(430,211,o),
(443,224,o),
(443,241,cs),
(443,258,o),
(430,271,o),
(413,271,cs),
(286,271,ls),
(269,271,o),
(256,258,o),
(256,241,cs),
(256,224,o),
(269,211,o),
(286,211,cs)
);
}
);
width = 998;
}
);
metricLeft = A;
metricRight = E;
unicode = 198;
},
{
glyphname = B;
kernLeft = H;
kernRight = B;
lastChange = "2023-09-04 14:13:34 +0000";
layers = (
{
anchors = (
{
name = bottom;
pos = (328,16);
},
{
name = center;
pos = (328,366);
},
{
name = top;
pos = (328,774);
}
);
background = {
hints = (
{
horizontal = 1;
place = (2,25);
type = Stem;
},
{
horizontal = 1;
place = (382,24);
type = Stem;
},
{
horizontal = 1;
place = (722,25);
type = Stem;
},
{
place = (62,24);
type = Stem;
},
{
place = (290,26);
type = Stem;
},
{
place = (362,25);
type = Stem;
},
{
place = (394,25);
type = Stem;
}
);
shapes = (
{
closed = 1;
nodes = (
(83,29,ls),
(83,12,o),
(96,-1,o),
(113,-1,cs),
(130,-1,o),
(143,12,o),
(143,29,cs),
(143,669,ls),
(143,686,o),
(130,699,o),
(113,699,cs),
(96,699,o),
(83,686,o),
(83,669,cs)
);
},
{
closed = 1;
nodes = (
(206,699,ls),
(189,699,o),
(176,686,o),
(176,669,cs),
(176,652,o),
(189,639,o),
(206,639,cs),
(359,639,ls),
(462,639,o),
(494,590,o),
(494,523,cs),
(494,463,o),
(450,420,o),
(359,420,cs),
(215,420,ls),
(198,420,o),
(185,407,o),
(185,390,cs),
(185,373,o),
(198,360,o),
(215,360,cs),
(359,360,ls),
(485,360,o),
(554,429,o),
(554,523,cs),
(554,610,o),
(508,699,o),
(359,699,cs)
);
},
{
closed = 1;
nodes = (
(552,215,ls),
(552,91,o),
(459,60,o),
(374,60,cs),
(213,60,ls),
(196,60,o),
(183,47,o),
(183,30,cs),
(183,13,o),
(196,0,o),
(213,0,cs),
(374,0,ls),
(520,0,o),
(613,80,o),
(613,216,cs),
(613,283,o),
(590,339,o),
(550,374,cs),
(544,379,o),
(537,382,o),
(530,382,cs),
(521,382,o),
(513,378,o),
(507,371,cs),
(502,365,o),
(499,358,o),
(499,351,cs),
(499,342,o),
(503,334,o),
(510,328,cs),
(534,307,o),
(552,270,o),
(552,216,cs)
);
},
{
closed = 1;
nodes = (
(366,15,ls),
(515,15,o),
(575,115,o),
(575,209,cs),
(575,298,o),
(515,393,o),
(366,393,cs),
(110,393,l),
(343,393,ls),
(478,393,o),
(527,463,o),
(527,540,cs),
(527,617,o),
(478,685,o),
(343,685,cs),
(288,685,l),
(110,685,l),
(110,15,l),
(305,15,l)
);
}
);
};
layerId = m01;
shapes = (
{
closed = 1;
nodes = (
(532,303,o),
(545,266,o),
(545,224,cs),
(545,138,o),
(498,60,o),
(366,60,cs),
(305,60,l),
(210,60,ls),
(193,60,o),
(180,47,o),
(180,30,cs),
(180,13,o),
(193,0,o),
(210,0,cs),
(305,0,l),
(366,0,ls),
(535,0,o),
(605,116,o),
(605,224,cs),
(605,278,o),
(585,336,o),
(541,378,cs),
(535,383,o),
(528,386,o),
(520,386,cs),
(503,386,o),
(490,373,o),
(490,356,cs),
(490,347,o),
(494,340,o),
(499,334,c)
);
},
{
closed = 1;
nodes = (
(343,378,ls),
(498,378,o),
(557,465,o),
(557,555,cs),
(557,646,o),
(498,730,o),
(343,730,cs),
(288,730,l),
(210,730,ls),
(193,730,o),
(180,717,o),
(180,700,cs),
(180,683,o),
(193,670,o),
(210,670,cs),
(288,670,l),
(343,670,ls),
(463,670,o),
(497,622,o),
(497,555,cs),
(497,487,o),
(462,438,o),
(343,438,cs),
(210,438,ls),
(193,438,o),
(180,425,o),
(180,408,cs),
(180,391,o),
(193,378,o),
(210,378,cs)
);
},
{
closed = 1;
nodes = (
(140,700,ls),
(140,717,o),
(127,730,o),
(110,730,cs),
(93,730,o),
(80,717,o),
(80,700,cs),
(80,30,ls),
(80,13,o),
(93,0,o),
(110,0,cs),
(127,0,o),
(140,13,o),
(140,30,cs)
);
}
);
width = 645;
},
{
associatedMasterId = m01;
hints = (
{
horizontal = 1;
place = (2,25);
type = Stem;
},
{
horizontal = 1;
place = (382,24);
type = Stem;
},
{
horizontal = 1;
place = (722,25);
type = Stem;
},
{
place = (62,24);
type = Stem;
},
{
place = (290,26);
type = Stem;
},
{
place = (362,25);
type = Stem;
},
{
place = (394,25);
type = Stem;
}
);
layerId = "073D2217-38E7-412F-B394-7C09F1499ECD";
name = "22 août 23 à 12:50";
shapes = (
{
closed = 1;
nodes = (
(74,747,ls),
(67,747,o),
(62,742,o),
(62,735,cs),
(62,15,ls),
(62,8,o),
(67,2,o),
(74,2,cs),
(233,2,l),
(280,7,o),
(325,27,o),
(358,60,cs),
(392,93,o),
(413,137,o),
(418,184,cs),
(418,190,o),
(419,197,o),
(419,204,cs),
(419,251,o),
(402,298,o),
(372,334,cs),
(349,362,o),
(308,384,o),
(270,396,c),
(293,405,o),
(315,417,o),
(330,432,cs),
(366,466,o),
(387,514,o),
(387,564,cs),
(387,614,o),
(366,662,o),
(331,696,cs),
(297,729,o),
(250,748,o),
(203,748,cs),
(200,748,o),
(198,748,o),
(196,747,c)
);
},
{
closed = 1;
nodes = (
(86,406,l),
(86,722,l),
(123,722,ls),
(160,722,o),
(207,708,o),
(245,676,cs),
(276,648,o),
(290,607,o),
(290,565,cs),
(290,527,o),
(274,479,o),
(240,449,cs),
(208,422,o),
(158,408,o),
(123,408,cs),
(121,408,o),
(120,407,o),
(118,406,c)
);
},
{
closed = 1;
nodes = (
(236,415,o),
(247,422,o),
(256,431,c),
(295,463,o),
(316,516,o),
(316,565,cs),
(316,613,o),
(300,662,o),
(261,694,cs),
(249,705,o),
(235,714,o),
(221,722,c),
(255,718,o),
(289,702,o),
(313,678,cs),
(344,649,o),
(362,607,o),
(362,564,cs),
(362,521,o),
(343,479,o),
(313,450,cs),
(290,429,o),
(256,415,o),
(225,409,c)
);
},
{
closed = 1;
nodes = (
(86,27,l),
(86,382,l),
(211,382,ls),
(253,382,o),
(324,352,o),
(353,318,cs),
(379,287,o),
(394,245,o),
(394,204,cs),
(394,198,o),
(394,192,o),
(393,186,cs),
(389,146,o),
(370,106,o),
(341,78,cs),
(312,49,o),
(273,31,o),
(232,27,c)
);
}
);
width = 461;
},
{
associatedMasterId = m01;
background = {
hints = (
{
horizontal = 1;
place = (2,25);
type = Stem;
},
{
horizontal = 1;
place = (382,24);
type = Stem;
},
{
horizontal = 1;
place = (722,25);
type = Stem;
},
{
place = (62,24);
type = Stem;
},
{
place = (290,26);
type = Stem;
},
{
place = (362,25);
type = Stem;
},
{
place = (394,25);
type = Stem;
}
);
shapes = (
{
closed = 1;
nodes = (
(74,747,ls),
(67,747,o),
(62,742,o),
(62,735,cs),
(62,15,ls),
(62,8,o),
(67,2,o),
(74,2,cs),
(233,2,l),
(280,7,o),
(325,27,o),
(358,60,cs),
(392,93,o),
(413,137,o),
(418,184,cs),
(418,190,o),
(419,197,o),
(419,204,cs),
(419,251,o),
(402,298,o),
(372,334,cs),
(349,362,o),
(308,384,o),
(270,396,c),
(293,405,o),
(315,417,o),
(330,432,cs),
(366,466,o),
(387,514,o),
(387,564,cs),
(387,614,o),
(366,662,o),
(331,696,cs),
(297,729,o),
(250,748,o),
(203,748,cs),
(200,748,o),
(198,748,o),
(196,747,c)
);
},
{
closed = 1;
nodes = (
(86,406,l),
(86,722,l),
(123,722,ls),
(160,722,o),
(207,708,o),
(245,676,cs),
(276,648,o),
(290,607,o),
(290,565,cs),
(290,527,o),
(274,479,o),
(240,449,cs),
(208,422,o),
(158,408,o),
(123,408,cs),
(121,408,o),
(120,407,o),
(118,406,c)
);
},
{
closed = 1;
nodes = (
(236,415,o),
(247,422,o),
(256,431,c),
(295,463,o),
(316,516,o),
(316,565,cs),
(316,613,o),
(300,662,o),
(261,694,cs),
(249,705,o),
(235,714,o),
(221,722,c),
(255,718,o),
(289,702,o),
(313,678,cs),
(344,649,o),
(362,607,o),
(362,564,cs),
(362,521,o),
(343,479,o),
(313,450,cs),
(290,429,o),
(256,415,o),
(225,409,c)
);
},
{
closed = 1;
nodes = (
(86,27,l),
(86,382,l),
(211,382,ls),
(253,382,o),
(324,352,o),
(353,318,cs),
(379,287,o),
(394,245,o),
(394,204,cs),
(394,198,o),
(394,192,o),
(393,186,cs),
(389,146,o),
(370,106,o),
(341,78,cs),
(312,49,o),
(273,31,o),
(232,27,c)
);
}
);
};
layerId = "86A6D6FC-AED6-47B8-BCDD-BE01A0B19B8F";
name = "22 août 23 à 13:37";
shapes = (
{
closed = 1;
nodes = (
(228,15,ls),
(335,15,o),
(406,98,o),
(406,199,cs),
(406,214,ls),
(406,316,o),
(335,398,o),
(228,398,cs),
(74,398,l),
(212,398,ls),
(308,398,o),
(372,472,o),
(372,560,cs),
(372,570,ls),
(372,659,o),
(308,732,o),
(212,732,cs),
(201,732,l),
(74,732,l),
(74,15,l),
(213,15,l)
);
},
{
closed = 0;
nodes = (
(141,398,ls),
(237,398,o),
(301,472,o),
(301,560,cs),
(301,570,ls),
(301,659,o),
(237,732,o),
(141,732,cs)
);
}
);
width = 461;
},
{
associatedMasterId = m01;
background = {
hints = (
{
horizontal = 1;
place = (2,25);
type = Stem;
},
{
horizontal = 1;
place = (382,24);
type = Stem;
},
{
horizontal = 1;
place = (722,25);
type = Stem;
},
{
place = (62,24);
type = Stem;
},
{
place = (290,26);
type = Stem;
},
{
place = (362,25);
type = Stem;
},
{
place = (394,25);
type = Stem;
}
);
shapes = (
{
closed = 1;
nodes = (
(74,747,ls),
(67,747,o),
(62,742,o),
(62,735,cs),
(62,15,ls),
(62,8,o),
(67,2,o),
(74,2,cs),
(233,2,l),
(280,7,o),
(325,27,o),
(358,60,cs),
(392,93,o),
(413,137,o),
(418,184,cs),
(418,190,o),
(419,197,o),
(419,204,cs),
(419,251,o),
(402,298,o),
(372,334,cs),
(349,362,o),
(308,384,o),
(270,396,c),
(293,405,o),
(315,417,o),
(330,432,cs),
(366,466,o),
(387,514,o),
(387,564,cs),
(387,614,o),
(366,662,o),
(331,696,cs),
(297,729,o),
(250,748,o),
(203,748,cs),
(200,748,o),
(198,748,o),
(196,747,c)
);
},
{
closed = 1;
nodes = (
(86,406,l),
(86,722,l),
(123,722,ls),
(160,722,o),
(207,708,o),
(245,676,cs),
(276,648,o),
(290,607,o),
(290,565,cs),
(290,527,o),
(274,479,o),
(240,449,cs),
(208,422,o),
(158,408,o),
(123,408,cs),
(121,408,o),
(120,407,o),
(118,406,c)
);
},
{
closed = 1;
nodes = (
(236,415,o),
(247,422,o),
(256,431,c),
(295,463,o),
(316,516,o),
(316,565,cs),
(316,613,o),
(300,662,o),
(261,694,cs),
(249,705,o),
(235,714,o),
(221,722,c),
(255,718,o),
(289,702,o),
(313,678,cs),
(344,649,o),
(362,607,o),
(362,564,cs),
(362,521,o),
(343,479,o),
(313,450,cs),
(290,429,o),
(256,415,o),
(225,409,c)
);
},
{
closed = 1;
nodes = (
(86,27,l),
(86,382,l),
(211,382,ls),
(253,382,o),
(324,352,o),
(353,318,cs),
(379,287,o),
(394,245,o),
(394,204,cs),
(394,198,o),
(394,192,o),
(393,186,cs),
(389,146,o),
(370,106,o),
(341,78,cs),
(312,49,o),
(273,31,o),
(232,27,c)
);
}
);
};
layerId = "A026334E-7690-419F-AE0B-3E27A2F88173";
name = "22 août 23 à 15:26";
shapes = (
{
closed = 1;
nodes = (
(228,15,ls),
(335,15,o),
(406,98,o),
(406,199,cs),
(406,214,ls),
(406,316,o),
(335,398,o),
(228,398,cs),
(74,398,l),
(212,398,ls),
(308,398,o),
(372,472,o),
(372,560,cs),
(372,570,ls),
(372,659,o),
(308,732,o),
(212,732,cs),
(201,732,l),
(74,732,l),
(74,15,l),
(213,15,l)
);
},
{
closed = 0;
nodes = (
(141,398,ls),
(237,398,o),
(301,472,o),
(301,560,cs),
(301,570,ls),
(301,659,o),
(237,732,o),
(141,732,cs)
);
}
);
width = 461;
},
{
anchors = (
{
name = bottom;
pos = (236,0);
},
{
name = center;
pos = (236,374);
},
{
name = top;
pos = (236,747);
}
);
associatedMasterId = m01;
background = {
hints = (
{
horizontal = 1;
place = (2,25);
type = Stem;
},
{
horizontal = 1;
place = (382,24);
type = Stem;
},
{
horizontal = 1;
place = (722,25);
type = Stem;
},
{
place = (62,24);
type = Stem;
},
{
place = (290,26);
type = Stem;
},
{
place = (362,25);
type = Stem;
},
{
place = (394,25);
type = Stem;
}
);
shapes = (
{
closed = 1;
nodes = (
(80,747,ls),
(73,747,o),
(68,742,o),
(68,735,cs),
(68,15,ls),
(68,8,o),
(73,2,o),
(80,2,cs),
(239,2,l),
(286,7,o),
(331,27,o),
(364,60,cs),
(398,93,o),
(419,137,o),
(424,184,cs),
(424,190,o),
(425,197,o),
(425,204,cs),
(425,251,o),
(408,298,o),
(378,334,cs),
(355,362,o),
(314,384,o),
(276,396,c),
(299,405,o),
(321,417,o),
(336,432,cs),
(372,466,o),
(393,514,o),
(393,564,cs),
(393,614,o),
(372,662,o),
(337,696,cs),
(303,729,o),
(256,748,o),
(209,748,cs),
(206,748,o),
(204,748,o),
(202,747,c)
);
},
{
closed = 1;
nodes = (
(92,406,l),
(92,722,l),
(129,722,ls),
(166,722,o),
(213,708,o),
(251,676,cs),
(282,648,o),
(296,607,o),
(296,565,cs),
(296,527,o),
(280,479,o),
(246,449,cs),
(214,422,o),
(164,408,o),
(129,408,cs),
(127,408,o),
(126,407,o),
(124,406,c)
);
},
{
closed = 1;
nodes = (
(242,415,o),
(253,422,o),
(262,431,c),
(301,463,o),
(322,516,o),
(322,565,cs),
(322,613,o),
(306,662,o),
(267,694,cs),
(255,705,o),
(241,714,o),
(227,722,c),
(261,718,o),
(295,702,o),
(319,678,cs),
(350,649,o),
(368,607,o),
(368,564,cs),
(368,521,o),
(349,479,o),
(319,450,cs),
(296,429,o),
(262,415,o),
(231,409,c)
);
},
{
closed = 1;
nodes = (
(92,27,l),
(92,382,l),
(217,382,ls),
(259,382,o),
(330,352,o),
(359,318,cs),
(385,287,o),
(400,245,o),
(400,204,cs),
(400,198,o),
(400,192,o),
(399,186,cs),
(395,146,o),
(376,106,o),
(347,78,cs),
(318,49,o),
(279,31,o),
(238,27,c)
);
}
);
};
layerId = "D4A7A55C-B358-48CF-A5DD-3336AF1E167B";
name = "22 août 23 à 17:21";
shapes = (
{
closed = 1;
nodes = (
(234,15,ls),
(341,15,o),
(412,98,o),
(412,199,cs),
(412,214,ls),
(412,316,o),
(341,398,o),
(234,398,cs),
(80,398,l),
(218,398,ls),
(314,398,o),
(378,472,o),
(378,560,cs),
(378,570,ls),
(378,659,o),
(314,732,o),
(218,732,cs),
(207,732,l),
(80,732,l),
(80,15,l),
(219,15,l)
);
},
{
closed = 0;
nodes = (
(147,398,ls),
(243,398,o),
(307,472,o),
(307,560,cs),
(307,570,ls),
(307,659,o),
(243,732,o),
(147,732,cs)
);
}
);
width = 472;
}
);
note = B;
unicode = 66;
},
{
glyphname = C;
kernLeft = O;
kernRight = C;
lastChange = "2023-09-04 14:13:34 +0000";
layers = (
{
anchors = (
{
name = bottom;
pos = (391,16);
},
{
name = top;
pos = (391,774);
}
);
background = {
hints = (
{
horizontal = 1;
place = (2,25);
type = Stem;
},
{
horizontal = 1;
place = (722,26);
type = Stem;
},
{
place = (44,25);
type = Stem;
},
{
place = (148,26);
type = Stem;
}
);
shapes = (
{
closed = 1;
nodes = (
(55,145,o),
(191,5,o),
(366,2,cs),
(446,0,o),
(529,26,o),
(595,92,cs),
(601,98,o),
(604,106,o),
(604,114,cs),
(604,121,o),
(601,129,o),
(595,135,cs),
(589,141,o),
(581,144,o),
(574,144,cs),
(566,144,o),
(558,141,o),
(552,135,cs),
(501,84,o),
(433,60,o),
(368,60,cs),
(217,63,o),
(115,188,o),
(109,346,cs),
(109,489,o),
(206,639,o),
(367,639,cs),
(419,639,o),
(464,622,o),
(497,601,cs),
(502,598,o),
(508,596,o),
(513,596,cs),
(523,596,o),
(533,601,o),
(539,610,cs),
(542,615,o),
(544,621,o),
(544,626,cs),
(544,636,o),
(539,646,o),
(530,652,cs),
(482,683,o),
(425,700,o),
(367,700,cs),
(177,700,o),
(49,531,o),
(49,347,cs)
);
},
{
closed = 0;
nodes = (
(668,458,l),
(668,575,o),
(564,690,o),
(404,690,cs),
(213,690,o),
(80,550,o),
(80,350,cs),
(80,150,o),
(213,10,o),
(404,10,cs),
(564,10,o),
(668,125,o),
(668,242,c)
);
}
);
};
layerId = m01;
shapes = (
{
closed = 1;
nodes = (
(638,152,o),
(551,55,o),
(404,55,cs),
(226,55,o),
(110,177,o),
(110,365,cs),
(110,553,o),
(226,675,o),
(404,675,cs),
(551,675,o),
(638,578,o),
(638,473,cs),
(638,456,o),
(651,443,o),
(668,443,cs),
(685,443,o),
(698,456,o),
(698,473,cs),
(698,606,o),
(581,735,o),
(404,735,cs),
(196,735,o),
(50,581,o),
(50,365,cs),
(50,149,o),
(196,-5,o),
(404,-5,cs),
(581,-5,o),
(698,124,o),
(698,257,cs),
(698,274,o),
(685,287,o),
(668,287,cs),
(651,287,o),
(638,274,o),
(638,257,cs)
);
}
);
width = 738;
},
{
associatedMasterId = m01;
hints = (
{
horizontal = 1;
place = (2,25);
type = Stem;
},
{
horizontal = 1;
place = (722,26);
type = Stem;
},
{
place = (44,25);
type = Stem;
},
{
place = (148,26);
type = Stem;
}
);
layerId = "597D4CCB-F6D8-40A8-B50D-6F58700972BB";
name = "22 août 23 à 12:50";
shapes = (
{
closed = 1;
nodes = (
(260,27,ls),
(224,27,o),
(200,35,o),
(173,51,c),
(174,51,l),
(174,698,l),
(200,715,o),
(225,722,o),
(261,722,cs),
(293,722,o),
(323,716,o),
(354,697,cs),
(367,688,o),
(379,678,o),
(389,667,cs),
(394,662,o),
(402,662,o),
(407,666,cs),
(412,671,o),
(412,679,o),
(408,684,cs),
(396,697,o),
(382,708,o),
(367,718,cs),
(331,740,o),
(298,748,o),
(261,748,cs),
(219,748,o),
(188,737,o),
(157,718,cs),
(111,688,o),
(81,641,o),
(65,592,cs),
(49,543,o),
(44,492,o),
(44,442,cs),
(44,375,l),
(44,307,ls),
(44,257,o),
(49,206,o),
(65,157,cs),
(81,108,o),
(111,61,o),
(157,32,cs),
(192,10,o),
(224,2,o),
(260,2,cs),
(261,2,ls),
(303,3,o),
(338,11,o),
(369,33,cs),
(398,54,o),
(417,82,o),
(427,114,cs),
(429,121,o),
(425,128,o),
(419,130,cs),
(412,132,o),
(405,128,o),
(403,122,cs),
(394,94,o),
(379,71,o),
(354,53,cs),
(328,34,o),
(300,28,o),
(261,27,cs)
);
},
{
closed = 1;
nodes = (
(148,69,l),
(120,94,o),
(100,129,o),
(88,165,cs),
(74,210,o),
(69,258,o),
(69,307,cs),
(69,331,o),
(68,353,o),
(68,375,cs),
(68,397,o),
(69,418,o),
(69,442,cs),
(69,491,o),
(74,539,o),
(88,584,cs),
(100,621,o),
(120,655,o),
(148,680,c)
);
}
);
width = 474;
},
{
associatedMasterId = m01;
background = {
hints = (
{
horizontal = 1;
place = (2,25);
type = Stem;
},
{
horizontal = 1;
place = (722,26);
type = Stem;
},
{
place = (44,25);
type = Stem;
},
{
place = (148,26);
type = Stem;
}
);
shapes = (
{
closed = 1;
nodes = (
(260,27,ls),
(224,27,o),
(200,35,o),
(173,51,c),
(174,51,l),
(174,698,l),
(200,715,o),
(225,722,o),
(261,722,cs),
(293,722,o),
(323,716,o),
(354,697,cs),
(367,688,o),
(379,678,o),
(389,667,cs),
(394,662,o),
(402,662,o),
(407,666,cs),
(412,671,o),
(412,679,o),
(408,684,cs),
(396,697,o),
(382,708,o),
(367,718,cs),
(331,740,o),
(298,748,o),
(261,748,cs),
(219,748,o),
(188,737,o),
(157,718,cs),
(111,688,o),
(81,641,o),
(65,592,cs),
(49,543,o),
(44,492,o),
(44,442,cs),
(44,375,l),
(44,307,ls),
(44,257,o),
(49,206,o),
(65,157,cs),
(81,108,o),
(111,61,o),
(157,32,cs),
(192,10,o),
(224,2,o),
(260,2,cs),
(261,2,ls),
(303,3,o),
(338,11,o),
(369,33,cs),
(398,54,o),
(417,82,o),
(427,114,cs),
(429,121,o),
(425,128,o),
(419,130,cs),
(412,132,o),
(405,128,o),
(403,122,cs),
(394,94,o),
(379,71,o),
(354,53,cs),
(328,34,o),
(300,28,o),
(261,27,cs)
);
},
{
closed = 1;
nodes = (
(148,69,l),
(120,94,o),
(100,129,o),
(88,165,cs),
(74,210,o),
(69,258,o),
(69,307,cs),
(69,331,o),
(68,353,o),
(68,375,cs),
(68,397,o),
(69,418,o),
(69,442,cs),
(69,491,o),
(74,539,o),
(88,584,cs),
(100,621,o),
(120,655,o),
(148,680,c)
);
}
);
};
layerId = "F47369C1-6C68-488A-96A2-3FED17969F46";
name = "22 août 23 à 13:37";
shapes = (
{
closed = 0;
nodes = (
(413,673,l),
(379,715,o),
(330,737,o),
(268,737,cs),
(254,737,ls),
(126,737,o),
(54,644,o),
(54,477,cs),
(54,270,ls),
(54,103,o),
(126,10,o),
(254,10,cs),
(268,10,ls),
(352,10,o),
(405,53,o),
(427,126,c)
);
},
{
closed = 0;
nodes = (
(160,31,l),
(160,715,l)
);
}
);
width = 474;
},
{
associatedMasterId = m01;
background = {
hints = (
{
horizontal = 1;
place = (2,25);
type = Stem;
},
{
horizontal = 1;
place = (722,26);
type = Stem;
},
{
place = (44,25);
type = Stem;
},
{
place = (148,26);
type = Stem;
}
);
shapes = (
{
closed = 1;
nodes = (
(260,27,ls),
(224,27,o),
(200,35,o),
(173,51,c),
(174,51,l),
(174,698,l),
(200,715,o),
(225,722,o),
(261,722,cs),
(293,722,o),
(323,716,o),
(354,697,cs),
(367,688,o),
(379,678,o),
(389,667,cs),
(394,662,o),
(402,662,o),
(407,666,cs),
(412,671,o),
(412,679,o),
(408,684,cs),
(396,697,o),
(382,708,o),
(367,718,cs),
(331,740,o),
(298,748,o),
(261,748,cs),
(219,748,o),
(188,737,o),
(157,718,cs),
(111,688,o),
(81,641,o),
(65,592,cs),
(49,543,o),
(44,492,o),
(44,442,cs),
(44,375,l),
(44,307,ls),
(44,257,o),
(49,206,o),
(65,157,cs),
(81,108,o),
(111,61,o),
(157,32,cs),
(192,10,o),
(224,2,o),
(260,2,cs),
(261,2,ls),
(303,3,o),
(338,11,o),
(369,33,cs),
(398,54,o),
(417,82,o),
(427,114,cs),
(429,121,o),
(425,128,o),
(419,130,cs),
(412,132,o),
(405,128,o),
(403,122,cs),
(394,94,o),
(379,71,o),
(354,53,cs),
(328,34,o),
(300,28,o),
(261,27,cs)
);
},
{
closed = 1;
nodes = (
(148,69,l),
(120,94,o),
(100,129,o),
(88,165,cs),
(74,210,o),
(69,258,o),
(69,307,cs),
(69,331,o),
(68,353,o),
(68,375,cs),
(68,397,o),
(69,418,o),
(69,442,cs),
(69,491,o),
(74,539,o),
(88,584,cs),
(100,621,o),
(120,655,o),
(148,680,c)
);
}
);
};
layerId = "39155922-11A6-420F-AFCC-D2FECE393A4B";
name = "22 août 23 à 15:26";
shapes = (
{
closed = 0;
nodes = (
(413,673,l),
(379,715,o),
(330,737,o),
(268,737,cs),
(254,737,ls),
(126,737,o),
(54,644,o),
(54,477,cs),
(54,270,ls),
(54,103,o),
(126,10,o),
(254,10,cs),
(268,10,ls),
(352,10,o),
(405,53,o),
(427,126,c)
);
},
{
closed = 0;
nodes = (
(160,31,l),
(160,715,l)
);
}
);
width = 474;
},
{
anchors = (
{
name = bottom;
pos = (252,0);
},
{
name = top;
pos = (252,747);
}
);
associatedMasterId = m01;
background = {
hints = (
{
horizontal = 1;
place = (2,25);
type = Stem;
},
{
horizontal = 1;
place = (722,26);
type = Stem;
},
{
place = (44,25);
type = Stem;
},
{
place = (148,26);
type = Stem;
}
);
shapes = (
{
closed = 1;
nodes = (
(276,27,ls),
(240,27,o),
(216,35,o),
(189,51,c),
(190,51,l),
(190,698,l),
(216,715,o),
(241,722,o),
(277,722,cs),
(309,722,o),
(339,716,o),
(370,697,cs),
(383,688,o),
(395,678,o),
(405,667,cs),
(410,662,o),
(418,662,o),
(423,666,cs),
(428,671,o),
(428,679,o),
(424,684,cs),
(412,697,o),
(398,708,o),
(383,718,cs),
(347,740,o),
(314,748,o),
(277,748,cs),
(235,748,o),
(204,737,o),
(173,718,cs),
(127,688,o),
(97,641,o),
(81,592,cs),
(65,543,o),
(60,492,o),
(60,442,cs),
(60,375,l),
(60,307,ls),
(60,257,o),
(65,206,o),
(81,157,cs),
(97,108,o),
(127,61,o),
(173,32,cs),
(208,10,o),
(240,2,o),
(276,2,cs),
(277,2,ls),
(319,3,o),
(354,11,o),
(385,33,cs),
(414,54,o),
(433,82,o),
(443,114,cs),
(445,121,o),
(441,128,o),
(435,130,cs),
(428,132,o),
(421,128,o),
(419,122,cs),
(410,94,o),
(395,71,o),
(370,53,cs),
(344,34,o),
(316,28,o),
(277,27,cs)
);
},
{
closed = 1;
nodes = (
(164,69,l),
(136,94,o),
(116,129,o),
(104,165,cs),
(90,210,o),
(85,258,o),
(85,307,cs),
(85,331,o),
(84,353,o),
(84,375,cs),
(84,397,o),
(85,418,o),
(85,442,cs),
(85,491,o),
(90,539,o),
(104,584,cs),
(116,621,o),
(136,655,o),
(164,680,c)
);
}
);
};
layerId = "7361BB4D-FB45-49AE-9C2B-4080B53B4171";
name = "22 août 23 à 17:21";
shapes = (
{
closed = 0;
nodes = (
(429,673,l),
(395,715,o),
(346,737,o),
(284,737,cs),
(270,737,ls),
(142,737,o),
(70,644,o),
(70,477,cs),
(70,270,ls),
(70,103,o),
(142,10,o),
(270,10,cs),
(284,10,ls),
(368,10,o),
(421,53,o),
(443,126,c)
);
},
{
closed = 0;
nodes = (
(176,31,l),
(176,715,l)
);
}
);
width = 503;
}
);
note = C;
unicode = 67;
},
{
glyphname = D;
kernLeft = H;
kernRight = O;
lastChange = "2023-09-04 14:13:34 +0000";
layers = (
{
anchors = (
{
name = bottom;
pos = (354,16);
},
{
name = center;
pos = (354,366);
},
{
name = top;
pos = (324,774);
}
);
background = {
hints = (
{
horizontal = 1;
place = (2,21);
target = up;
type = BottomGhost;
},
{
horizontal = 1;
place = (722,26);
type = Stem;
},
{
place = (62,24);
type = Stem;
},
{
place = (346,24);
type = Stem;
},
{
place = (426,25);
type = Stem;
},
{
horizontal = 1;
place = (3,24);
type = Stem;
}
);
shapes = (
{
closed = 1;
nodes = (
(82,32,ls),
(82,15,o),
(95,2,o),
(112,2,cs),
(129,2,o),
(142,15,o),
(142,32,cs),
(142,672,ls),
(142,689,o),
(129,702,o),
(112,702,cs),
(95,702,o),
(82,689,o),
(82,672,cs)
);
},
{
closed = 1;
nodes = (
(238,640,ls),
(419,640,o),
(493,512,o),
(493,348,cs),
(493,346,ls),
(493,193,o),
(416,60,o),
(270,60,cs),
(197,60,ls),
(180,60,o),
(167,47,o),
(167,30,cs),
(167,13,o),
(180,0,o),
(197,0,c),
(273,0,ls),
(443,0,o),
(551,170,o),
(551,348,cs),
(551,350,ls),
(551,544,o),
(448,700,o),
(240,700,cs),
(204,700,ls),
(187,700,o),
(174,687,o),
(174,670,cs),
(174,653,o),
(187,640,o),
(204,640,cs)
);
},
{
closed = 0;
nodes = (
(110,685,l),
(110,15,l)
);
},
{
closed = 0;
nodes = (
(210,15,l),
(324,15,ls),
(505,15,o),
(625,173,o),
(625,349,cs),
(625,351,ls),
(625,528,o),
(505,685,o),
(324,685,cs),
(210,685,l)
);
}
);
};
layerId = m01;
shapes = (
{
closed = 1;
nodes = (
(140,700,ls),
(140,717,o),
(127,730,o),
(110,730,cs),
(93,730,o),
(80,717,o),
(80,700,cs),
(80,30,ls),
(80,13,o),
(93,0,o),
(110,0,cs),
(127,0,o),
(140,13,o),
(140,30,cs)
);
},
{
closed = 1;
nodes = (
(324,670,ls),
(490,670,o),
(595,533,o),
(595,366,cs),
(595,364,ls),
(595,198,o),
(490,60,o),
(324,60,cs),
(210,60,ls),
(193,60,o),
(180,47,o),
(180,30,cs),
(180,13,o),
(193,0,o),
(210,0,cs),
(324,0,ls),
(524,0,o),
(655,174,o),
(655,364,cs),
(655,366,ls),
(655,557,o),
(524,730,o),
(324,730,cs),
(210,730,ls),
(193,730,o),
(180,717,o),
(180,700,cs),
(180,683,o),
(193,670,o),
(210,670,cs)
);
}
);
width = 705;
},
{
associatedMasterId = m01;
hints = (
{
horizontal = 1;
place = (2,21);
target = up;
type = BottomGhost;
},
{
horizontal = 1;
place = (722,26);
type = Stem;
},
{
place = (62,24);
type = Stem;
},
{
place = (346,24);
type = Stem;
},
{
place = (426,25);
type = Stem;
},
{
horizontal = 1;
place = (3,24);
type = Stem;
}
);
layerId = "074A1A2C-12EC-4346-BAF0-6A7690E5B88E";
name = "22 août 23 à 12:50";
shapes = (
{
closed = 1;
nodes = (
(74,748,ls),
(67,748,o),
(62,742,o),
(62,735,cs),
(62,15,ls),
(62,8,o),
(67,2,o),
(74,2,cs),
(111,2,l),
(113,1,o),
(116,0,o),
(118,0,cs),
(128,0,o),
(139,1,o),
(149,3,c),
(196,3,l),
(198,2,o),
(199,2,o),
(201,2,cs),
(243,2,o),
(285,15,o),
(320,39,cs),
(373,74,o),
(408,131,o),
(426,190,cs),
(445,249,o),
(450,311,o),
(450,372,c),
(451,375,o),
(451,378,o),
(451,381,cs),
(451,437,o),
(446,493,o),
(431,547,cs),
(416,605,o),
(386,661,o),
(338,699,cs),
(299,730,o),
(250,748,o),
(200,748,cs)
);
},
{
closed = 1;
nodes = (
(86,27,l),
(86,722,l),
(111,722,l),
(113,721,o),
(116,720,o),
(118,720,cs),
(154,720,o),
(204,710,o),
(240,678,c),
(288,641,o),
(314,583,o),
(326,540,cs),
(341,486,o),
(346,427,o),
(346,368,cs),
(346,309,o),
(340,250,o),
(321,197,cs),
(302,143,o),
(272,91,o),
(226,58,cs),
(202,41,o),
(175,31,o),
(147,27,c)
);
},
{
closed = 1;
nodes = (
(232,32,o),
(236,35,o),
(240,38,cs),
(297,78,o),
(327,139,o),
(345,189,cs),
(366,246,o),
(370,307,o),
(370,368,cs),
(370,429,o),
(365,490,o),
(350,546,cs),
(337,594,o),
(309,657,o),
(256,698,cs),
(245,707,o),
(233,715,o),
(220,721,c),
(257,717,o),
(293,702,o),
(322,679,cs),
(370,641,o),
(395,585,o),
(407,541,cs),
(421,489,o),
(426,435,o),
(426,381,cs),
(426,372,ls),
(425,313,o),
(420,253,o),
(403,198,cs),
(385,142,o),
(353,91,o),
(306,59,cs),
(282,44,o),
(255,33,o),
(227,29,c)
);
}
);
width = 492;
},
{
associatedMasterId = m01;
background = {
hints = (
{
horizontal = 1;
place = (2,21);
target = up;
type = BottomGhost;
},
{
horizontal = 1;
place = (722,26);
type = Stem;
},
{
place = (62,24);
type = Stem;
},
{
place = (346,24);
type = Stem;
},
{
place = (426,25);
type = Stem;
},
{
horizontal = 1;
place = (3,24);
type = Stem;
}
);
shapes = (
{
closed = 1;
nodes = (
(74,748,ls),
(67,748,o),
(62,742,o),
(62,735,cs),
(62,15,ls),
(62,8,o),
(67,2,o),
(74,2,cs),
(111,2,l),
(113,1,o),
(116,0,o),
(118,0,cs),
(128,0,o),
(139,1,o),
(149,3,c),
(196,3,l),
(198,2,o),
(199,2,o),
(201,2,cs),
(243,2,o),
(285,15,o),
(320,39,cs),
(373,74,o),
(408,131,o),
(426,190,cs),
(445,249,o),
(450,311,o),
(450,372,c),
(451,375,o),
(451,378,o),
(451,381,cs),
(451,437,o),
(446,493,o),
(431,547,cs),
(416,605,o),
(386,661,o),
(338,699,cs),
(299,730,o),
(250,748,o),
(200,748,cs)
);
},
{
closed = 1;
nodes = (
(86,27,l),
(86,722,l),
(111,722,l),
(113,721,o),
(116,720,o),
(118,720,cs),
(154,720,o),
(204,710,o),
(240,678,c),
(288,641,o),
(314,583,o),
(326,540,cs),
(341,486,o),
(346,427,o),
(346,368,cs),
(346,309,o),
(340,250,o),
(321,197,cs),
(302,143,o),
(272,91,o),
(226,58,cs),
(202,41,o),
(175,31,o),
(147,27,c)
);
},
{
closed = 1;
nodes = (
(232,32,o),
(236,35,o),
(240,38,cs),
(297,78,o),
(327,139,o),
(345,189,cs),
(366,246,o),
(370,307,o),
(370,368,cs),
(370,429,o),
(365,490,o),
(350,546,cs),
(337,594,o),
(309,657,o),
(256,698,cs),
(245,707,o),
(233,715,o),
(220,721,c),
(257,717,o),
(293,702,o),
(322,679,cs),
(370,641,o),
(395,585,o),
(407,541,cs),
(421,489,o),
(426,435,o),
(426,381,cs),
(426,372,ls),
(425,313,o),
(420,253,o),
(403,198,cs),
(385,142,o),
(353,91,o),
(306,59,cs),
(282,44,o),
(255,33,o),
(227,29,c)
);
}
);
};
layerId = "BD7D5876-0228-498C-87BE-587349501B6B";
name = "22 août 23 à 13:37";
shapes = (
{
closed = 1;
nodes = (
(74,732,l),
(74,15,l),
(213,15,l),
(227,15,ls),
(356,15,o),
(442,141,o),
(442,330,cs),
(442,417,ls),
(442,607,o),
(356,732,o),
(227,732,cs),
(213,732,l)
);
},
{
closed = 0;
nodes = (
(134,15,l),
(263,15,o),
(349,141,o),
(349,330,cs),
(349,417,ls),
(349,607,o),
(263,732,o),
(134,732,cs)
);
}
);
width = 492;
},
{
associatedMasterId = m01;
background = {
hints = (
{
horizontal = 1;
place = (2,21);
target = up;
type = BottomGhost;
},
{
horizontal = 1;
place = (722,26);
type = Stem;
},
{
place = (62,24);
type = Stem;
},
{
place = (346,24);
type = Stem;
},
{
place = (426,25);
type = Stem;
},
{
horizontal = 1;
place = (3,24);
type = Stem;
}
);
shapes = (
{
closed = 1;
nodes = (
(74,748,ls),
(67,748,o),
(62,742,o),
(62,735,cs),
(62,15,ls),
(62,8,o),
(67,2,o),
(74,2,cs),
(111,2,l),
(113,1,o),
(116,0,o),
(118,0,cs),
(128,0,o),
(139,1,o),
(149,3,c),
(196,3,l),
(198,2,o),
(199,2,o),
(201,2,cs),
(243,2,o),
(285,15,o),
(320,39,cs),
(373,74,o),
(408,131,o),
(426,190,cs),
(445,249,o),
(450,311,o),
(450,372,c),
(451,375,o),
(451,378,o),
(451,381,cs),
(451,437,o),
(446,493,o),
(431,547,cs),
(416,605,o),
(386,661,o),
(338,699,cs),
(299,730,o),
(250,748,o),
(200,748,cs)
);
},
{
closed = 1;
nodes = (
(86,27,l),
(86,722,l),
(111,722,l),
(113,721,o),
(116,720,o),
(118,720,cs),
(154,720,o),
(204,710,o),
(240,678,c),
(288,641,o),
(314,583,o),
(326,540,cs),
(341,486,o),
(346,427,o),
(346,368,cs),
(346,309,o),
(340,250,o),
(321,197,cs),
(302,143,o),
(272,91,o),
(226,58,cs),
(202,41,o),
(175,31,o),
(147,27,c)
);
},
{
closed = 1;
nodes = (
(232,32,o),
(236,35,o),
(240,38,cs),
(297,78,o),
(327,139,o),
(345,189,cs),
(366,246,o),
(370,307,o),
(370,368,cs),
(370,429,o),
(365,490,o),
(350,546,cs),
(337,594,o),
(309,657,o),
(256,698,cs),
(245,707,o),
(233,715,o),
(220,721,c),
(257,717,o),
(293,702,o),
(322,679,cs),
(370,641,o),
(395,585,o),
(407,541,cs),
(421,489,o),
(426,435,o),
(426,381,cs),
(426,372,ls),
(425,313,o),
(420,253,o),
(403,198,cs),
(385,142,o),
(353,91,o),
(306,59,cs),
(282,44,o),
(255,33,o),
(227,29,c)
);
}
);
};
layerId = "7F2AFE42-A297-469D-B2BE-0F3D80F01C12";
name = "22 août 23 à 15:26";
shapes = (
{
closed = 1;
nodes = (
(74,732,l),
(74,15,l),
(213,15,l),
(227,15,ls),
(356,15,o),
(442,141,o),
(442,330,cs),
(442,417,ls),
(442,607,o),
(356,732,o),
(227,732,cs),
(213,732,l)
);
},
{
closed = 0;
nodes = (
(134,15,l),
(263,15,o),
(349,141,o),
(349,330,cs),
(349,417,ls),
(349,607,o),
(263,732,o),
(134,732,cs)
);
}
);
width = 492;
},
{
anchors = (
{
name = bottom;
pos = (254,0);
},
{
name = center;
pos = (254,374);
},
{
name = top;
pos = (254,747);
}
);
associatedMasterId = m01;
background = {
hints = (
{
horizontal = 1;
place = (2,21);
target = up;
type = BottomGhost;
},
{
horizontal = 1;
place = (722,26);
type = Stem;
},
{
place = (62,24);
type = Stem;
},
{
place = (346,24);
type = Stem;
},
{
place = (426,25);
type = Stem;
},
{
horizontal = 1;
place = (3,24);
type = Stem;
}
);
shapes = (
{
closed = 1;
nodes = (
(80,748,ls),
(73,748,o),
(68,742,o),
(68,735,cs),
(68,15,ls),
(68,8,o),
(73,2,o),
(80,2,cs),
(117,2,l),
(119,1,o),
(122,0,o),
(124,0,cs),
(134,0,o),
(145,1,o),
(155,3,c),
(202,3,l),
(204,2,o),
(205,2,o),
(207,2,cs),
(249,2,o),
(291,15,o),
(326,39,cs),
(379,74,o),
(414,131,o),
(432,190,cs),
(451,249,o),
(456,311,o),
(456,372,c),
(457,375,o),
(457,378,o),
(457,381,cs),
(457,437,o),
(452,493,o),
(437,547,cs),
(422,605,o),
(392,661,o),
(344,699,cs),
(305,730,o),
(256,748,o),
(206,748,cs)
);
},
{
closed = 1;
nodes = (
(92,27,l),
(92,722,l),
(117,722,l),
(119,721,o),
(122,720,o),
(124,720,cs),
(160,720,o),
(210,710,o),
(246,678,c),
(294,641,o),
(320,583,o),
(332,540,cs),
(347,486,o),
(352,427,o),
(352,368,cs),
(352,309,o),
(346,250,o),
(327,197,cs),
(308,143,o),
(278,91,o),
(232,58,cs),
(208,41,o),
(181,31,o),
(153,27,c)
);
},
{
closed = 1;
nodes = (
(238,32,o),
(242,35,o),
(246,38,cs),
(303,78,o),
(333,139,o),
(351,189,cs),
(372,246,o),
(376,307,o),
(376,368,cs),
(376,429,o),
(371,490,o),
(356,546,cs),
(343,594,o),
(315,657,o),
(262,698,cs),
(251,707,o),
(239,715,o),
(226,721,c),
(263,717,o),
(299,702,o),
(328,679,cs),
(376,641,o),
(401,585,o),
(413,541,cs),
(427,489,o),
(432,435,o),
(432,381,cs),
(432,372,ls),
(431,313,o),
(426,253,o),
(409,198,cs),
(391,142,o),
(359,91,o),
(312,59,cs),
(288,44,o),
(261,33,o),
(233,29,c)
);
}
);
};
layerId = "99C2AEEB-A862-4B0C-A9C9-FBC3895C9876";
name = "22 août 23 à 17:21";
shapes = (
{
closed = 1;
nodes = (
(80,732,l),
(80,15,l),
(219,15,l),
(233,15,ls),
(362,15,o),
(448,141,o),
(448,330,cs),
(448,417,ls),
(448,607,o),
(362,732,o),
(233,732,cs),
(219,732,l)
);
},
{
closed = 0;
nodes = (
(140,15,l),
(269,15,o),
(355,141,o),
(355,330,cs),
(355,417,ls),
(355,607,o),
(269,732,o),
(140,732,cs)
);
}
);
width = 508;
}
);
note = D;
unicode = 68;
},
{
glyphname = Eth;
kernLeft = H;
kernRight = O;
lastChange = "2023-09-04 14:13:34 +0000";
layers = (
{
layerId = m01;
shapes = (
{
pos = (117,0);
ref = D;
},
{
closed = 1;
nodes = (
(50,396,ls),
(33,396,o),
(20,383,o),
(20,366,cs),
(20,349,o),
(33,336,o),
(50,336,cs),
(143,336,ls),
(160,336,o),
(173,349,o),
(173,366,cs),
(173,383,o),
(160,396,o),
(143,396,cs)
);
},
{
closed = 1;
nodes = (
(323,396,ls),
(306,396,o),
(293,383,o),
(293,366,cs),
(293,349,o),
(306,336,o),
(323,336,cs),
(416,336,ls),
(433,336,o),
(446,349,o),
(446,366,cs),
(446,383,o),
(433,396,o),
(416,396,cs)
);
}
);
width = 822;
}
);
unicode = 208;
},
{
glyphname = E;
kernLeft = H;
kernRight = E;
lastChange = "2023-09-04 14:13:34 +0000";
layers = (
{
anchors = (
{
name = bottom;
pos = (354,16);
},
{
name = ogonek;
pos = (496,25);
},
{
name = top;
pos = (354,774);
},
{
name = topleft;
pos = (26,714);
}
);
background = {
hints = (
{
horizontal = 1;
place = (2,26);
type = Stem;
},
{
horizontal = 1;
place = (368,26);
type = Stem;
},
{
horizontal = 1;
place = (448,26);
type = Stem;
},
{
horizontal = 1;
place = (722,26);
type = Stem;
},
{
place = (62,24);
type = Stem;
}
);
shapes = (
{
closed = 1;
nodes = (
(50,30,ls),
(50,13,o),
(63,0,o),
(80,0,cs),
(97,0,o),
(110,13,o),
(110,30,cs),
(110,670,ls),
(110,687,o),
(97,700,o),
(80,700,cs),
(63,700,o),
(50,687,o),
(50,670,cs)
);
},
{
closed = 1;
nodes = (
(166,700,ls),
(149,700,o),
(136,687,o),
(136,670,cs),
(136,653,o),
(149,640,o),
(166,640,cs),
(483,640,ls),
(500,640,o),
(513,653,o),
(513,670,cs),
(513,687,o),
(500,700,o),
(483,700,cs)
);
},
{
closed = 1;
nodes = (
(166,404,ls),
(149,404,o),
(136,391,o),
(136,374,cs),
(136,357,o),
(149,344,o),
(166,344,cs),
(424,344,ls),
(441,344,o),
(454,357,o),
(454,374,cs),
(454,391,o),
(441,404,o),
(424,404,cs)
);
},
{
closed = 1;
nodes = (
(164,60,ls),
(147,60,o),
(134,47,o),
(134,30,cs),
(134,13,o),
(147,0,o),
(164,0,cs),
(484,0,ls),
(501,0,o),
(514,13,o),
(514,30,cs),
(514,47,o),
(501,60,o),
(484,60,cs)
);
},
{
closed = 0;
nodes = (
(516,685,l),
(210,685,l)
);
},
{
closed = 0;
nodes = (
(210,378,l),
(454,378,l)
);
},
{
closed = 0;
nodes = (
(110,685,l),
(110,15,l)
);
},
{
closed = 0;
nodes = (
(210,15,l),
(516,15,l)
);
}
);
};
layerId = m01;
shapes = (
{
closed = 1;
nodes = (
(516,670,ls),
(533,670,o),
(546,683,o),
(546,700,cs),
(546,717,o),
(533,730,o),
(516,730,cs),
(210,730,ls),
(193,730,o),
(180,717,o),
(180,700,cs),
(180,683,o),
(193,670,o),
(210,670,cs)
);
},
{
closed = 1;
nodes = (
(210,423,ls),
(193,423,o),
(180,410,o),
(180,393,cs),
(180,376,o),
(193,363,o),
(210,363,cs),
(454,363,ls),
(471,363,o),
(484,376,o),
(484,393,cs),
(484,410,o),
(471,423,o),
(454,423,cs)
);
},
{
closed = 1;
nodes = (
(140,700,ls),
(140,717,o),
(127,730,o),
(110,730,cs),
(93,730,o),
(80,717,o),
(80,700,cs),
(80,30,ls),
(80,13,o),
(93,0,o),
(110,0,cs),
(127,0,o),
(140,13,o),
(140,30,cs)
);
},
{
closed = 1;
nodes = (
(210,60,ls),
(193,60,o),
(180,47,o),
(180,30,cs),
(180,13,o),
(193,0,o),
(210,0,cs),
(516,0,ls),
(533,0,o),
(546,13,o),
(546,30,cs),
(546,47,o),
(533,60,o),
(516,60,cs)
);
}
);
width = 606;
},
{
associatedMasterId = m01;
hints = (
{
horizontal = 1;
place = (2,26);
type = Stem;
},
{
horizontal = 1;
place = (368,26);
type = Stem;
},
{
horizontal = 1;
place = (448,26);
type = Stem;
},
{
horizontal = 1;
place = (722,26);
type = Stem;
},
{
place = (62,24);
type = Stem;
}
);
layerId = "EB6C7110-8D6B-40C8-938C-A35318F2ECBF";
name = "22 août 23 à 12:50";
shapes = (
{
closed = 1;
nodes = (
(86,28,l),
(86,368,l),
(336,368,ls),
(343,368,o),
(348,374,o),
(348,381,cs),
(348,388,o),
(343,394,o),
(336,394,cs),
(86,394,l),
(86,448,l),
(334,448,ls),
(341,448,o),
(346,454,o),
(346,461,cs),
(346,468,o),
(341,474,o),
(334,474,cs),
(86,474,l),
(86,722,l),
(357,722,ls),
(364,722,o),
(370,728,o),
(370,735,cs),
(370,742,o),
(364,748,o),
(357,748,cs),
(74,748,ls),
(67,748,o),
(62,742,o),
(62,735,cs),
(62,15,ls),
(62,8,o),
(67,2,o),
(74,2,cs),
(357,2,ls),
(364,2,o),
(370,8,o),
(370,15,cs),
(370,22,o),
(364,28,o),
(357,28,cs)
);
}
);
width = 440;
},
{
associatedMasterId = m01;
background = {
hints = (
{
horizontal = 1;
place = (2,26);
type = Stem;
},
{
horizontal = 1;
place = (368,26);
type = Stem;
},
{
horizontal = 1;
place = (448,26);
type = Stem;
},
{
horizontal = 1;
place = (722,26);
type = Stem;
},
{
place = (62,24);
type = Stem;
}
);
shapes = (
{
closed = 1;
nodes = (
(86,28,l),
(86,368,l),
(336,368,ls),
(343,368,o),
(348,374,o),
(348,381,cs),
(348,388,o),
(343,394,o),
(336,394,cs),
(86,394,l),
(86,448,l),
(334,448,ls),
(341,448,o),
(346,454,o),
(346,461,cs),
(346,468,o),
(341,474,o),
(334,474,cs),
(86,474,l),
(86,722,l),
(357,722,ls),
(364,722,o),
(370,728,o),
(370,735,cs),
(370,742,o),
(364,748,o),
(357,748,cs),
(74,748,ls),
(67,748,o),
(62,742,o),
(62,735,cs),
(62,15,ls),
(62,8,o),
(67,2,o),
(74,2,cs),
(357,2,ls),
(364,2,o),
(370,8,o),
(370,15,cs),
(370,22,o),
(364,28,o),
(357,28,cs)
);
}
);
};
layerId = "C20FD62F-EF18-4B21-B305-BCE2E53064BC";
name = "22 août 23 à 13:37";
shapes = (
{
closed = 0;
nodes = (
(364,732,l),
(74,732,l),
(74,15,l),
(364,15,l)
);
},
{
closed = 0;
nodes = (
(74,382,l),
(339,382,l)
);
},
{
closed = 0;
nodes = (
(74,504,l),
(339,504,l)
);
}
);
width = 440;
},
{
associatedMasterId = m01;
background = {
hints = (
{
horizontal = 1;
place = (2,26);
type = Stem;
},
{
horizontal = 1;
place = (368,26);
type = Stem;
},
{
horizontal = 1;
place = (448,26);
type = Stem;
},
{
horizontal = 1;
place = (722,26);
type = Stem;
},
{
place = (62,24);
type = Stem;
}
);
shapes = (
{
closed = 1;
nodes = (
(86,28,l),
(86,368,l),
(336,368,ls),
(343,368,o),
(348,374,o),
(348,381,cs),
(348,388,o),
(343,394,o),
(336,394,cs),
(86,394,l),
(86,448,l),
(334,448,ls),
(341,448,o),
(346,454,o),
(346,461,cs),
(346,468,o),
(341,474,o),
(334,474,cs),
(86,474,l),
(86,722,l),
(357,722,ls),
(364,722,o),
(370,728,o),
(370,735,cs),
(370,742,o),
(364,748,o),
(357,748,cs),
(74,748,ls),
(67,748,o),
(62,742,o),
(62,735,cs),
(62,15,ls),
(62,8,o),
(67,2,o),
(74,2,cs),
(357,2,ls),
(364,2,o),
(370,8,o),
(370,15,cs),
(370,22,o),
(364,28,o),
(357,28,cs)
);
}
);
};
layerId = "C640E0F1-B360-4727-A02F-392C2BC81919";
name = "22 août 23 à 15:26";
shapes = (
{
closed = 0;
nodes = (
(364,732,l),
(74,732,l),
(74,15,l),
(364,15,l)
);
},
{
closed = 0;
nodes = (
(74,382,l),
(339,382,l)
);
},
{
closed = 0;
nodes = (
(74,504,l),
(339,504,l)
);
}
);
width = 440;
},
{
anchors = (
{
name = bottom;
pos = (220,0);
},
{
name = ogonek;
pos = (396,10);
},
{
name = top;
pos = (220,747);
},
{
name = topleft;
pos = (20,747);
}
);
associatedMasterId = m01;
background = {
hints = (
{
horizontal = 1;
place = (2,26);
type = Stem;
},
{
horizontal = 1;
place = (368,26);
type = Stem;
},
{
horizontal = 1;
place = (448,26);
type = Stem;
},
{
horizontal = 1;
place = (722,26);
type = Stem;
},
{
place = (62,24);
type = Stem;
}
);
shapes = (
{
closed = 1;
nodes = (
(92,28,l),
(92,368,l),
(342,368,ls),
(349,368,o),
(354,374,o),
(354,381,cs),
(354,388,o),
(349,394,o),
(342,394,cs),
(92,394,l),
(92,448,l),
(340,448,ls),
(347,448,o),
(352,454,o),
(352,461,cs),
(352,468,o),
(347,474,o),
(340,474,cs),
(92,474,l),
(92,722,l),
(363,722,ls),
(370,722,o),
(376,728,o),
(376,735,cs),
(376,742,o),
(370,748,o),
(363,748,cs),
(80,748,ls),
(73,748,o),
(68,742,o),
(68,735,cs),
(68,15,ls),
(68,8,o),
(73,2,o),
(80,2,cs),
(363,2,ls),
(370,2,o),
(376,8,o),
(376,15,cs),
(376,22,o),
(370,28,o),
(363,28,cs)
);
}
);
};
layerId = "A46C20BC-98FB-4236-B467-08CD22D13968";
name = "22 août 23 à 17:21";
shapes = (
{
closed = 0;
nodes = (
(370,732,l),
(80,732,l),
(80,15,l),
(370,15,l)
);
},
{
closed = 0;
nodes = (
(80,382,l),
(345,382,l)
);
},
{
closed = 0;
nodes = (
(80,504,l),
(345,504,l)
);
}
);
width = 440;
}
);
note = E;
unicode = 69;
},
{
glyphname = F;
kernLeft = H;
kernRight = F;
lastChange = "2023-09-04 14:13:34 +0000";
layers = (
{
anchors = (
{
name = bottom;
pos = (306,16);
},
{
name = top;
pos = (306,774);
}
);
background = {
hints = (
{
horizontal = 1;
place = (368,26);
type = Stem;
},
{
horizontal = 1;
place = (606,24);
type = Stem;
},
{
horizontal = 1;
place = (722,26);
type = Stem;
},
{
place = (62,24);
type = Stem;
}
);
shapes = (
{
closed = 1;
nodes = (
(83,30,ls),
(83,13,o),
(96,0,o),
(113,0,cs),
(130,0,o),
(143,13,o),
(143,30,cs),
(143,670,ls),
(143,687,o),
(130,700,o),
(113,700,cs),
(96,700,o),
(83,687,o),
(83,670,cs)
);
},
{
closed = 1;
nodes = (
(199,700,ls),
(182,700,o),
(169,687,o),
(169,670,cs),
(169,653,o),
(182,640,o),
(199,640,cs),
(500,640,ls),
(517,640,o),
(530,653,o),
(530,670,cs),
(530,687,o),
(517,700,o),
(500,700,cs)
);
},
{
closed = 1;
nodes = (
(199,404,ls),
(182,404,o),
(169,391,o),
(169,374,cs),
(169,357,o),
(182,344,o),
(199,344,cs),
(441,344,ls),
(458,344,o),
(471,357,o),
(471,374,cs),
(471,391,o),
(458,404,o),
(441,404,cs)
);
},
{
closed = 0;
nodes = (
(516,685,l),
(210,685,l)
);
},
{
closed = 0;
nodes = (
(210,378,l),
(472,378,l)
);
},
{
closed = 0;
nodes = (
(110,685,l),
(110,15,l)
);
}
);
};
layerId = m01;
shapes = (
{
closed = 1;
nodes = (
(516,670,ls),
(533,670,o),
(546,683,o),
(546,700,cs),
(546,717,o),
(533,730,o),
(516,730,cs),
(210,730,ls),
(193,730,o),
(180,717,o),
(180,700,cs),
(180,683,o),
(193,670,o),
(210,670,cs)
);
},
{
closed = 1;
nodes = (
(210,423,ls),
(193,423,o),
(180,410,o),
(180,393,cs),
(180,376,o),
(193,363,o),
(210,363,cs),
(472,363,ls),
(489,363,o),
(502,376,o),
(502,393,cs),
(502,410,o),
(489,423,o),
(472,423,cs)
);
},
{
closed = 1;
nodes = (
(140,700,ls),
(140,717,o),
(127,730,o),
(110,730,cs),
(93,730,o),
(80,717,o),
(80,700,cs),
(80,30,ls),
(80,13,o),
(93,0,o),
(110,0,cs),
(127,0,o),
(140,13,o),
(140,30,cs)
);
}
);
width = 576;
},
{
associatedMasterId = m01;
hints = (
{
horizontal = 1;
place = (368,26);
type = Stem;
},
{
horizontal = 1;
place = (606,24);
type = Stem;
},
{
horizontal = 1;
place = (722,26);
type = Stem;
},
{
place = (62,24);
type = Stem;
}
);
layerId = "6992B84D-DCB5-410B-9B78-74233E8D17E8";
name = "22 août 23 à 12:50";
shapes = (
{
closed = 1;
nodes = (
(86,368,l),
(336,368,ls),
(343,368,o),
(348,374,o),
(348,381,cs),
(348,388,o),
(343,394,o),
(336,394,cs),
(86,394,l),
(86,606,l),
(355,606,ls),
(362,606,o),
(368,611,o),
(368,618,cs),
(368,625,o),
(362,630,o),
(355,630,cs),
(86,630,l),
(86,722,l),
(357,722,ls),
(364,722,o),
(370,728,o),
(370,735,cs),
(370,742,o),
(364,748,o),
(357,748,cs),
(74,748,ls),
(67,748,o),
(62,742,o),
(62,735,cs),
(62,15,ls),
(62,8,o),
(67,2,o),
(74,2,cs),
(81,2,o),
(86,8,o),
(86,15,cs)
);
}
);
width = 440;
},
{
associatedMasterId = m01;
background = {
hints = (
{
horizontal = 1;
place = (368,26);
type = Stem;
},
{
horizontal = 1;
place = (606,24);
type = Stem;
},
{
horizontal = 1;
place = (722,26);
type = Stem;
},
{
place = (62,24);
type = Stem;
}
);
shapes = (
{
closed = 1;
nodes = (
(86,368,l),
(336,368,ls),
(343,368,o),
(348,374,o),
(348,381,cs),
(348,388,o),
(343,394,o),
(336,394,cs),
(86,394,l),
(86,606,l),
(355,606,ls),
(362,606,o),
(368,611,o),
(368,618,cs),
(368,625,o),
(362,630,o),
(355,630,cs),
(86,630,l),
(86,722,l),
(357,722,ls),
(364,722,o),
(370,728,o),
(370,735,cs),
(370,742,o),
(364,748,o),
(357,748,cs),
(74,748,ls),
(67,748,o),
(62,742,o),
(62,735,cs),
(62,15,ls),
(62,8,o),
(67,2,o),
(74,2,cs),
(81,2,o),
(86,8,o),
(86,15,cs)
);
}
);
};
layerId = "98C6D8FA-BE37-4F9F-B025-490452A72984";
name = "22 août 23 à 13:37";
shapes = (
{
closed = 0;
nodes = (
(364,732,l),
(74,732,l),
(74,0,l)
);
},
{
closed = 0;
nodes = (
(74,610,l),
(364,610,l)
);
},
{
closed = 0;
nodes = (
(74,382,l),
(354,382,l)
);
}
);
width = 440;
},
{
associatedMasterId = m01;
background = {
hints = (
{
horizontal = 1;
place = (368,26);
type = Stem;
},
{
horizontal = 1;
place = (606,24);
type = Stem;
},
{
horizontal = 1;
place = (722,26);
type = Stem;
},
{
place = (62,24);
type = Stem;
}
);
shapes = (
{
closed = 1;
nodes = (
(86,368,l),
(336,368,ls),
(343,368,o),
(348,374,o),
(348,381,cs),
(348,388,o),
(343,394,o),
(336,394,cs),
(86,394,l),
(86,606,l),
(355,606,ls),
(362,606,o),
(368,611,o),
(368,618,cs),
(368,625,o),
(362,630,o),
(355,630,cs),
(86,630,l),
(86,722,l),
(357,722,ls),
(364,722,o),
(370,728,o),
(370,735,cs),
(370,742,o),
(364,748,o),
(357,748,cs),
(74,748,ls),
(67,748,o),
(62,742,o),
(62,735,cs),
(62,15,ls),
(62,8,o),
(67,2,o),
(74,2,cs),
(81,2,o),
(86,8,o),
(86,15,cs)
);
}
);
};
layerId = "F988AF49-6CAE-4731-8640-3A075E31BB8E";
name = "22 août 23 à 15:26";
shapes = (
{
closed = 0;
nodes = (
(364,732,l),
(74,732,l),
(74,15,l)
);
},
{
closed = 0;
nodes = (
(74,610,l),
(364,610,l)
);
},
{
closed = 0;
nodes = (
(74,382,l),
(354,382,l)
);
}
);
width = 440;
},
{
anchors = (
{
name = bottom;
pos = (220,0);
},
{
name = top;
pos = (220,747);
}
);
associatedMasterId = m01;
background = {
hints = (
{
horizontal = 1;
place = (368,26);
type = Stem;
},
{
horizontal = 1;
place = (606,24);
type = Stem;
},
{
horizontal = 1;
place = (722,26);
type = Stem;
},
{
place = (62,24);
type = Stem;
}
);
shapes = (
{
closed = 1;
nodes = (
(92,368,l),
(342,368,ls),
(349,368,o),
(354,374,o),
(354,381,cs),
(354,388,o),
(349,394,o),
(342,394,cs),
(92,394,l),
(92,606,l),
(361,606,ls),
(368,606,o),
(374,611,o),
(374,618,cs),
(374,625,o),
(368,630,o),
(361,630,cs),
(92,630,l),
(92,722,l),
(363,722,ls),
(370,722,o),
(376,728,o),
(376,735,cs),
(376,742,o),
(370,748,o),
(363,748,cs),
(80,748,ls),
(73,748,o),
(68,742,o),
(68,735,cs),
(68,15,ls),
(68,8,o),
(73,2,o),
(80,2,cs),
(87,2,o),
(92,8,o),
(92,15,cs)
);
}
);
};
layerId = "7180268F-1A4C-423E-9C97-C84955D33C3E";
name = "22 août 23 à 17:21";
shapes = (
{
closed = 0;
nodes = (
(370,732,l),
(80,732,l),
(80,15,l)
);
},
{
closed = 0;
nodes = (
(80,610,l),
(370,610,l)
);
},
{
closed = 0;
nodes = (
(80,382,l),
(360,382,l)
);
}
);
width = 440;
}
);
note = F;
unicode = 70;
},
{
glyphname = G;
kernLeft = O;
kernRight = G;
lastChange = "2023-09-04 14:13:34 +0000";
layers = (
{
anchors = (
{
name = bottom;
pos = (404,16);
},
{
name = top;
pos = (404,774);
}
);
background = {
hints = (
{
horizontal = 1;
place = (3,25);
type = Stem;
},
{
horizontal = 1;
place = (234,24);
type = Stem;
},
{
horizontal = 1;
place = (326,24);
type = Stem;
},
{
horizontal = 1;
place = (722,26);
type = Stem;
},
{
place = (44,25);
type = Stem;
},
{
place = (412,26);
type = Stem;
}
);
shapes = (
{
closed = 1;
nodes = (
(627,341,ls),
(627,358,o),
(614,371,o),
(597,371,cs),
(580,371,o),
(567,358,o),
(567,341,cs),
(567,239,ls),
(567,127,o),
(471,63,o),
(372,63,cs),
(234,63,o),
(112,192,o),
(112,343,cs),
(112,496,o),
(214,643,o),
(371,643,cs),
(413,643,o),
(455,628,o),
(499,601,cs),
(504,598,o),
(510,596,o),
(515,596,cs),
(525,596,o),
(535,601,o),
(541,610,cs),
(544,615,o),
(546,621,o),
(546,626,cs),
(546,636,o),
(541,646,o),
(532,652,cs),
(482,683,o),
(424,700,o),
(369,700,cs),
(182,700,o),
(53,536,o),
(53,345,cs),
(53,152,o),
(193,2,o),
(372,2,cs),
(514,2,o),
(627,98,o),
(627,240,cs)
);
},
{
closed = 1;
nodes = (
(314,372,ls),
(297,372,o),
(283,359,o),
(283,342,cs),
(283,325,o),
(296,311,o),
(313,311,cs),
(502,311,ls),
(519,311,o),
(533,323,o),
(533,340,cs),
(533,357,o),
(520,372,o),
(503,372,cs)
);
},
{
closed = 0;
nodes = (
(334,337,l),
(549,337,l)
);
},
{
closed = 0;
nodes = (
(649,337,l),
(649,234,ls),
(649,117,o),
(564,10,o),
(404,10,cs),
(213,10,o),
(80,150,o),
(80,350,cs),
(80,550,o),
(213,690,o),
(404,690,cs),
(554,690,o),
(658,575,o),
(658,458,c)
);
}
);
};
layerId = m01;
shapes = (
{
closed = 1;
nodes = (
(334,382,ls),
(317,382,o),
(304,369,o),
(304,352,cs),
(304,335,o),
(317,322,o),
(334,322,cs),
(549,322,ls),
(566,322,o),
(579,335,o),
(579,352,cs),
(579,369,o),
(566,382,o),
(549,382,cs)
);
},
{
closed = 1;
nodes = (
(688,606,o),
(571,735,o),
(404,735,cs),
(196,735,o),
(50,581,o),
(50,365,cs),
(50,149,o),
(196,-5,o),
(404,-5,cs),
(582,-5,o),
(679,118,o),
(679,249,cs),
(679,352,ls),
(679,369,o),
(666,382,o),
(649,382,cs),
(632,382,o),
(619,369,o),
(619,352,cs),
(619,249,ls),
(619,142,o),
(550,55,o),
(404,55,cs),
(226,55,o),
(110,177,o),
(110,365,cs),
(110,553,o),
(226,675,o),
(404,675,cs),
(541,675,o),
(628,578,o),
(628,473,cs),
(628,456,o),
(641,443,o),
(658,443,cs),
(675,443,o),
(688,456,o),
(688,473,cs)
);
}
);
width = 738;
},
{
associatedMasterId = m01;
hints = (
{
horizontal = 1;
place = (3,25);
type = Stem;
},
{
horizontal = 1;
place = (234,24);
type = Stem;
},
{
horizontal = 1;
place = (326,24);
type = Stem;
},
{
horizontal = 1;
place = (722,26);
type = Stem;
},
{
place = (44,25);
type = Stem;
},
{
place = (412,26);
type = Stem;
}
);
layerId = "7107FA1D-3B3E-4F55-9F39-BC98B847D571";
name = "22 août 23 à 12:50";
shapes = (
{
closed = 1;
nodes = (
(210,350,ls),
(203,350,o),
(198,345,o),
(198,338,cs),
(198,331,o),
(203,326,o),
(210,326,cs),
(414,326,l),
(413,302,o),
(413,280,o),
(413,258,c),
(214,258,ls),
(207,258,o),
(202,253,o),
(202,246,cs),
(202,239,o),
(207,234,o),
(214,234,cs),
(413,234,l),
(413,221,o),
(412,209,o),
(412,196,cs),
(412,130,o),
(396,83,o),
(353,52,cs),
(328,34,o),
(300,28,o),
(261,28,cs),
(223,28,o),
(198,35,o),
(170,53,cs),
(131,78,o),
(103,120,o),
(88,165,cs),
(74,210,o),
(69,258,o),
(69,307,cs),
(69,331,o),
(68,353,o),
(68,375,cs),
(68,397,o),
(69,418,o),
(69,442,cs),
(69,491,o),
(74,539,o),
(88,584,cs),
(103,629,o),
(131,671,o),
(170,697,cs),
(199,714,o),
(223,722,o),
(261,722,cs),
(293,722,o),
(323,716,o),
(354,697,cs),
(367,688,o),
(379,678,o),
(390,667,c),
(394,661,o),
(402,661,o),
(407,666,cs),
(412,670,o),
(413,678,o),
(408,683,cs),
(396,696,o),
(383,708,o),
(367,718,cs),
(331,740,o),
(298,748,o),
(261,748,cs),
(219,748,o),
(188,737,o),
(157,718,cs),
(111,688,o),
(81,641,o),
(65,592,cs),
(49,543,o),
(44,492,o),
(44,442,cs),
(44,375,l),
(44,307,ls),
(44,257,o),
(49,206,o),
(65,157,cs),
(81,108,o),
(111,61,o),
(157,32,cs),
(192,10,o),
(224,3,o),
(261,3,cs),
(302,3,o),
(337,10,o),
(368,32,cs),
(406,59,o),
(438,105,o),
(438,196,cs),
(438,245,o),
(438,288,o),
(439,338,cs),
(439,345,o),
(433,350,o),
(426,350,cs)
);
}
);
width = 480;
},
{
associatedMasterId = m01;
background = {
hints = (
{
horizontal = 1;
place = (3,25);
type = Stem;
},
{
horizontal = 1;
place = (234,24);
type = Stem;
},
{
horizontal = 1;
place = (326,24);
type = Stem;
},
{
horizontal = 1;
place = (722,26);
type = Stem;
},
{
place = (44,25);
type = Stem;
},
{
place = (412,26);
type = Stem;
}
);
shapes = (
{
closed = 1;
nodes = (
(210,350,ls),
(203,350,o),
(198,345,o),
(198,338,cs),
(198,331,o),
(203,326,o),
(210,326,cs),
(414,326,l),
(413,302,o),
(413,280,o),
(413,258,c),
(214,258,ls),
(207,258,o),
(202,253,o),
(202,246,cs),
(202,239,o),
(207,234,o),
(214,234,cs),
(413,234,l),
(413,221,o),
(412,209,o),
(412,196,cs),
(412,130,o),
(396,83,o),
(353,52,cs),
(328,34,o),
(300,28,o),
(261,28,cs),
(223,28,o),
(198,35,o),
(170,53,cs),
(131,78,o),
(103,120,o),
(88,165,cs),
(74,210,o),
(69,258,o),
(69,307,cs),
(69,331,o),
(68,353,o),
(68,375,cs),
(68,397,o),
(69,418,o),
(69,442,cs),
(69,491,o),
(74,539,o),
(88,584,cs),
(103,629,o),
(131,671,o),
(170,697,cs),
(199,714,o),
(223,722,o),
(261,722,cs),
(293,722,o),
(323,716,o),
(354,697,cs),
(367,688,o),
(379,678,o),
(390,667,c),
(394,661,o),
(402,661,o),
(407,666,cs),
(412,670,o),
(413,678,o),
(408,683,cs),
(396,696,o),
(383,708,o),
(367,718,cs),
(331,740,o),
(298,748,o),
(261,748,cs),
(219,748,o),
(188,737,o),
(157,718,cs),
(111,688,o),
(81,641,o),
(65,592,cs),
(49,543,o),
(44,492,o),
(44,442,cs),
(44,375,l),
(44,307,ls),
(44,257,o),
(49,206,o),
(65,157,cs),
(81,108,o),
(111,61,o),
(157,32,cs),
(192,10,o),
(224,3,o),
(261,3,cs),
(302,3,o),
(337,10,o),
(368,32,cs),
(406,59,o),
(438,105,o),
(438,196,cs),
(438,245,o),
(438,288,o),
(439,338,cs),
(439,345,o),
(433,350,o),
(426,350,cs)
);
}
);
};
layerId = "A197B4BD-725A-4AE3-99F3-D1C17CE72C4E";
name = "22 août 23 à 13:37";
shapes = (
{
closed = 0;
nodes = (
(413,673,l),
(379,715,o),
(330,737,o),
(268,737,cs),
(254,737,ls),
(126,737,o),
(54,644,o),
(54,477,cs),
(54,270,ls),
(54,103,o),
(126,10,o),
(254,10,cs),
(268,10,ls),
(381,10,o),
(438,88,o),
(438,210,cs),
(438,338,l),
(199,338,l)
);
},
{
closed = 0;
nodes = (
(438,246,l),
(199,246,l)
);
}
);
width = 480;
},
{
associatedMasterId = m01;
background = {
hints = (
{
horizontal = 1;
place = (3,25);
type = Stem;
},
{
horizontal = 1;
place = (234,24);
type = Stem;
},
{
horizontal = 1;
place = (326,24);
type = Stem;
},
{
horizontal = 1;
place = (722,26);
type = Stem;
},
{
place = (44,25);
type = Stem;
},
{
place = (412,26);
type = Stem;
}
);
shapes = (
{
closed = 1;
nodes = (
(210,350,ls),
(203,350,o),
(198,345,o),
(198,338,cs),
(198,331,o),
(203,326,o),
(210,326,cs),
(414,326,l),
(413,302,o),
(413,280,o),
(413,258,c),
(214,258,ls),
(207,258,o),
(202,253,o),
(202,246,cs),
(202,239,o),
(207,234,o),
(214,234,cs),
(413,234,l),
(413,221,o),
(412,209,o),
(412,196,cs),
(412,130,o),
(396,83,o),
(353,52,cs),
(328,34,o),
(300,28,o),
(261,28,cs),
(223,28,o),
(198,35,o),
(170,53,cs),
(131,78,o),
(103,120,o),
(88,165,cs),
(74,210,o),
(69,258,o),
(69,307,cs),
(69,331,o),
(68,353,o),
(68,375,cs),
(68,397,o),
(69,418,o),
(69,442,cs),
(69,491,o),
(74,539,o),
(88,584,cs),
(103,629,o),
(131,671,o),
(170,697,cs),
(199,714,o),
(223,722,o),
(261,722,cs),
(293,722,o),
(323,716,o),
(354,697,cs),
(367,688,o),
(379,678,o),
(390,667,c),
(394,661,o),
(402,661,o),
(407,666,cs),
(412,670,o),
(413,678,o),
(408,683,cs),
(396,696,o),
(383,708,o),
(367,718,cs),
(331,740,o),
(298,748,o),
(261,748,cs),
(219,748,o),
(188,737,o),
(157,718,cs),
(111,688,o),
(81,641,o),
(65,592,cs),
(49,543,o),
(44,492,o),
(44,442,cs),
(44,375,l),
(44,307,ls),
(44,257,o),
(49,206,o),
(65,157,cs),
(81,108,o),
(111,61,o),
(157,32,cs),
(192,10,o),
(224,3,o),
(261,3,cs),
(302,3,o),
(337,10,o),
(368,32,cs),
(406,59,o),
(438,105,o),
(438,196,cs),
(438,245,o),
(438,288,o),
(439,338,cs),
(439,345,o),
(433,350,o),
(426,350,cs)
);
}
);
};
layerId = "90EBCC9D-725D-4BB1-AE5D-C2DC2B8AFDC1";
name = "22 août 23 à 15:26";
shapes = (
{
closed = 0;
nodes = (
(413,673,l),
(379,715,o),
(330,737,o),
(268,737,cs),
(254,737,ls),
(126,737,o),
(54,644,o),
(54,477,cs),
(54,270,ls),
(54,103,o),
(126,10,o),
(254,10,cs),
(268,10,ls),
(381,10,o),
(438,88,o),
(438,210,cs),
(438,338,l),
(199,338,l)
);
},
{
closed = 0;
nodes = (
(438,246,l),
(199,246,l)
);
}
);
width = 480;
},
{
anchors = (
{
name = bottom;
pos = (260,0);
},
{
name = top;
pos = (260,747);
}
);
associatedMasterId = m01;
background = {
hints = (
{
horizontal = 1;
place = (3,25);
type = Stem;
},
{
horizontal = 1;
place = (234,24);
type = Stem;
},
{
horizontal = 1;
place = (326,24);
type = Stem;
},
{
horizontal = 1;
place = (722,26);
type = Stem;
},
{
place = (44,25);
type = Stem;
},
{
place = (412,26);
type = Stem;
}
);
shapes = (
{
closed = 1;
nodes = (
(226,350,ls),
(219,350,o),
(214,345,o),
(214,338,cs),
(214,331,o),
(219,326,o),
(226,326,cs),
(430,326,l),
(429,302,o),
(429,280,o),
(429,258,c),
(230,258,ls),
(223,258,o),
(218,253,o),
(218,246,cs),
(218,239,o),
(223,234,o),
(230,234,cs),
(429,234,l),
(429,221,o),
(428,209,o),
(428,196,cs),
(428,130,o),
(412,83,o),
(369,52,cs),
(344,34,o),
(316,28,o),
(277,28,cs),
(239,28,o),
(214,35,o),
(186,53,cs),
(147,78,o),
(119,120,o),
(104,165,cs),
(90,210,o),
(85,258,o),
(85,307,cs),
(85,331,o),
(84,353,o),
(84,375,cs),
(84,397,o),
(85,418,o),
(85,442,cs),
(85,491,o),
(90,539,o),
(104,584,cs),
(119,629,o),
(147,671,o),
(186,697,cs),
(215,714,o),
(239,722,o),
(277,722,cs),
(309,722,o),
(339,716,o),
(370,697,cs),
(383,688,o),
(395,678,o),
(406,667,c),
(410,661,o),
(418,661,o),
(423,666,cs),
(428,670,o),
(429,678,o),
(424,683,cs),
(412,696,o),
(399,708,o),
(383,718,cs),
(347,740,o),
(314,748,o),
(277,748,cs),
(235,748,o),
(204,737,o),
(173,718,cs),
(127,688,o),
(97,641,o),
(81,592,cs),
(65,543,o),
(60,492,o),
(60,442,cs),
(60,375,l),
(60,307,ls),
(60,257,o),
(65,206,o),
(81,157,cs),
(97,108,o),
(127,61,o),
(173,32,cs),
(208,10,o),
(240,3,o),
(277,3,cs),
(318,3,o),
(353,10,o),
(384,32,cs),
(422,59,o),
(454,105,o),
(454,196,cs),
(454,245,o),
(454,288,o),
(455,338,cs),
(455,345,o),
(449,350,o),
(442,350,cs)
);
}
);
};
layerId = "F214254D-ACC9-42A8-A72E-BC5AA21A1403";
name = "22 août 23 à 17:21";
shapes = (
{
closed = 0;
nodes = (
(429,673,l),
(395,715,o),
(346,737,o),
(284,737,cs),
(270,737,ls),
(142,737,o),
(70,644,o),
(70,477,cs),
(70,270,ls),
(70,103,o),
(142,10,o),
(270,10,cs),
(284,10,ls),
(397,10,o),
(454,88,o),
(454,210,cs),
(454,338,l),
(215,338,l)
);
},
{
closed = 0;
nodes = (
(454,246,l),
(215,246,l)
);
}
);
width = 519;
},
{
anchors = (
{
name = bottom;
pos = (364,1);
},
{
name = top;
pos = (364,699);
}
);
associatedMasterId = m01;
background = {
hints = (
{
horizontal = 1;
place = (3,25);
type = Stem;
},
{
horizontal = 1;
place = (234,24);
type = Stem;
},
{
horizontal = 1;
place = (326,24);
type = Stem;
},
{
horizontal = 1;
place = (722,26);
type = Stem;
},
{
place = (44,25);
type = Stem;
},
{
place = (412,26);
type = Stem;
}
);
shapes = (
{
closed = 1;
nodes = (
(614,341,ls),
(614,358,o),
(601,371,o),
(584,371,cs),
(567,371,o),
(554,358,o),
(554,341,cs),
(554,239,ls),
(554,127,o),
(458,63,o),
(359,63,cs),
(221,63,o),
(99,192,o),
(99,343,cs),
(99,496,o),
(201,643,o),
(358,643,cs),
(400,643,o),
(442,628,o),
(486,601,cs),
(491,598,o),
(497,596,o),
(502,596,cs),
(512,596,o),
(522,601,o),
(528,610,cs),
(531,615,o),
(533,621,o),
(533,626,cs),
(533,636,o),
(528,646,o),
(519,652,cs),
(469,683,o),
(411,700,o),
(356,700,cs),
(169,700,o),
(40,536,o),
(40,345,cs),
(40,152,o),
(180,2,o),
(359,2,cs),
(501,2,o),
(614,98,o),
(614,240,cs)
);
},
{
closed = 1;
nodes = (
(301,372,ls),
(284,372,o),
(270,359,o),
(270,342,cs),
(270,325,o),
(283,311,o),
(300,311,cs),
(489,311,ls),
(506,311,o),
(520,323,o),
(520,340,cs),
(520,357,o),
(507,372,o),
(490,372,cs)
);
}
);
};
layerId = "31F2AD80-7B88-4F62-B056-519A1200E9E0";
name = "1 sept. 23 à 12:05";
shapes = (
{
closed = 0;
nodes = (
(301,337,l),
(616,337,l),
(616,234,ls),
(616,83,o),
(528,10,o),
(388,10,cs),
(183,10,o),
(68,164,o),
(68,350,cs),
(68,536,o),
(183,690,o),
(388,690,cs),
(474,690,o),
(545,657,o),
(596,602,c)
);
}
);
width = 727;
}
);
note = G;
unicode = 71;
},
{
glyphname = H;
kernLeft = H;
kernRight = H;
lastChange = "2023-09-04 14:13:34 +0000";
layers = (
{
anchors = (
{
name = bottom;
pos = (327,16);
},
{
name = center;
pos = (327,366);
},
{
name = top;
pos = (327,774);
},
{
name = topleft;
pos = (26,714);
}
);
background = {
hints = (
{
horizontal = 1;
place = (266,24);
type = Stem;
},
{
horizontal = 1;
place = (370,24);
type = Stem;
},
{
place = (62,24);
type = Stem;
},
{
place = (372,24);
type = Stem;
}
);
shapes = (
{
closed = 1;
nodes = (
(82,30,ls),
(82,13,o),
(95,0,o),
(112,0,cs),
(129,0,o),
(142,13,o),
(142,30,cs),
(142,670,ls),
(142,687,o),
(129,700,o),
(112,700,cs),
(95,700,o),
(82,687,o),
(82,670,cs)
);
},
{
closed = 1;
nodes = (
(518,30,ls),
(518,13,o),
(531,0,o),
(548,0,cs),
(565,0,o),
(578,13,o),
(578,30,cs),
(578,670,ls),
(578,687,o),
(565,700,o),
(548,700,cs),
(531,700,o),
(518,687,o),
(518,670,cs)
);
},
{
closed = 1;
nodes = (
(198,404,ls),
(181,404,o),
(168,391,o),
(168,374,cs),
(168,357,o),
(181,344,o),
(198,344,cs),
(464,344,ls),
(481,344,o),
(494,357,o),
(494,374,cs),
(494,391,o),
(481,404,o),
(464,404,cs)
);
},
{
closed = 0;
nodes = (
(110,15,l),
(110,685,l)
);
},
{
closed = 0;
nodes = (
(544,15,l),
(544,685,l)
);
},
{
closed = 0;
nodes = (
(210,361,l),
(444,361,l)
);
}
);
};
layerId = m01;
shapes = (
{
closed = 1;
nodes = (
(80,30,ls),
(80,13,o),
(93,0,o),
(110,0,cs),
(127,0,o),
(140,13,o),
(140,30,cs),
(140,700,ls),
(140,717,o),
(127,730,o),
(110,730,cs),
(93,730,o),
(80,717,o),
(80,700,cs)
);
},
{
closed = 1;
nodes = (
(514,30,ls),
(514,13,o),
(527,0,o),
(544,0,cs),
(561,0,o),
(574,13,o),
(574,30,cs),
(574,700,ls),
(574,717,o),
(561,730,o),
(544,730,cs),
(527,730,o),
(514,717,o),
(514,700,cs)
);
},
{
closed = 1;
nodes = (
(210,406,ls),
(193,406,o),
(180,393,o),
(180,376,cs),
(180,359,o),
(193,346,o),
(210,346,cs),
(444,346,ls),
(461,346,o),
(474,359,o),
(474,376,cs),
(474,393,o),
(461,406,o),
(444,406,cs)
);
}
);
width = 654;
},
{
associatedMasterId = m01;
hints = (
{
horizontal = 1;
place = (266,24);
type = Stem;
},
{
horizontal = 1;
place = (370,24);
type = Stem;
},
{
place = (62,24);
type = Stem;
},
{
place = (372,24);
type = Stem;
}
);
layerId = "AF22C6A9-9DB0-4748-90E5-22C8601F06B4";
name = "22 août 23 à 12:50";
shapes = (
{
closed = 1;
nodes = (
(86,266,l),
(372,266,l),
(372,15,ls),
(372,8,o),
(377,2,o),
(384,2,cs),
(391,2,o),
(396,8,o),
(396,15,cs),
(396,735,ls),
(396,742,o),
(391,748,o),
(384,748,cs),
(377,748,o),
(372,742,o),
(372,735,cs),
(372,394,l),
(86,394,l),
(86,735,ls),
(86,742,o),
(81,748,o),
(74,748,cs),
(67,748,o),
(62,742,o),
(62,735,cs),
(62,15,ls),
(62,8,o),
(67,2,o),
(74,2,cs),
(81,2,o),
(86,8,o),
(86,15,cs)
);
},
{
closed = 1;
nodes = (
(86,290,l),
(86,370,l),
(372,370,l),
(372,290,l)
);
}
);
width = 468;
},
{
associatedMasterId = m01;
background = {
hints = (
{
horizontal = 1;
place = (266,24);
type = Stem;
},
{
horizontal = 1;
place = (370,24);
type = Stem;
},
{
place = (62,24);
type = Stem;
},
{
place = (372,24);
type = Stem;
}
);
shapes = (
{
closed = 1;
nodes = (
(86,266,l),
(372,266,l),
(372,15,ls),
(372,8,o),
(377,2,o),
(384,2,cs),
(391,2,o),
(396,8,o),
(396,15,cs),
(396,735,ls),
(396,742,o),
(391,748,o),
(384,748,cs),
(377,748,o),
(372,742,o),
(372,735,cs),
(372,394,l),
(86,394,l),
(86,735,ls),
(86,742,o),
(81,748,o),
(74,748,cs),
(67,748,o),
(62,742,o),
(62,735,cs),
(62,15,ls),
(62,8,o),
(67,2,o),
(74,2,cs),
(81,2,o),
(86,8,o),
(86,15,cs)
);
},
{
closed = 1;
nodes = (
(86,290,l),
(86,370,l),
(372,370,l),
(372,290,l)
);
}
);
};
layerId = "4DEABDF5-24F8-4509-AB06-6563C4BC2D6A";
name = "22 août 23 à 13:37";
shapes = (
{
closed = 0;
nodes = (
(74,0,l),
(74,747,l)
);
},
{
closed = 0;
nodes = (
(384,0,l),
(384,747,l)
);
},
{
closed = 0;
nodes = (
(74,385,l),
(384,385,l)
);
},
{
closed = 0;
nodes = (
(74,248,l),
(384,248,l)
);
}
);
width = 468;
},
{
associatedMasterId = m01;
background = {
hints = (
{
horizontal = 1;
place = (266,24);
type = Stem;
},
{
horizontal = 1;
place = (370,24);
type = Stem;
},
{
place = (62,24);
type = Stem;
},
{
place = (372,24);
type = Stem;
}
);
shapes = (
{
closed = 1;
nodes = (
(86,266,l),
(372,266,l),
(372,15,ls),
(372,8,o),
(377,2,o),
(384,2,cs),
(391,2,o),
(396,8,o),
(396,15,cs),
(396,735,ls),
(396,742,o),
(391,748,o),
(384,748,cs),
(377,748,o),
(372,742,o),
(372,735,cs),
(372,394,l),
(86,394,l),
(86,735,ls),
(86,742,o),
(81,748,o),
(74,748,cs),
(67,748,o),
(62,742,o),
(62,735,cs),
(62,15,ls),
(62,8,o),
(67,2,o),
(74,2,cs),
(81,2,o),
(86,8,o),
(86,15,cs)
);
},
{
closed = 1;
nodes = (
(86,290,l),
(86,370,l),
(372,370,l),
(372,290,l)
);
}
);
};
layerId = "456B68B3-D317-4109-957C-0845DFBF13FF";
name = "22 août 23 à 15:26";
shapes = (
{
closed = 0;
nodes = (
(74,15,l),
(74,732,l)
);
},
{
closed = 0;
nodes = (
(384,15,l),
(384,732,l)
);
},
{
closed = 0;
nodes = (
(74,385,l),
(384,385,l)
);
},
{
closed = 0;
nodes = (
(74,248,l),
(384,248,l)
);
}
);
width = 468;
},
{
anchors = (
{
name = bottom;
pos = (235,0);
},
{
name = center;
pos = (235,374);
},
{
name = top;
pos = (235,747);
},
{
name = topleft;
pos = (20,747);
}
);
associatedMasterId = m01;
background = {
hints = (
{
horizontal = 1;
place = (266,24);
type = Stem;
},
{
horizontal = 1;
place = (370,24);
type = Stem;
},
{
place = (62,24);
type = Stem;
},
{
place = (372,24);
type = Stem;
}
);
shapes = (
{
closed = 1;
nodes = (
(92,266,l),
(378,266,l),
(378,15,ls),
(378,8,o),
(383,2,o),
(390,2,cs),
(397,2,o),
(402,8,o),
(402,15,cs),
(402,735,ls),
(402,742,o),
(397,748,o),
(390,748,cs),
(383,748,o),
(378,742,o),
(378,735,cs),
(378,394,l),
(92,394,l),
(92,735,ls),
(92,742,o),
(87,748,o),
(80,748,cs),
(73,748,o),
(68,742,o),
(68,735,cs),
(68,15,ls),
(68,8,o),
(73,2,o),
(80,2,cs),
(87,2,o),
(92,8,o),
(92,15,cs)
);
},
{
closed = 1;
nodes = (
(92,290,l),
(92,370,l),
(378,370,l),
(378,290,l)
);
}
);
};
layerId = "033683FA-DE7F-4DA4-846B-C24D34403C25";
name = "22 août 23 à 17:21";
shapes = (
{
closed = 0;
nodes = (
(80,15,l),
(80,732,l)
);
},
{
closed = 0;
nodes = (
(390,15,l),
(390,732,l)
);
},
{
closed = 0;
nodes = (
(80,385,l),
(390,385,l)
);
},
{
closed = 0;
nodes = (
(80,248,l),
(390,248,l)
);
}
);
width = 470;
}
);
note = H;
unicode = 72;
},
{
glyphname = Hbar;
kernLeft = H;
kernRight = H;
lastChange = "2023-09-04 14:13:34 +0000";
layers = (
{
layerId = m01;
shapes = (
{
closed = 1;
nodes = (
(212,546,ls),
(195,546,o),
(182,533,o),
(182,516,cs),
(182,499,o),
(195,486,o),
(212,486,cs),
(446,486,ls),
(463,486,o),
(476,499,o),
(476,516,cs),
(476,533,o),
(463,546,o),
(446,546,cs)
);
},
{
ref = H;
}
);
width = 654;
}
);
unicode = 294;
},
{
glyphname = I;
kernLeft = H;
kernRight = H;
lastChange = "2023-09-04 14:13:34 +0000";
layers = (
{
anchors = (
{
name = bottom;
pos = (110,16);
},
{
name = ogonek;
pos = (146,30);
},
{
name = top;
pos = (110,774);
},
{
name = topleft;
pos = (26,714);
}
);
background = {
hints = (
{
horizontal = 1;
place = (2,746);
type = Stem;
},
{
place = (62,24);
type = Stem;
}
);
shapes = (
{
closed = 1;
nodes = (
(83,30,ls),
(83,13,o),
(96,0,o),
(113,0,cs),
(130,0,o),
(143,13,o),
(143,30,cs),
(143,670,ls),
(143,687,o),
(130,700,o),
(113,700,cs),
(96,700,o),
(83,687,o),
(83,670,cs)
);
},
{
closed = 0;
nodes = (
(110,15,l),
(110,685,l)
);
}
);
};
layerId = m01;
shapes = (
{
closed = 1;
nodes = (
(80,30,ls),
(80,13,o),
(93,0,o),
(110,0,cs),
(127,0,o),
(140,13,o),
(140,30,cs),
(140,700,ls),
(140,717,o),
(127,730,o),
(110,730,cs),
(93,730,o),
(80,717,o),
(80,700,cs)
);
}
);
width = 220;
},
{
associatedMasterId = m01;
hints = (
{
horizontal = 1;
place = (2,746);
type = Stem;
},
{
place = (62,24);
type = Stem;
}
);
layerId = "B6BD2703-01AB-4533-8721-5A7AD5DC2B27";
name = "22 août 23 à 12:50";
shapes = (
{
closed = 1;
nodes = (
(86,735,ls),
(86,742,o),
(81,748,o),
(74,748,cs),
(67,748,o),
(62,742,o),
(62,735,cs),
(62,15,ls),
(62,8,o),
(67,2,o),
(74,2,cs),
(81,2,o),
(86,8,o),
(86,15,cs)
);
}
);
width = 158;
},
{
associatedMasterId = m01;
background = {
hints = (
{
horizontal = 1;
place = (2,746);
type = Stem;
},
{
place = (62,24);
type = Stem;
}
);
shapes = (
{
closed = 1;
nodes = (
(86,735,ls),
(86,742,o),
(81,748,o),
(74,748,cs),
(67,748,o),
(62,742,o),
(62,735,cs),
(62,15,ls),
(62,8,o),
(67,2,o),
(74,2,cs),
(81,2,o),
(86,8,o),
(86,15,cs)
);
}
);
};
layerId = "D2BDFDE2-F1FF-4E1E-9832-7112E46D270A";
name = "22 août 23 à 13:37";
shapes = (
{
closed = 0;
nodes = (
(74,0,l),
(74,747,l)
);
}
);
width = 158;
},
{
associatedMasterId = m01;
background = {
hints = (
{
horizontal = 1;
place = (2,746);
type = Stem;
},
{
place = (62,24);
type = Stem;
}
);
shapes = (
{
closed = 1;
nodes = (
(86,735,ls),
(86,742,o),
(81,748,o),
(74,748,cs),
(67,748,o),
(62,742,o),
(62,735,cs),
(62,15,ls),
(62,8,o),
(67,2,o),
(74,2,cs),
(81,2,o),
(86,8,o),
(86,15,cs)
);
}
);
};
layerId = "5D04D5E0-DCE4-4B09-968E-44A67B8BF4D4";
name = "22 août 23 à 15:26";
shapes = (
{
closed = 0;
nodes = (
(74,15,l),
(74,732,l)
);
}
);
width = 158;
},
{
anchors = (
{
name = bottom;
pos = (80,0);
},
{
name = ogonek;
pos = (144,10);
},
{
name = top;
pos = (80,747);
},
{
name = topleft;
pos = (20,747);
}
);
associatedMasterId = m01;
background = {
hints = (
{
horizontal = 1;
place = (2,746);
type = Stem;
},
{
place = (62,24);
type = Stem;
}
);
shapes = (
{
closed = 1;
nodes = (
(92,735,ls),
(92,742,o),
(87,748,o),
(80,748,cs),
(73,748,o),
(68,742,o),
(68,735,cs),
(68,15,ls),
(68,8,o),
(73,2,o),
(80,2,cs),
(87,2,o),
(92,8,o),
(92,15,cs)
);
}
);
};
layerId = "3CF237CB-959D-4237-887F-CA9A7FE466F7";
name = "22 août 23 à 17:21";
shapes = (
{
closed = 0;
nodes = (
(80,15,l),
(80,732,l)
);
}
);
width = 160;
}
);
note = I;
unicode = 73;
},
{
glyphname = J;
kernLeft = J;
kernRight = J;
lastChange = "2023-09-04 14:13:34 +0000";
layers = (
{
anchors = (
{
name = bottom;
pos = (322,16);
},
{
name = top;
pos = (322,774);
}
);
background = {
hints = (
{
horizontal = 1;
place = (2,26);
type = Stem;
},
{
horizontal = 1;
place = (722,26);
type = Stem;
},
{
place = (264,24);
type = Stem;
},
{
place = (341,25);
type = Stem;
}
);
shapes = (
{
closed = 1;
nodes = (
(422,223,ls),
(422,206,o),
(435,193,o),
(452,193,cs),
(469,193,o),
(482,206,o),
(482,223,cs),
(482,670,ls),
(482,687,o),
(469,700,o),
(452,700,cs),
(435,700,o),
(422,687,o),
(422,670,cs)
);
},
{
closed = 1;
nodes = (
(346,1,o),
(416,50,o),
(450,109,cs),
(453,114,o),
(454,119,o),
(454,123,cs),
(454,138,o),
(443,153,o),
(425,153,cs),
(414,153,o),
(404,147,o),
(399,138,cs),
(370,90,o),
(321,58,o),
(259,58,cs),
(174,58,o),
(102,124,o),
(95,208,cs),
(94,223,o),
(80,235,o),
(65,235,cs),
(48,235,o),
(35,220,o),
(36,203,cs),
(46,89,o),
(143,1,o),
(258,1,cs)
);
},
{
closed = 0;
nodes = (
(8,243,ls),
(8,100,o),
(98,10,o),
(222,10,cs),
(376,10,o),
(456,100,o),
(456,253,cs),
(456,685,l)
);
}
);
};
layerId = m01;
shapes = (
{
closed = 1;
nodes = (
(383,86,o),
(336,55,o),
(254,55,cs),
(160,55,o),
(100,115,o),
(100,226,cs),
(100,243,o),
(87,256,o),
(70,256,cs),
(53,256,o),
(40,243,o),
(40,226,cs),
(40,87,o),
(132,-5,o),
(254,-5,cs),
(357,-5,o),
(428,42,o),
(462,107,cs),
(464,111,o),
(465,116,o),
(465,121,cs),
(465,138,o),
(452,151,o),
(435,151,cs),
(423,151,o),
(413,144,o),
(408,135,cs)
);
},
{
closed = 1;
nodes = (
(426,208,ls),
(426,191,o),
(439,178,o),
(456,178,cs),
(473,178,o),
(486,191,o),
(486,208,cs),
(486,700,ls),
(486,717,o),
(473,730,o),
(456,730,cs),
(439,730,o),
(426,717,o),
(426,700,cs)
);
}
);
width = 566;
},
{
associatedMasterId = m01;
hints = (
{
horizontal = 1;
place = (2,26);
type = Stem;
},
{
horizontal = 1;
place = (722,26);
type = Stem;
},
{
place = (264,24);
type = Stem;
},
{
place = (341,25);
type = Stem;
}
);
layerId = "77B9E34F-04B4-40E5-932D-37CE78ADE40E";
name = "22 août 23 à 12:50";
shapes = (
{
closed = 1;
nodes = (
(366,735,ls),
(366,742,o),
(360,748,o),
(353,748,cs),
(166,748,ls),
(159,748,o),
(153,742,o),
(153,735,cs),
(153,728,o),
(159,722,o),
(166,722,cs),
(264,722,l),
(264,52,l),
(238,36,o),
(210,28,o),
(173,28,cs),
(130,28,o),
(92,39,o),
(58,69,c),
(44,84,ls),
(40,89,o),
(32,90,o),
(27,86,cs),
(21,81,o),
(21,73,o),
(25,68,cs),
(30,62,o),
(36,56,o),
(42,51,cs),
(80,16,o),
(124,2,o),
(173,2,cs),
(222,2,o),
(265,16,o),
(304,51,cs),
(339,83,o),
(361,129,o),
(365,176,cs),
(365,181,o),
(366,186,o),
(366,190,cs)
);
},
{
closed = 1;
nodes = (
(288,722,l),
(341,722,l),
(341,190,ls),
(341,186,o),
(340,182,o),
(340,178,cs),
(337,138,o),
(318,98,o),
(288,71,c)
);
}
);
width = 437;
},
{
associatedMasterId = m01;
background = {
hints = (
{
horizontal = 1;
place = (2,26);
type = Stem;
},
{
horizontal = 1;
place = (722,26);
type = Stem;
},
{
place = (264,24);
type = Stem;
},
{
place = (341,25);
type = Stem;
}
);
shapes = (
{
closed = 1;
nodes = (
(366,735,ls),
(366,742,o),
(360,748,o),
(353,748,cs),
(166,748,ls),
(159,748,o),
(153,742,o),
(153,735,cs),
(153,728,o),
(159,722,o),
(166,722,cs),
(264,722,l),
(264,52,l),
(238,36,o),
(210,28,o),
(173,28,cs),
(130,28,o),
(92,39,o),
(58,69,c),
(44,84,ls),
(40,89,o),
(32,90,o),
(27,86,cs),
(21,81,o),
(21,73,o),
(25,68,cs),
(30,62,o),
(36,56,o),
(42,51,cs),
(80,16,o),
(124,2,o),
(173,2,cs),
(222,2,o),
(265,16,o),
(304,51,cs),
(339,83,o),
(361,129,o),
(365,176,cs),
(365,181,o),
(366,186,o),
(366,190,cs)
);
},
{
closed = 1;
nodes = (
(288,722,l),
(341,722,l),
(341,190,ls),
(341,186,o),
(340,182,o),
(340,178,cs),
(337,138,o),
(318,98,o),
(288,71,c)
);
}
);
};
layerId = "C9864D9F-8892-477D-BF0A-BE98F1531EA5";
name = "22 août 23 à 13:37";
shapes = (
{
closed = 0;
nodes = (
(27,86,l),
(54,38,o),
(101,10,o),
(169,10,cs),
(183,10,ls),
(311,10,o),
(383,103,o),
(383,270,cs),
(383,732,l),
(159,732,l)
);
},
{
closed = 0;
nodes = (
(274,732,l),
(274,31,l)
);
}
);
width = 437;
},
{
associatedMasterId = m01;
background = {
hints = (
{
horizontal = 1;
place = (2,26);
type = Stem;
},
{
horizontal = 1;
place = (722,26);
type = Stem;
},
{
place = (264,24);
type = Stem;
},
{
place = (341,25);
type = Stem;
}
);
shapes = (
{
closed = 1;
nodes = (
(366,735,ls),
(366,742,o),
(360,748,o),
(353,748,cs),
(166,748,ls),
(159,748,o),
(153,742,o),
(153,735,cs),
(153,728,o),
(159,722,o),
(166,722,cs),
(264,722,l),
(264,52,l),
(238,36,o),
(210,28,o),
(173,28,cs),
(130,28,o),
(92,39,o),
(58,69,c),
(44,84,ls),
(40,89,o),
(32,90,o),
(27,86,cs),
(21,81,o),
(21,73,o),
(25,68,cs),
(30,62,o),
(36,56,o),
(42,51,cs),
(80,16,o),
(124,2,o),
(173,2,cs),
(222,2,o),
(265,16,o),
(304,51,cs),
(339,83,o),
(361,129,o),
(365,176,cs),
(365,181,o),
(366,186,o),
(366,190,cs)
);
},
{
closed = 1;
nodes = (
(288,722,l),
(341,722,l),
(341,190,ls),
(341,186,o),
(340,182,o),
(340,178,cs),
(337,138,o),
(318,98,o),
(288,71,c)
);
}
);
};
layerId = "635BA1BE-6D3C-4022-865D-395853E3C0E5";
name = "22 août 23 à 15:26";
shapes = (
{
closed = 0;
nodes = (
(27,86,l),
(54,38,o),
(101,10,o),
(169,10,cs),
(183,10,ls),
(311,10,o),
(383,103,o),
(383,270,cs),
(383,732,l),
(159,732,l)
);
},
{
closed = 0;
nodes = (
(274,732,l),
(274,31,l)
);
}
);
width = 437;
},
{
anchors = (
{
name = bottom;
pos = (233,0);
},
{
name = top;
pos = (233,747);
}
);
associatedMasterId = m01;
background = {
hints = (
{
horizontal = 1;
place = (2,26);
type = Stem;
},
{
horizontal = 1;
place = (722,26);
type = Stem;
},
{
place = (264,24);
type = Stem;
},
{
place = (341,25);
type = Stem;
}
);
shapes = (
{
closed = 1;
nodes = (
(369,735,ls),
(369,742,o),
(363,748,o),
(356,748,cs),
(169,748,ls),
(162,748,o),
(156,742,o),
(156,735,cs),
(156,728,o),
(162,722,o),
(169,722,cs),
(267,722,l),
(267,52,l),
(241,36,o),
(213,28,o),
(176,28,cs),
(133,28,o),
(95,39,o),
(61,69,c),
(47,84,ls),
(43,89,o),
(35,90,o),
(30,86,cs),
(24,81,o),
(24,73,o),
(28,68,cs),
(33,62,o),
(39,56,o),
(45,51,cs),
(83,16,o),
(127,2,o),
(176,2,cs),
(225,2,o),
(268,16,o),
(307,51,cs),
(342,83,o),
(364,129,o),
(368,176,cs),
(368,181,o),
(369,186,o),
(369,190,cs)
);
},
{
closed = 1;
nodes = (
(291,722,l),
(344,722,l),
(344,190,ls),
(344,186,o),
(343,182,o),
(343,178,cs),
(340,138,o),
(321,98,o),
(291,71,c)
);
}
);
};
layerId = "3626FBC7-64D8-4134-BA67-710212EEF9D1";
name = "22 août 23 à 17:21";
shapes = (
{
closed = 0;
nodes = (
(30,86,l),
(57,38,o),
(104,10,o),
(172,10,cs),
(186,10,ls),
(314,10,o),
(386,103,o),
(386,270,cs),
(386,732,l),
(162,732,l)
);
},
{
closed = 0;
nodes = (
(277,732,l),
(277,31,l)
);
}
);
width = 466;
}
);
note = J;
unicode = 74;
},
{
glyphname = K;
kernLeft = H;
kernRight = K;
lastChange = "2023-09-04 14:13:34 +0000";
layers = (
{
anchors = (
{
name = bottom;
pos = (306,16);
},
{
name = top;
pos = (306,774);
}
);
background = {
hints = (
{
horizontal = 1;
place = (747.25,-20);
target = down;
type = TopGhost;
},
{
place = (62,24);
type = Stem;
},
{
place = (271,24);
type = Stem;
}
);
shapes = (
{
closed = 1;
nodes = (
(167,402,ls),
(161,396,o),
(158,388,o),
(158,381,cs),
(158,373,o),
(161,365,o),
(167,359,cs),
(173,353,o),
(181,350,o),
(189,350,cs),
(196,350,o),
(204,353,o),
(210,359,cs),
(501,650,ls),
(507,656,o),
(510,664,o),
(510,672,cs),
(510,679,o),
(507,687,o),
(501,693,cs),
(495,699,o),
(487,702,o),
(480,702,cs),
(472,702,o),
(464,699,o),
(458,693,cs)
);
},
{
closed = 1;
nodes = (
(83,30,ls),
(83,13,o),
(96,0,o),
(113,0,cs),
(130,0,o),
(143,13,o),
(143,30,cs),
(143,670,ls),
(143,687,o),
(130,700,o),
(113,700,cs),
(96,700,o),
(83,687,o),
(83,670,cs)
);
},
{
closed = 1;
nodes = (
(518,9,ls),
(524,3,o),
(532,0,o),
(540,0,cs),
(547,0,o),
(555,3,o),
(561,9,cs),
(567,15,o),
(570,23,o),
(570,31,cs),
(570,38,o),
(567,46,o),
(561,52,cs),
(275,338,ls),
(269,344,o),
(261,347,o),
(254,347,cs),
(246,347,o),
(238,344,o),
(232,338,cs),
(226,332,o),
(223,324,o),
(223,317,cs),
(223,309,o),
(226,301,o),
(232,295,cs)
);
},
{
closed = 0;
nodes = (
(110,685,l),
(110,15,l)
);
},
{
closed = 0;
nodes = (
(506,685,l),
(110,300,l)
);
},
{
closed = 0;
nodes = (
(554,15,l),
(191,377,l)
);
},
{
closed = 0;
nodes = (
(110,685,l),
(110,15,l)
);
},
{
closed = 0;
nodes = (
(506,685,l),
(190,378,l)
);
},
{
closed = 0;
nodes = (
(554,15,l),
(252,316,l)
);
}
);
};
layerId = m01;
shapes = (
{
closed = 1;
nodes = (
(140,700,ls),
(140,717,o),
(127,730,o),
(110,730,cs),
(93,730,o),
(80,717,o),
(80,700,cs),
(80,30,ls),
(80,13,o),
(93,0,o),
(110,0,cs),
(127,0,o),
(140,13,o),
(140,30,cs)
);
},
{
closed = 1;
nodes = (
(527,678,ls),
(533,684,o),
(536,692,o),
(536,700,cs),
(536,717,o),
(523,730,o),
(506,730,cs),
(498,730,o),
(490,727,o),
(485,722,cs),
(169,415,ls),
(163,409,o),
(160,401,o),
(160,393,cs),
(160,376,o),
(173,363,o),
(190,363,cs),
(198,363,o),
(206,366,o),
(211,371,cs)
);
},
{
closed = 1;
nodes = (
(533,9,l),
(538,3,o),
(546,0,o),
(554,0,cs),
(571,0,o),
(584,13,o),
(584,30,cs),
(584,38,o),
(581,46,o),
(575,51,cs),
(273,352,l),
(268,358,o),
(260,361,o),
(252,361,cs),
(235,361,o),
(222,348,o),
(222,331,cs),
(222,323,o),
(225,315,o),
(231,310,cs)
);
}
);
width = 614;
},
{
associatedMasterId = m01;
hints = (
{
horizontal = 1;
place = (747.25,-20);
target = down;
type = TopGhost;
},
{
place = (62,24);
type = Stem;
},
{
place = (271,24);
type = Stem;
}
);
layerId = "2CCB421B-34E7-42E4-837C-7BC9A0C38D4F";
name = "22 août 23 à 12:50";
shapes = (
{
closed = 1;
nodes = (
(86,344,l),
(119,389,l),
(271,7,ls),
(274,1,o),
(281,-2,o),
(288,0,cs),
(294,3,o),
(297,10,o),
(295,17,c),
(136,414,l),
(173,466,l),
(357,10,ls),
(360,4,o),
(367,1,o),
(373,3,cs),
(380,6,o),
(383,13,o),
(380,20,cs),
(191,490,l),
(360,728,ls),
(364,733,o),
(363,741,o),
(357,745,cs),
(352,749,o),
(344,748,o),
(340,742,cs),
(86,387,l),
(86,735,ls),
(86,742,o),
(81,748,o),
(74,748,cs),
(67,748,o),
(62,742,o),
(62,735,cs),
(62,15,ls),
(62,8,o),
(67,2,o),
(74,2,cs),
(81,2,o),
(86,8,o),
(86,15,cs)
);
}
);
width = 433;
},
{
associatedMasterId = m01;
background = {
hints = (
{
horizontal = 1;
place = (747.25,-20);
target = down;
type = TopGhost;
},
{
place = (62,24);
type = Stem;
},
{
place = (271,24);
type = Stem;
}
);
shapes = (
{
closed = 1;
nodes = (
(86,344,l),
(119,389,l),
(271,7,ls),
(274,1,o),
(281,-2,o),
(288,0,cs),
(294,3,o),
(297,10,o),
(295,17,c),
(136,414,l),
(173,466,l),
(357,10,ls),
(360,4,o),
(367,1,o),
(373,3,cs),
(380,6,o),
(383,13,o),
(380,20,cs),
(191,490,l),
(360,728,ls),
(364,733,o),
(363,741,o),
(357,745,cs),
(352,749,o),
(344,748,o),
(340,742,cs),
(86,387,l),
(86,735,ls),
(86,742,o),
(81,748,o),
(74,748,cs),
(67,748,o),
(62,742,o),
(62,735,cs),
(62,15,ls),
(62,8,o),
(67,2,o),
(74,2,cs),
(81,2,o),
(86,8,o),
(86,15,cs)
);
}
);
};
layerId = "5A9BC9A0-5CD3-4ADA-8980-8B8EFC55C4AE";
name = "22 août 23 à 13:37";
shapes = (
{
closed = 0;
nodes = (
(74,747,l),
(74,0,l)
);
},
{
closed = 0;
nodes = (
(357,747,l),
(74,352,l)
);
},
{
closed = 0;
nodes = (
(374,0,l),
(174,491,l)
);
},
{
closed = 0;
nodes = (
(291,0,l),
(121,417,l)
);
}
);
width = 433;
},
{
associatedMasterId = m01;
background = {
hints = (
{
horizontal = 1;
place = (747.25,-20);
target = down;
type = TopGhost;
},
{
place = (62,24);
type = Stem;
},
{
place = (271,24);
type = Stem;
}
);
shapes = (
{
closed = 1;
nodes = (
(86,344,l),
(119,389,l),
(271,7,ls),
(274,1,o),
(281,-2,o),
(288,0,cs),
(294,3,o),
(297,10,o),
(295,17,c),
(136,414,l),
(173,466,l),
(357,10,ls),
(360,4,o),
(367,1,o),
(373,3,cs),
(380,6,o),
(383,13,o),
(380,20,cs),
(191,490,l),
(360,728,ls),
(364,733,o),
(363,741,o),
(357,745,cs),
(352,749,o),
(344,748,o),
(340,742,cs),
(86,387,l),
(86,735,ls),
(86,742,o),
(81,748,o),
(74,748,cs),
(67,748,o),
(62,742,o),
(62,735,cs),
(62,15,ls),
(62,8,o),
(67,2,o),
(74,2,cs),
(81,2,o),
(86,8,o),
(86,15,cs)
);
}
);
};
layerId = "234A3EF4-382D-4FB4-BC12-C624872BE65F";
name = "22 août 23 à 15:26";
shapes = (
{
closed = 0;
nodes = (
(74,732,l),
(74,15,l)
);
},
{
closed = 0;
nodes = (
(357,732,l),
(74,352,l)
);
},
{
closed = 0;
nodes = (
(374,15,l),
(174,486,l)
);
},
{
closed = 0;
nodes = (
(291,15,l),
(121,412,l)
);
}
);
width = 433;
},
{
anchors = (
{
name = bottom;
pos = (220,0);
},
{
name = top;
pos = (220,747);
}
);
associatedMasterId = m01;
background = {
hints = (
{
horizontal = 1;
place = (747.25,-20);
target = down;
type = TopGhost;
},
{
place = (62,24);
type = Stem;
},
{
place = (271,24);
type = Stem;
}
);
shapes = (
{
closed = 1;
nodes = (
(92,344,l),
(125,389,l),
(277,7,ls),
(280,1,o),
(287,-2,o),
(294,0,cs),
(300,3,o),
(303,10,o),
(301,17,c),
(142,414,l),
(179,466,l),
(363,10,ls),
(366,4,o),
(373,1,o),
(379,3,cs),
(386,6,o),
(389,13,o),
(386,20,cs),
(197,490,l),
(366,728,ls),
(370,733,o),
(369,741,o),
(363,745,cs),
(358,749,o),
(350,748,o),
(346,742,cs),
(92,387,l),
(92,735,ls),
(92,742,o),
(87,748,o),
(80,748,cs),
(73,748,o),
(68,742,o),
(68,735,cs),
(68,15,ls),
(68,8,o),
(73,2,o),
(80,2,cs),
(87,2,o),
(92,8,o),
(92,15,cs)
);
}
);
};
layerId = "25CAC4D2-8D7E-47FE-8345-81CB9E5E4439";
name = "22 août 23 à 17:21";
shapes = (
{
closed = 0;
nodes = (
(80,732,l),
(80,15,l)
);
},
{
closed = 0;
nodes = (
(363,732,l),
(80,352,l)
);
},
{
closed = 0;
nodes = (
(380,15,l),
(180,486,l)
);
},
{
closed = 0;
nodes = (
(297,15,l),
(127,412,l)
);
}
);
width = 440;
}
);
note = K;
unicode = 75;
},
{
glyphname = L;
kernLeft = H;
kernRight = L;
lastChange = "2023-09-14 13:22:50 +0000";
layers = (
{
anchors = (
{
name = bottom;
pos = (324,15);
},
{
name = center;
pos = (278,366);
},
{
name = top;
pos = (184,774);
},
{
name = topright;
pos = (530,714);
}
);
background = {
hints = (
{
horizontal = 1;
place = (2,26);
type = Stem;
},
{
horizontal = 1;
place = (126,24);
type = Stem;
},
{
place = (62,24);
type = Stem;
}
);
shapes = (
{
closed = 1;
nodes = (
(83,30,ls),
(83,13,o),
(96,0,o),
(113,0,cs),
(130,0,o),
(143,13,o),
(143,30,cs),
(143,670,ls),
(143,687,o),
(130,700,o),
(113,700,cs),
(96,700,o),
(83,687,o),
(83,670,cs)
);
},
{
closed = 1;
nodes = (
(213,60,ls),
(196,60,o),
(183,47,o),
(183,30,cs),
(183,13,o),
(196,0,o),
(213,0,cs),
(514,0,ls),
(531,0,o),
(544,13,o),
(544,30,cs),
(544,47,o),
(531,60,o),
(514,60,cs)
);
},
{
closed = 0;
nodes = (
(110,685,l),
(110,15,l),
(536,15,l)
);
}
);
};
layerId = m01;
shapes = (
{
closed = 1;
nodes = (
(140,700,ls),
(140,717,o),
(127,730,o),
(110,730,cs),
(93,730,o),
(80,717,o),
(80,700,cs),
(80,30,ls),
(80,13,o),
(93,0,o),
(110,0,cs),
(127,0,o),
(140,13,o),
(140,30,cs)
);
},
{
closed = 1;
nodes = (
(210,60,ls),
(193,60,o),
(180,47,o),
(180,30,cs),
(180,13,o),
(193,0,o),
(210,0,cs),
(536,0,ls),
(553,0,o),
(566,13,o),
(566,30,cs),
(566,47,o),
(553,60,o),
(536,60,cs)
);
}
);
width = 586;
},
{
associatedMasterId = m01;
hints = (
{
horizontal = 1;
place = (2,26);
type = Stem;
},
{
horizontal = 1;
place = (126,24);
type = Stem;
},
{
place = (62,24);
type = Stem;
}
);
layerId = "A4B6C40D-C8C5-43EF-854E-7D0502D7A262";
name = "22 août 23 à 12:50";
shapes = (
{
closed = 1;
nodes = (
(86,28,l),
(86,126,l),
(356,126,ls),
(363,126,o),
(368,131,o),
(368,138,cs),
(368,145,o),
(363,150,o),
(356,150,cs),
(86,150,l),
(86,735,ls),
(86,742,o),
(81,748,o),
(74,748,cs),
(67,748,o),
(62,742,o),
(62,735,cs),
(62,15,ls),
(62,8,o),
(67,2,o),
(74,2,cs),
(357,2,ls),
(364,2,o),
(370,8,o),
(370,15,cs),
(370,22,o),
(364,28,o),
(357,28,cs)
);
}
);
width = 384;
},
{
associatedMasterId = m01;
background = {
hints = (
{
horizontal = 1;
place = (2,26);
type = Stem;
},
{
horizontal = 1;
place = (126,24);
type = Stem;
},
{
place = (62,24);
type = Stem;
}
);
shapes = (
{
closed = 1;
nodes = (
(86,28,l),
(86,126,l),
(356,126,ls),
(363,126,o),
(368,131,o),
(368,138,cs),
(368,145,o),
(363,150,o),
(356,150,cs),
(86,150,l),
(86,735,ls),
(86,742,o),
(81,748,o),
(74,748,cs),
(67,748,o),
(62,742,o),
(62,735,cs),
(62,15,ls),
(62,8,o),
(67,2,o),
(74,2,cs),
(357,2,ls),
(364,2,o),
(370,8,o),
(370,15,cs),
(370,22,o),
(364,28,o),
(357,28,cs)
);
}
);
};
layerId = "649DBB8D-F04C-4961-A2E8-1B1AC5E2BA9B";
name = "22 août 23 à 13:37";
shapes = (
{
closed = 0;
nodes = (
(74,747,l),
(74,15,l),
(364,15,l)
);
},
{
closed = 0;
nodes = (
(74,137,l),
(364,137,l)
);
}
);
width = 384;
},
{
associatedMasterId = m01;
background = {
hints = (
{
horizontal = 1;
place = (2,26);
type = Stem;
},
{
horizontal = 1;
place = (126,24);
type = Stem;
},
{
place = (62,24);
type = Stem;
}
);
shapes = (
{
closed = 1;
nodes = (
(86,28,l),
(86,126,l),
(356,126,ls),
(363,126,o),
(368,131,o),
(368,138,cs),
(368,145,o),
(363,150,o),
(356,150,cs),
(86,150,l),
(86,735,ls),
(86,742,o),
(81,748,o),
(74,748,cs),
(67,748,o),
(62,742,o),
(62,735,cs),
(62,15,ls),
(62,8,o),
(67,2,o),
(74,2,cs),
(357,2,ls),
(364,2,o),
(370,8,o),
(370,15,cs),
(370,22,o),
(364,28,o),
(357,28,cs)
);
}
);
};
layerId = "4EA59624-9A81-47E9-B523-FC1C70981ADC";
name = "22 août 23 à 15:26";
shapes = (
{
closed = 0;
nodes = (
(74,732,l),
(74,15,l),
(364,15,l)
);
},
{
closed = 0;
nodes = (
(74,137,l),
(364,137,l)
);
}
);
width = 384;
},
{
anchors = (
{
name = bottom;
pos = (200,0);
},
{
name = center;
pos = (200,374);
},
{
name = top;
pos = (200,747);
},
{
name = topright;
pos = (380,747);
}
);
associatedMasterId = m01;
background = {
hints = (
{
horizontal = 1;
place = (2,26);
type = Stem;
},
{
horizontal = 1;
place = (126,24);
type = Stem;
},
{
place = (62,24);
type = Stem;
}
);
shapes = (
{
closed = 1;
nodes = (
(92,28,l),
(92,126,l),
(362,126,ls),
(369,126,o),
(374,131,o),
(374,138,cs),
(374,145,o),
(369,150,o),
(362,150,cs),
(92,150,l),
(92,735,ls),
(92,742,o),
(87,748,o),
(80,748,cs),
(73,748,o),
(68,742,o),
(68,735,cs),
(68,15,ls),
(68,8,o),
(73,2,o),
(80,2,cs),
(363,2,ls),
(370,2,o),
(376,8,o),
(376,15,cs),
(376,22,o),
(370,28,o),
(363,28,cs)
);
}
);
};
layerId = "E86B3CC3-32F0-4110-AFD0-0E51FEF3B837";
name = "22 août 23 à 17:21";
shapes = (
{
closed = 0;
nodes = (
(80,732,l),
(80,15,l),
(370,15,l)
);
},
{
closed = 0;
nodes = (
(80,137,l),
(370,137,l)
);
}
);
width = 400;
}
);
note = L;
unicode = 76;
},
{
glyphname = Lslash;
kernLeft = H;
kernRight = L;
lastChange = "2023-09-04 14:13:34 +0000";
layers = (
{
layerId = m01;
shapes = (
{
pos = (92,0);
ref = L;
},
{
closed = 1;
nodes = (
(31,254,ls),
(24,249,o),
(20,240,o),
(20,231,cs),
(20,214,o),
(33,201,o),
(50,201,cs),
(57,201,o),
(64,204,o),
(69,208,cs),
(141,268,ls),
(148,273,o),
(152,282,o),
(152,291,cs),
(152,308,o),
(139,321,o),
(122,321,cs),
(115,321,o),
(108,318,o),
(103,314,cs)
);
},
{
closed = 1;
nodes = (
(272,452,ls),
(266,447,o),
(262,439,o),
(262,430,cs),
(262,413,o),
(275,400,o),
(292,400,cs),
(300,400,o),
(307,403,o),
(312,408,cs),
(385,474,ls),
(391,479,o),
(395,487,o),
(395,496,cs),
(395,513,o),
(382,526,o),
(365,526,cs),
(357,526,o),
(350,523,o),
(345,518,cs)
);
}
);
width = 678;
}
);
metricRight = L;
unicode = 321;
},
{
glyphname = M;
kernLeft = H;
kernRight = H;
lastChange = "2023-09-04 14:13:34 +0000";
layers = (
{
anchors = (
{
name = bottom;
pos = (448,15);
},
{
name = top;
pos = (448,773);
}
);
background = {
anchors = (
{
name = bottom;
pos = (373,1);
},
{
name = top;
pos = (373,759);
}
);
hints = (
{
horizontal = 1;
place = (747,-20);
target = down;
type = TopGhost;
},
{
place = (62,25);
type = Stem;
},
{
place = (250,26);
type = Stem;
},
{
place = (438,25);
type = Stem;
}
);
shapes = (
{
closed = 1;
nodes = (
(484,170,ls),
(482,165,o),
(480,161,o),
(480,156,cs),
(480,140,o),
(492,125,o),
(511,125,cs),
(522,125,o),
(532,132,o),
(538,142,cs),
(805,656,ls),
(807,661,o),
(809,665,o),
(809,670,cs),
(809,686,o),
(797,701,o),
(778,701,cs),
(767,701,o),
(757,694,o),
(751,684,cs)
);
},
{
closed = 1;
nodes = (
(83,30,ls),
(83,13,o),
(96,0,o),
(113,0,cs),
(130,0,o),
(143,13,o),
(143,30,cs),
(143,670,ls),
(143,687,o),
(130,700,o),
(113,700,cs),
(96,700,o),
(83,687,o),
(83,670,cs)
);
},
{
closed = 1;
nodes = (
(412,16,ls),
(417,5,o),
(428,-1,o),
(439,-1,cs),
(443,-1,o),
(448,0,o),
(452,2,cs),
(463,7,o),
(469,18,o),
(469,29,cs),
(469,33,o),
(468,38,o),
(466,42,cs),
(226,517,ls),
(221,528,o),
(210,534,o),
(199,534,cs),
(195,534,o),
(190,533,o),
(186,531,cs),
(175,526,o),
(169,515,o),
(169,504,cs),
(169,500,o),
(170,495,o),
(172,491,cs)
);
},
{
closed = 1;
nodes = (
(748,30,ls),
(748,13,o),
(761,0,o),
(778,0,cs),
(795,0,o),
(808,13,o),
(808,30,cs),
(808,476,ls),
(808,493,o),
(795,506,o),
(778,506,cs),
(761,506,o),
(748,493,o),
(748,476,cs)
);
},
{
closed = 0;
nodes = (
(110,15,l),
(110,685,l)
);
},
{
closed = 0;
nodes = (
(200,506,l),
(447,15,l)
);
},
{
closed = 0;
nodes = (
(520,159,l),
(784,685,l)
);
},
{
closed = 0;
nodes = (
(784,477,l),
(784,15,l)
);
}
);
};
layerId = m01;
shapes = (
{
closed = 1;
nodes = (
(80,30,ls),
(80,13,o),
(93,0,o),
(110,0,cs),
(127,0,o),
(140,13,o),
(140,30,cs),
(140,700,ls),
(140,717,o),
(127,730,o),
(110,730,cs),
(93,730,o),
(80,717,o),
(80,700,cs)
);
},
{
closed = 1;
nodes = (
(227,534,ls),
(222,544,o),
(212,551,o),
(200,551,cs),
(183,551,o),
(170,538,o),
(170,521,cs),
(170,516,o),
(171,512,o),
(173,508,cs),
(420,17,ls),
(425,7,o),
(435,0,o),
(447,0,cs),
(464,0,o),
(477,13,o),
(477,30,cs),
(477,35,o),
(476,39,o),
(474,43,cs)
);
},
{
closed = 1;
nodes = (
(493,187,ls),
(491,183,o),
(490,179,o),
(490,174,cs),
(490,157,o),
(503,144,o),
(520,144,cs),
(532,144,o),
(542,151,o),
(547,161,cs),
(811,687,ls),
(813,691,o),
(814,695,o),
(814,700,cs),
(814,717,o),
(801,730,o),
(784,730,cs),
(772,730,o),
(762,723,o),
(757,713,cs)
);
},
{
closed = 1;
nodes = (
(814,492,ls),
(814,509,o),
(801,522,o),
(784,522,cs),
(767,522,o),
(754,509,o),
(754,492,cs),
(754,30,ls),
(754,13,o),
(767,0,o),
(784,0,cs),
(801,0,o),
(814,13,o),
(814,30,cs)
);
}
);
width = 894;
},
{
associatedMasterId = m01;
hints = (
{
horizontal = 1;
place = (747,-20);
target = down;
type = TopGhost;
},
{
place = (62,25);
type = Stem;
},
{
place = (250,26);
type = Stem;
},
{
place = (438,25);
type = Stem;
}
);
layerId = "524783CE-9031-4BAC-8457-6639F1889003";
name = "22 août 23 à 12:50";
shapes = (
{
closed = 1;
nodes = (
(276,331,l),
(438,679,l),
(438,15,ls),
(438,8,o),
(443,2,o),
(450,2,cs),
(457,2,o),
(463,8,o),
(463,15,cs),
(463,735,ls),
(463,741,o),
(459,746,o),
(453,747,cs),
(447,749,o),
(442,746,o),
(439,740,cs),
(262,362,l),
(86,740,ls),
(83,746,o),
(77,749,o),
(71,747,cs),
(66,746,o),
(62,741,o),
(62,735,cs),
(62,15,ls),
(62,8,o),
(67,2,o),
(74,2,cs),
(81,2,o),
(87,8,o),
(87,15,cs),
(87,679,l),
(250,328,l),
(250,12,ls),
(250,5,o),
(256,0,o),
(263,0,cs),
(270,0,o),
(276,5,o),
(276,12,cs)
);
}
);
width = 534;
},
{
associatedMasterId = m01;
background = {
hints = (
{
horizontal = 1;
place = (747,-20);
target = down;
type = TopGhost;
},
{
place = (62,25);
type = Stem;
},
{
place = (250,26);
type = Stem;
},
{
place = (438,25);
type = Stem;
}
);
shapes = (
{
closed = 1;
nodes = (
(276,331,l),
(438,679,l),
(438,15,ls),
(438,8,o),
(443,2,o),
(450,2,cs),
(457,2,o),
(463,8,o),
(463,15,cs),
(463,735,ls),
(463,741,o),
(459,746,o),
(453,747,cs),
(447,749,o),
(442,746,o),
(439,740,cs),
(262,362,l),
(86,740,ls),
(83,746,o),
(77,749,o),
(71,747,cs),
(66,746,o),
(62,741,o),
(62,735,cs),
(62,15,ls),
(62,8,o),
(67,2,o),
(74,2,cs),
(81,2,o),
(87,8,o),
(87,15,cs),
(87,679,l),
(250,328,l),
(250,12,ls),
(250,5,o),
(256,0,o),
(263,0,cs),
(270,0,o),
(276,5,o),
(276,12,cs)
);
}
);
};
layerId = "8B78BDAE-10A8-4393-9B33-00D2E5F04231";
name = "22 août 23 à 13:37";
shapes = (
{
closed = 0;
nodes = (
(74,0,l),
(74,747,l),
(262,339,l),
(450,747,l),
(450,0,l)
);
},
{
closed = 0;
nodes = (
(262,339,l),
(262,0,l)
);
}
);
width = 534;
},
{
associatedMasterId = m01;
background = {
hints = (
{
horizontal = 1;
place = (747,-20);
target = down;
type = TopGhost;
},
{
place = (62,25);
type = Stem;
},
{
place = (250,26);
type = Stem;
},
{
place = (438,25);
type = Stem;
}
);
shapes = (
{
closed = 1;
nodes = (
(276,331,l),
(438,679,l),
(438,15,ls),
(438,8,o),
(443,2,o),
(450,2,cs),
(457,2,o),
(463,8,o),
(463,15,cs),
(463,735,ls),
(463,741,o),
(459,746,o),
(453,747,cs),
(447,749,o),
(442,746,o),
(439,740,cs),
(262,362,l),
(86,740,ls),
(83,746,o),
(77,749,o),
(71,747,cs),
(66,746,o),
(62,741,o),
(62,735,cs),
(62,15,ls),
(62,8,o),
(67,2,o),
(74,2,cs),
(81,2,o),
(87,8,o),
(87,15,cs),
(87,679,l),
(250,328,l),
(250,12,ls),
(250,5,o),
(256,0,o),
(263,0,cs),
(270,0,o),
(276,5,o),
(276,12,cs)
);
}
);
};
layerId = "EB6045F1-2C72-4C64-947A-4164EC6DDFAA";
name = "22 août 23 à 15:26";
shapes = (
{
closed = 0;
nodes = (
(74,15,l),
(74,732,l)
);
},
{
closed = 0;
nodes = (
(262,339,l),
(262,15,l)
);
},
{
closed = 0;
nodes = (
(450,732,l),
(450,15,l)
);
},
{
closed = 0;
nodes = (
(74,732,l),
(262,339,l),
(450,732,l)
);
}
);
width = 534;
},
{
anchors = (
{
name = bottom;
pos = (268,0);
},
{
name = top;
pos = (268,747);
}
);
associatedMasterId = m01;
background = {
hints = (
{
horizontal = 1;
place = (747,-20);
target = down;
type = TopGhost;
},
{
place = (62,25);
type = Stem;
},
{
place = (250,26);
type = Stem;
},
{
place = (438,25);
type = Stem;
}
);
shapes = (
{
closed = 1;
nodes = (
(282,331,l),
(444,679,l),
(444,15,ls),
(444,8,o),
(449,2,o),
(456,2,cs),
(463,2,o),
(469,8,o),
(469,15,cs),
(469,735,ls),
(469,741,o),
(465,746,o),
(459,747,cs),
(453,749,o),
(448,746,o),
(445,740,cs),
(268,362,l),
(92,740,ls),
(89,746,o),
(83,749,o),
(77,747,cs),
(72,746,o),
(68,741,o),
(68,735,cs),
(68,15,ls),
(68,8,o),
(73,2,o),
(80,2,cs),
(87,2,o),
(93,8,o),
(93,15,cs),
(93,679,l),
(256,328,l),
(256,12,ls),
(256,5,o),
(262,0,o),
(269,0,cs),
(276,0,o),
(282,5,o),
(282,12,cs)
);
}
);
};
layerId = "7C208843-FD29-4B16-AF59-3C68DC894E52";
name = "22 août 23 à 17:21";
shapes = (
{
closed = 0;
nodes = (
(80,15,l),
(80,732,l)
);
},
{
closed = 0;
nodes = (
(268,339,l),
(268,15,l)
);
},
{
closed = 0;
nodes = (
(456,732,l),
(456,15,l)
);
},
{
closed = 0;
nodes = (
(80,732,l),
(268,339,l),
(456,732,l)
);
}
);
width = 536;
}
);
note = M;
unicode = 77;
},
{
glyphname = N;
kernLeft = H;
kernRight = H;
lastChange = "2023-09-04 14:13:34 +0000";
layers = (
{
anchors = (
{
name = bottom;
pos = (329,15);
},
{
name = top;
pos = (329,773);
}
);
background = {
hints = (
{
horizontal = 1;
place = (747,-20);
target = down;
type = TopGhost;
},
{
place = (62,24);
type = Stem;
},
{
place = (269,22);
type = Stem;
},
{
place = (354,26);
type = Stem;
}
);
shapes = (
{
closed = 1;
nodes = (
(522,13,ls),
(528,4,o),
(538,-1,o),
(548,-1,cs),
(553,-1,o),
(559,1,o),
(564,4,cs),
(573,10,o),
(578,20,o),
(578,30,cs),
(578,35,o),
(576,41,o),
(573,46,cs),
(140,686,ls),
(134,695,o),
(124,700,o),
(114,700,cs),
(109,700,o),
(103,698,o),
(98,695,cs),
(89,689,o),
(84,679,o),
(84,669,cs),
(84,664,o),
(86,658,o),
(89,653,cs)
);
},
{
closed = 1;
nodes = (
(517,230,ls),
(517,213,o),
(530,200,o),
(547,200,cs),
(564,200,o),
(577,213,o),
(577,230,cs),
(577,670,ls),
(577,687,o),
(564,700,o),
(547,700,cs),
(530,700,o),
(517,687,o),
(517,670,cs)
);
},
{
closed = 1;
nodes = (
(84,30,ls),
(84,13,o),
(97,0,o),
(114,0,cs),
(131,0,o),
(144,13,o),
(144,30,cs),
(144,470,ls),
(144,487,o),
(131,500,o),
(114,500,cs),
(97,500,o),
(84,487,o),
(84,470,cs)
);
}
);
};
layerId = m01;
shapes = (
{
closed = 1;
nodes = (
(80,30,ls),
(80,13,o),
(93,0,o),
(110,0,cs),
(127,0,o),
(140,13,o),
(140,30,cs),
(140,545,ls),
(140,562,o),
(127,575,o),
(110,575,cs),
(93,575,o),
(80,562,o),
(80,545,cs)
);
},
{
closed = 1;
nodes = (
(517,185,ls),
(517,168,o),
(530,155,o),
(547,155,cs),
(564,155,o),
(577,168,o),
(577,185,cs),
(577,700,ls),
(577,717,o),
(564,730,o),
(547,730,cs),
(530,730,o),
(517,717,o),
(517,700,cs)
);
},
{
closed = 1;
nodes = (
(135,716,ls),
(129,725,o),
(121,730,o),
(110,730,cs),
(93,730,o),
(80,717,o),
(80,700,cs),
(80,694,o),
(82,688,o),
(85,684,cs),
(522,14,ls),
(528,5,o),
(536,0,o),
(547,0,cs),
(564,0,o),
(577,13,o),
(577,30,cs),
(577,36,o),
(575,42,o),
(572,46,cs)
);
}
);
width = 657;
},
{
associatedMasterId = m01;
hints = (
{
horizontal = 1;
place = (747,-20);
target = down;
type = TopGhost;
},
{
place = (62,24);
type = Stem;
},
{
place = (269,22);
type = Stem;
},
{
place = (354,26);
type = Stem;
}
);
layerId = "D8EDBC14-F0AF-4BAF-842B-BB2F2411CC5E";
name = "22 août 23 à 12:50";
shapes = (
{
closed = 1;
nodes = (
(380,735,ls),
(380,742,o),
(374,748,o),
(367,748,cs),
(360,748,o),
(354,742,o),
(354,735,cs),
(354,79,l),
(86,740,ls),
(83,746,o),
(78,748,o),
(72,747,cs),
(65,746,o),
(62,741,o),
(62,735,cs),
(62,15,ls),
(62,8,o),
(67,2,o),
(74,2,cs),
(81,2,o),
(86,8,o),
(86,15,cs),
(86,427,l),
(269,9,ls),
(271,3,o),
(279,0,o),
(285,3,cs),
(291,5,o),
(294,13,o),
(291,19,cs),
(89,483,l),
(89,485,o),
(88,486,o),
(86,487,c),
(86,671,l),
(355,10,ls),
(358,4,o),
(363,2,o),
(369,3,cs),
(376,4,o),
(380,9,o),
(380,15,cs)
);
}
);
width = 450;
},
{
associatedMasterId = m01;
background = {
hints = (
{
horizontal = 1;
place = (747,-20);
target = down;
type = TopGhost;
},
{
place = (62,24);
type = Stem;
},
{
place = (269,22);
type = Stem;
},
{
place = (354,26);
type = Stem;
}
);
shapes = (
{
closed = 1;
nodes = (
(380,735,ls),
(380,742,o),
(374,748,o),
(367,748,cs),
(360,748,o),
(354,742,o),
(354,735,cs),
(354,79,l),
(86,740,ls),
(83,746,o),
(78,748,o),
(72,747,cs),
(65,746,o),
(62,741,o),
(62,735,cs),
(62,15,ls),
(62,8,o),
(67,2,o),
(74,2,cs),
(81,2,o),
(86,8,o),
(86,15,cs),
(86,427,l),
(269,9,ls),
(271,3,o),
(279,0,o),
(285,3,cs),
(291,5,o),
(294,13,o),
(291,19,cs),
(89,483,l),
(89,485,o),
(88,486,o),
(86,487,c),
(86,671,l),
(355,10,ls),
(358,4,o),
(363,2,o),
(369,3,cs),
(376,4,o),
(380,9,o),
(380,15,cs)
);
}
);
};
layerId = "E6D438D8-A8CB-4695-89A5-6595CFEAB1D8";
name = "22 août 23 à 13:37";
shapes = (
{
closed = 0;
nodes = (
(74,0,l),
(74,747,l),
(367,0,l),
(367,747,l)
);
},
{
closed = 0;
nodes = (
(74,466,l),
(257,0,l)
);
}
);
width = 450;
},
{
associatedMasterId = m01;
background = {
hints = (
{
horizontal = 1;
place = (747,-20);
target = down;
type = TopGhost;
},
{
place = (62,24);
type = Stem;
},
{
place = (269,22);
type = Stem;
},
{
place = (354,26);
type = Stem;
}
);
shapes = (
{
closed = 1;
nodes = (
(380,735,ls),
(380,742,o),
(374,748,o),
(367,748,cs),
(360,748,o),
(354,742,o),
(354,735,cs),
(354,79,l),
(86,740,ls),
(83,746,o),
(78,748,o),
(72,747,cs),
(65,746,o),
(62,741,o),
(62,735,cs),
(62,15,ls),
(62,8,o),
(67,2,o),
(74,2,cs),
(81,2,o),
(86,8,o),
(86,15,cs),
(86,427,l),
(269,9,ls),
(271,3,o),
(279,0,o),
(285,3,cs),
(291,5,o),
(294,13,o),
(291,19,cs),
(89,483,l),
(89,485,o),
(88,486,o),
(86,487,c),
(86,671,l),
(355,10,ls),
(358,4,o),
(363,2,o),
(369,3,cs),
(376,4,o),
(380,9,o),
(380,15,cs)
);
}
);
};
layerId = "8249A027-14F5-4E6D-9B25-BDD8AF35644D";
name = "22 août 23 à 15:26";
shapes = (
{
closed = 0;
nodes = (
(74,15,l),
(74,732,l)
);
},
{
closed = 0;
nodes = (
(74,451,l),
(257,15,l)
);
},
{
closed = 0;
nodes = (
(367,15,l),
(367,732,l)
);
},
{
closed = 0;
nodes = (
(74,732,l),
(367,15,l)
);
}
);
width = 450;
},
{
anchors = (
{
name = bottom;
pos = (227,0);
},
{
name = top;
pos = (227,747);
}
);
associatedMasterId = m01;
background = {
hints = (
{
horizontal = 1;
place = (747,-20);
target = down;
type = TopGhost;
},
{
place = (62,24);
type = Stem;
},
{
place = (269,22);
type = Stem;
},
{
place = (354,26);
type = Stem;
}
);
shapes = (
{
closed = 1;
nodes = (
(386,735,ls),
(386,742,o),
(380,748,o),
(373,748,cs),
(366,748,o),
(360,742,o),
(360,735,cs),
(360,79,l),
(92,740,ls),
(89,746,o),
(84,748,o),
(78,747,cs),
(71,746,o),
(68,741,o),
(68,735,cs),
(68,15,ls),
(68,8,o),
(73,2,o),
(80,2,cs),
(87,2,o),
(92,8,o),
(92,15,cs),
(92,427,l),
(275,9,ls),
(277,3,o),
(285,0,o),
(291,3,cs),
(297,5,o),
(300,13,o),
(297,19,cs),
(95,483,l),
(95,485,o),
(94,486,o),
(92,487,c),
(92,671,l),
(361,10,ls),
(364,4,o),
(369,2,o),
(375,3,cs),
(382,4,o),
(386,9,o),
(386,15,cs)
);
}
);
};
layerId = "F5FA2136-246B-4D99-9253-31DDBF877B9D";
name = "22 août 23 à 17:21";
shapes = (
{
closed = 0;
nodes = (
(80,15,l),
(80,732,l)
);
},
{
closed = 0;
nodes = (
(80,451,l),
(263,15,l)
);
},
{
closed = 0;
nodes = (
(373,15,l),
(373,732,l)
);
},
{
closed = 0;
nodes = (
(80,732,l),
(373,15,l)
);
}
);
width = 453;
}
);
note = N;
unicode = 78;
},
{
glyphname = Nhookleft;
kernLeft = Nhookleft;
kernRight = Nhookleft;
lastChange = "2023-09-04 14:13:34 +0000";
layers = (
{
layerId = m01;
shapes = (
{
ref = N;
},
{
closed = 1;
nodes = (
(80,-129,ls),
(80,-166,o),
(36,-177,o),
(-3,-140,cs),
(-9,-135,o),
(-16,-132,o),
(-24,-132,cs),
(-41,-132,o),
(-54,-145,o),
(-54,-162,cs),
(-54,-171,o),
(-50,-178,o),
(-45,-184,c),
(25,-249,o),
(140,-217,o),
(140,-129,cs),
(140,31,ls),
(140,48,o),
(127,61,o),
(110,61,cs),
(93,61,o),
(80,48,o),
(80,31,cs)
);
}
);
width = 657;
}
);
metricRight = N;
unicode = 413;
},
{
glyphname = Eng;
kernLeft = H;
kernRight = J;
lastChange = "2023-09-04 14:13:34 +0000";
layers = (
{
anchors = (
{
name = bottom;
pos = (329,15);
},
{
name = top;
pos = (329,773);
}
);
layerId = m01;
shapes = (
{
closed = 1;
nodes = (
(80,30,ls),
(80,13,o),
(93,0,o),
(110,0,cs),
(127,0,o),
(140,13,o),
(140,30,cs),
(140,545,ls),
(140,562,o),
(127,575,o),
(110,575,cs),
(93,575,o),
(80,562,o),
(80,545,cs)
);
},
{
closed = 1;
nodes = (
(517,-129,ls),
(517,-166,o),
(473,-177,o),
(434,-140,cs),
(428,-135,o),
(421,-132,o),
(413,-132,cs),
(396,-132,o),
(383,-145,o),
(383,-162,cs),
(383,-171,o),
(387,-178,o),
(392,-184,c),
(462,-249,o),
(577,-217,o),
(577,-129,cs),
(577,700,ls),
(577,717,o),
(564,730,o),
(547,730,cs),
(530,730,o),
(517,717,o),
(517,700,cs)
);
},
{
closed = 1;
nodes = (
(135,716,ls),
(129,725,o),
(121,730,o),
(110,730,cs),
(93,730,o),
(80,717,o),
(80,700,cs),
(80,694,o),
(82,688,o),
(85,684,cs),
(445,132,ls),
(451,123,o),
(459,118,o),
(470,118,cs),
(487,118,o),
(500,131,o),
(500,148,cs),
(500,154,o),
(498,160,o),
(495,164,cs)
);
}
);
width = 657;
}
);
unicode = 330;
},
{
glyphname = O;
kernLeft = O;
kernRight = O;
lastChange = "2023-09-14 13:43:19 +0000";
layers = (
{
anchors = (
{
name = bottom;
pos = (400,16);
},
{
name = center;
pos = (400,366);
},
{
name = ogonek;
pos = (457,25);
},
{
name = top;
pos = (400,774);
},
{
name = topleft;
pos = (40,714);
},
{
name = topright;
pos = (760,714);
}
);
background = {
hints = (
{
horizontal = 1;
place = (2,25);
type = Stem;
},
{
horizontal = 1;
place = (722,26);
type = Stem;
},
{
place = (44,25);
type = Stem;
},
{
place = (368,26);
type = Stem;
},
{
place = (456,25);
type = Stem;
}
);
shapes = (
{
closed = 1;
nodes = (
(195,10,o),
(80,164,o),
(80,350,cs),
(80,536,o),
(195,690,o),
(400,690,cs),
(605,690,o),
(720,536,o),
(720,350,cs),
(720,164,o),
(605,10,o),
(400,10,cs)
);
}
);
};
layerId = m01;
shapes = (
{
closed = 1;
nodes = (
(750,576,o),
(623,735,o),
(400,735,cs),
(177,735,o),
(50,576,o),
(50,415,cs),
(50,398,o),
(63,385,o),
(80,385,cs),
(97,385,o),
(110,398,o),
(110,415,cs),
(110,550,o),
(209,675,o),
(400,675,cs),
(591,675,o),
(690,550,o),
(690,415,cs),
(690,398,o),
(703,385,o),
(720,385,cs),
(737,385,o),
(750,398,o),
(750,415,cs)
);
},
{
closed = 1;
nodes = (
(50,154,o),
(177,-5,o),
(400,-5,cs),
(623,-5,o),
(750,154,o),
(750,315,cs),
(750,332,o),
(737,345,o),
(720,345,cs),
(703,345,o),
(690,332,o),
(690,315,cs),
(690,180,o),
(591,55,o),
(400,55,cs),
(209,55,o),
(110,180,o),
(110,315,cs),
(110,332,o),
(97,345,o),
(80,345,cs),
(63,345,o),
(50,332,o),
(50,315,cs)
);
}
);
width = 800;
},
{
associatedMasterId = m01;
hints = (
{
horizontal = 1;
place = (2,25);
type = Stem;
},
{
horizontal = 1;
place = (722,26);
type = Stem;
},
{
place = (44,25);
type = Stem;
},
{
place = (368,26);
type = Stem;
},
{
place = (456,25);
type = Stem;
}
);
layerId = "FB775747-7C96-4B11-B43B-31AD9A2F229E";
name = "22 août 23 à 12:50";
shapes = (
{
closed = 1;
nodes = (
(476,206,o),
(480,258,o),
(481,309,cs),
(481,398,l),
(481,442,ls),
(480,492,o),
(476,543,o),
(460,592,cs),
(444,641,o),
(414,688,o),
(367,718,cs),
(331,740,o),
(298,748,o),
(261,748,cs),
(219,748,o),
(188,737,o),
(157,718,cs),
(111,688,o),
(81,641,o),
(65,592,cs),
(49,543,o),
(44,492,o),
(44,442,cs),
(44,375,l),
(44,307,ls),
(44,257,o),
(49,206,o),
(65,157,cs),
(81,108,o),
(111,61,o),
(157,32,cs),
(188,12,o),
(219,2,o),
(261,2,cs),
(298,2,o),
(331,9,o),
(367,32,cs),
(414,61,o),
(444,108,o),
(460,157,cs)
);
},
{
closed = 1;
nodes = (
(283,30,ls),
(332,58,o),
(357,110,o),
(373,157,cs),
(389,204,o),
(394,260,o),
(394,311,cs),
(394,441,ls),
(394,492,o),
(389,548,o),
(373,595,cs),
(357,641,o),
(332,689,o),
(283,717,cs),
(274,722,l),
(301,721,o),
(327,714,o),
(354,697,cs),
(394,671,o),
(421,629,o),
(436,584,cs),
(451,539,o),
(455,491,o),
(456,442,cs),
(456,398,l),
(456,309,ls),
(456,259,o),
(451,210,o),
(436,165,cs),
(421,120,o),
(394,78,o),
(354,53,cs),
(328,36,o),
(304,29,o),
(278,27,c)
);
},
{
closed = 1;
nodes = (
(368,311,ls),
(368,262,o),
(363,208,o),
(349,165,cs),
(336,127,o),
(313,76,o),
(269,52,c),
(254,41,o),
(240,36,o),
(226,33,c),
(224,33,o),
(223,32,o),
(221,31,c),
(203,35,o),
(187,42,o),
(170,53,cs),
(131,78,o),
(103,120,o),
(88,165,cs),
(74,210,o),
(69,258,o),
(69,307,cs),
(69,331,o),
(68,353,o),
(68,375,cs),
(68,397,o),
(69,418,o),
(69,442,cs),
(69,491,o),
(74,539,o),
(88,584,cs),
(103,629,o),
(131,671,o),
(170,697,cs),
(188,708,o),
(204,715,o),
(223,719,c),
(224,718,o),
(226,717,o),
(228,716,cs),
(242,711,o),
(256,704,o),
(269,695,c),
(310,673,o),
(335,631,o),
(349,587,cs),
(363,544,o),
(368,490,o),
(368,441,cs)
);
}
);
width = 528;
},
{
associatedMasterId = m01;
background = {
hints = (
{
horizontal = 1;
place = (2,25);
type = Stem;
},
{
horizontal = 1;
place = (722,26);
type = Stem;
},
{
place = (44,25);
type = Stem;
},
{
place = (368,26);
type = Stem;
},
{
place = (456,25);
type = Stem;
}
);
shapes = (
{
closed = 1;
nodes = (
(476,206,o),
(480,258,o),
(481,309,cs),
(481,398,l),
(481,442,ls),
(480,492,o),
(476,543,o),
(460,592,cs),
(444,641,o),
(414,688,o),
(367,718,cs),
(331,740,o),
(298,748,o),
(261,748,cs),
(219,748,o),
(188,737,o),
(157,718,cs),
(111,688,o),
(81,641,o),
(65,592,cs),
(49,543,o),
(44,492,o),
(44,442,cs),
(44,375,l),
(44,307,ls),
(44,257,o),
(49,206,o),
(65,157,cs),
(81,108,o),
(111,61,o),
(157,32,cs),
(188,12,o),
(219,2,o),
(261,2,cs),
(298,2,o),
(331,9,o),
(367,32,cs),
(414,61,o),
(444,108,o),
(460,157,cs)
);
},
{
closed = 1;
nodes = (
(283,30,ls),
(332,58,o),
(357,110,o),
(373,157,cs),
(389,204,o),
(394,260,o),
(394,311,cs),
(394,441,ls),
(394,492,o),
(389,548,o),
(373,595,cs),
(357,641,o),
(332,689,o),
(283,717,cs),
(274,722,l),
(301,721,o),
(327,714,o),
(354,697,cs),
(394,671,o),
(421,629,o),
(436,584,cs),
(451,539,o),
(455,491,o),
(456,442,cs),
(456,398,l),
(456,309,ls),
(456,259,o),
(451,210,o),
(436,165,cs),
(421,120,o),
(394,78,o),
(354,53,cs),
(328,36,o),
(304,29,o),
(278,27,c)
);
},
{
closed = 1;
nodes = (
(368,311,ls),
(368,262,o),
(363,208,o),
(349,165,cs),
(336,127,o),
(313,76,o),
(269,52,c),
(254,41,o),
(240,36,o),
(226,33,c),
(224,33,o),
(223,32,o),
(221,31,c),
(203,35,o),
(187,42,o),
(170,53,cs),
(131,78,o),
(103,120,o),
(88,165,cs),
(74,210,o),
(69,258,o),
(69,307,cs),
(69,331,o),
(68,353,o),
(68,375,cs),
(68,397,o),
(69,418,o),
(69,442,cs),
(69,491,o),
(74,539,o),
(88,584,cs),
(103,629,o),
(131,671,o),
(170,697,cs),
(188,708,o),
(204,715,o),
(223,719,c),
(224,718,o),
(226,717,o),
(228,716,cs),
(242,711,o),
(256,704,o),
(269,695,c),
(310,673,o),
(335,631,o),
(349,587,cs),
(363,544,o),
(368,490,o),
(368,441,cs)
);
}
);
};
layerId = "56906CB3-BCF9-458C-B024-FAB626385042";
name = "22 août 23 à 13:37";
shapes = (
{
closed = 1;
nodes = (
(54,270,ls),
(54,103,o),
(126,10,o),
(254,10,cs),
(268,10,ls),
(396,10,o),
(468,103,o),
(468,270,cs),
(468,477,ls),
(468,644,o),
(396,737,o),
(268,737,cs),
(254,737,ls),
(126,737,o),
(54,644,o),
(54,477,cs)
);
},
{
closed = 0;
nodes = (
(212,14,l),
(312,33,o),
(368,123,o),
(368,270,cs),
(368,477,ls),
(368,624,o),
(312,714,o),
(211,733,c)
);
}
);
width = 528;
},
{
associatedMasterId = m01;
background = {
hints = (
{
horizontal = 1;
place = (2,25);
type = Stem;
},
{
horizontal = 1;
place = (722,26);
type = Stem;
},
{
place = (44,25);
type = Stem;
},
{
place = (368,26);
type = Stem;
},
{
place = (456,25);
type = Stem;
}
);
shapes = (
{
closed = 1;
nodes = (
(476,206,o),
(480,258,o),
(481,309,cs),
(481,398,l),
(481,442,ls),
(480,492,o),
(476,543,o),
(460,592,cs),
(444,641,o),
(414,688,o),
(367,718,cs),
(331,740,o),
(298,748,o),
(261,748,cs),
(219,748,o),
(188,737,o),
(157,718,cs),
(111,688,o),
(81,641,o),
(65,592,cs),
(49,543,o),
(44,492,o),
(44,442,cs),
(44,375,l),
(44,307,ls),
(44,257,o),
(49,206,o),
(65,157,cs),
(81,108,o),
(111,61,o),
(157,32,cs),
(188,12,o),
(219,2,o),
(261,2,cs),
(298,2,o),
(331,9,o),
(367,32,cs),
(414,61,o),
(444,108,o),
(460,157,cs)
);
},
{
closed = 1;
nodes = (
(283,30,ls),
(332,58,o),
(357,110,o),
(373,157,cs),
(389,204,o),
(394,260,o),
(394,311,cs),
(394,441,ls),
(394,492,o),
(389,548,o),
(373,595,cs),
(357,641,o),
(332,689,o),
(283,717,cs),
(274,722,l),
(301,721,o),
(327,714,o),
(354,697,cs),
(394,671,o),
(421,629,o),
(436,584,cs),
(451,539,o),
(455,491,o),
(456,442,cs),
(456,398,l),
(456,309,ls),
(456,259,o),
(451,210,o),
(436,165,cs),
(421,120,o),
(394,78,o),
(354,53,cs),
(328,36,o),
(304,29,o),
(278,27,c)
);
},
{
closed = 1;
nodes = (
(368,311,ls),
(368,262,o),
(363,208,o),
(349,165,cs),
(336,127,o),
(313,76,o),
(269,52,c),
(254,41,o),
(240,36,o),
(226,33,c),
(224,33,o),
(223,32,o),
(221,31,c),
(203,35,o),
(187,42,o),
(170,53,cs),
(131,78,o),
(103,120,o),
(88,165,cs),
(74,210,o),
(69,258,o),
(69,307,cs),
(69,331,o),
(68,353,o),
(68,375,cs),
(68,397,o),
(69,418,o),
(69,442,cs),
(69,491,o),
(74,539,o),
(88,584,cs),
(103,629,o),
(131,671,o),
(170,697,cs),
(188,708,o),
(204,715,o),
(223,719,c),
(224,718,o),
(226,717,o),
(228,716,cs),
(242,711,o),
(256,704,o),
(269,695,c),
(310,673,o),
(335,631,o),
(349,587,cs),
(363,544,o),
(368,490,o),
(368,441,cs)
);
}
);
};
layerId = "1A7AC515-1221-4612-A1DA-875DDB2B8513";
name = "22 août 23 à 15:26";
shapes = (
{
closed = 1;
nodes = (
(54,270,ls),
(54,103,o),
(126,10,o),
(254,10,cs),
(268,10,ls),
(396,10,o),
(468,103,o),
(468,270,cs),
(468,477,ls),
(468,644,o),
(396,737,o),
(268,737,cs),
(254,737,ls),
(126,737,o),
(54,644,o),
(54,477,cs)
);
},
{
closed = 0;
nodes = (
(212,14,l),
(312,33,o),
(368,123,o),
(368,270,cs),
(368,477,ls),
(368,624,o),
(312,714,o),
(211,733,c)
);
}
);
width = 528;
},
{
anchors = (
{
name = bottom;
pos = (277,0);
},
{
name = center;
pos = (277,374);
},
{
name = ogonek;
pos = (499,10);
},
{
name = top;
pos = (277,747);
},
{
name = topleft;
pos = (20,747);
},
{
name = topright;
pos = (534,747);
}
);
associatedMasterId = m01;
background = {
hints = (
{
horizontal = 1;
place = (2,25);
type = Stem;
},
{
horizontal = 1;
place = (722,26);
type = Stem;
},
{
place = (44,25);
type = Stem;
},
{
place = (368,26);
type = Stem;
},
{
place = (456,25);
type = Stem;
}
);
shapes = (
{
closed = 1;
nodes = (
(492,206,o),
(496,258,o),
(497,309,cs),
(497,398,l),
(497,442,ls),
(496,492,o),
(492,543,o),
(476,592,cs),
(460,641,o),
(430,688,o),
(383,718,cs),
(347,740,o),
(314,748,o),
(277,748,cs),
(235,748,o),
(204,737,o),
(173,718,cs),
(127,688,o),
(97,641,o),
(81,592,cs),
(65,543,o),
(60,492,o),
(60,442,cs),
(60,375,l),
(60,307,ls),
(60,257,o),
(65,206,o),
(81,157,cs),
(97,108,o),
(127,61,o),
(173,32,cs),
(204,12,o),
(235,2,o),
(277,2,cs),
(314,2,o),
(347,9,o),
(383,32,cs),
(430,61,o),
(460,108,o),
(476,157,cs)
);
},
{
closed = 1;
nodes = (
(299,30,ls),
(348,58,o),
(373,110,o),
(389,157,cs),
(405,204,o),
(410,260,o),
(410,311,cs),
(410,441,ls),
(410,492,o),
(405,548,o),
(389,595,cs),
(373,641,o),
(348,689,o),
(299,717,cs),
(290,722,l),
(317,721,o),
(343,714,o),
(370,697,cs),
(410,671,o),
(437,629,o),
(452,584,cs),
(467,539,o),
(471,491,o),
(472,442,cs),
(472,398,l),
(472,309,ls),
(472,259,o),
(467,210,o),
(452,165,cs),
(437,120,o),
(410,78,o),
(370,53,cs),
(344,36,o),
(320,29,o),
(294,27,c)
);
},
{
closed = 1;
nodes = (
(384,311,ls),
(384,262,o),
(379,208,o),
(365,165,cs),
(352,127,o),
(329,76,o),
(285,52,c),
(270,41,o),
(256,36,o),
(242,33,c),
(240,33,o),
(239,32,o),
(237,31,c),
(219,35,o),
(203,42,o),
(186,53,cs),
(147,78,o),
(119,120,o),
(104,165,cs),
(90,210,o),
(85,258,o),
(85,307,cs),
(85,331,o),
(84,353,o),
(84,375,cs),
(84,397,o),
(85,418,o),
(85,442,cs),
(85,491,o),
(90,539,o),
(104,584,cs),
(119,629,o),
(147,671,o),
(186,697,cs),
(204,708,o),
(220,715,o),
(239,719,c),
(240,718,o),
(242,717,o),
(244,716,cs),
(258,711,o),
(272,704,o),
(285,695,c),
(326,673,o),
(351,631,o),
(365,587,cs),
(379,544,o),
(384,490,o),
(384,441,cs)
);
}
);
};
layerId = "732877BF-E199-41A6-9683-08B40B8E29EA";
name = "22 août 23 à 17:21";
shapes = (
{
closed = 1;
nodes = (
(70,270,ls),
(70,103,o),
(142,10,o),
(270,10,cs),
(284,10,ls),
(412,10,o),
(484,103,o),
(484,270,cs),
(484,477,ls),
(484,644,o),
(412,737,o),
(284,737,cs),
(270,737,ls),
(142,737,o),
(70,644,o),
(70,477,cs)
);
},
{
closed = 0;
nodes = (
(228,14,l),
(328,33,o),
(384,123,o),
(384,270,cs),
(384,477,ls),
(384,624,o),
(328,714,o),
(227,733,c)
);
}
);
width = 554;
}
);
note = O;
unicode = 79;
},
{
glyphname = Oslash;
kernLeft = O;
kernRight = O;
lastChange = "2023-09-04 14:13:34 +0000";
layers = (
{
background = {
shapes = (
{
closed = 1;
nodes = (
(180,700,o),
(37,541,o),
(37,350,cs),
(37,159,o),
(180,0,o),
(361,0,cs),
(542,0,o),
(685,159,o),
(685,350,cs),
(685,541,o),
(542,700,o),
(361,700,cs)
);
},
{
closed = 1;
nodes = (
(504,640,o),
(624,512,o),
(624,350,cs),
(624,188,o),
(504,60,o),
(360,60,cs),
(216,60,o),
(96,188,o),
(96,350,cs),
(96,512,o),
(216,640,o),
(360,640,cs)
);
},
{
closed = 1;
nodes = (
(278,195,ls),
(277,192,o),
(277,189,o),
(277,186,cs),
(277,170,o),
(289,156,o),
(307,156,cs),
(320,156,o),
(332,164,o),
(336,177,cs),
(444,519,ls),
(445,522,o),
(445,525,o),
(445,528,cs),
(445,544,o),
(433,558,o),
(415,558,cs),
(402,558,o),
(390,550,o),
(386,537,cs)
);
},
{
closed = 0;
nodes = (
(297,141,l),
(480,572,l)
);
}
);
};
hints = (
{
horizontal = 1;
place = (-30,60);
type = Stem;
},
{
horizontal = 1;
place = (610,60);
type = Stem;
},
{
place = (37,59);
type = Stem;
},
{
place = (624,61);
type = Stem;
},
{
horizontal = 1;
place = (747,-20);
target = down;
type = TopGhost;
},
{
place = (341.57,209.84);
type = Stem;
}
);
layerId = m01;
shapes = (
{
pos = (0,6);
ref = O;
},
{
closed = 1;
nodes = (
(269,168,l),
(268,164,o),
(267,160,o),
(267,156,cs),
(267,139,o),
(280,126,o),
(297,126,cs),
(309,126,o),
(320,134,o),
(325,144,cs),
(508,575,l),
(509,579,o),
(510,583,o),
(510,587,cs),
(510,604,o),
(497,617,o),
(480,617,cs),
(468,617,o),
(457,609,o),
(452,599,cs)
);
}
);
width = 800;
}
);
note = Oslash;
unicode = 216;
},
{
glyphname = OE;
kernLeft = O;
kernRight = E;
lastChange = "2023-09-04 14:13:34 +0000";
layers = (
{
anchors = (
{
name = bottom;
pos = (941,16);
},
{
name = ogonek;
pos = (1103,25);
},
{
name = top;
pos = (667,774);
},
{
name = topleft;
pos = (613,714);
}
);
layerId = m01;
shapes = (
{
ref = O;
},
{
closed = 1;
nodes = (
(1143,670,ls),
(1160,670,o),
(1173,683,o),
(1173,700,cs),
(1173,717,o),
(1160,730,o),
(1143,730,cs),
(667,730,ls),
(650,730,o),
(637,717,o),
(637,700,cs),
(637,683,o),
(650,670,o),
(667,670,cs)
);
},
{
closed = 1;
nodes = (
(797,395,ls),
(780,395,o),
(767,382,o),
(767,365,cs),
(767,348,o),
(780,335,o),
(797,335,cs),
(1081,335,ls),
(1098,335,o),
(1111,348,o),
(1111,365,cs),
(1111,382,o),
(1098,395,o),
(1081,395,cs)
);
},
{
closed = 1;
nodes = (
(667,60,ls),
(650,60,o),
(637,47,o),
(637,30,cs),
(637,13,o),
(650,0,o),
(667,0,cs),
(1143,0,ls),
(1160,0,o),
(1173,13,o),
(1173,30,cs),
(1173,47,o),
(1160,60,o),
(1143,60,cs)
);
}
);
width = 1233;
}
);
metricRight = E;
unicode = 338;
},
{
glyphname = P;
kernLeft = H;
kernRight = P;
lastChange = "2023-09-04 14:13:34 +0000";
layers = (
{
anchors = (
{
name = bottom;
pos = (328,16);
},
{
name = center;
pos = (328,366);
},
{
name = top;
pos = (328,774);
}
);
background = {
hints = (
{
horizontal = 1;
place = (350,25);
type = Stem;
},
{
horizontal = 1;
place = (722,26);
type = Stem;
},
{
place = (62,24);
type = Stem;
},
{
place = (284,26);
type = Stem;
},
{
place = (360,25);
type = Stem;
}
);
shapes = (
{
closed = 1;
nodes = (
(84,30,ls),
(84,13,o),
(97,0,o),
(114,0,cs),
(131,0,o),
(144,13,o),
(144,30,cs),
(144,670,ls),
(144,687,o),
(131,700,o),
(114,700,cs),
(97,700,o),
(84,687,o),
(84,670,cs)
);
},
{
closed = 1;
nodes = (
(215,700,ls),
(198,700,o),
(185,687,o),
(185,670,cs),
(185,653,o),
(198,640,o),
(215,640,cs),
(360,640,ls),
(470,640,o),
(498,559,o),
(498,494,cs),
(498,408,o),
(448,359,o),
(372,359,cs),
(218,359,ls),
(201,359,o),
(188,346,o),
(188,329,cs),
(188,312,o),
(201,299,o),
(218,299,cs),
(372,299,ls),
(476,299,o),
(558,369,o),
(558,494,cs),
(558,602,o),
(497,700,o),
(360,700,cs)
);
},
{
closed = 0;
nodes = (
(210,328,l),
(343,328,ls),
(478,328,o),
(527,413,o),
(527,508,cs),
(527,602,o),
(478,685,o),
(343,685,cs),
(288,685,l),
(210,685,l)
);
},
{
closed = 0;
nodes = (
(110,685,l),
(110,15,l)
);
}
);
};
layerId = m01;
shapes = (
{
closed = 1;
nodes = (
(288,670,l),
(343,670,ls),
(461,670,o),
(497,609,o),
(497,523,cs),
(497,436,o),
(461,373,o),
(343,373,cs),
(210,373,ls),
(193,373,o),
(180,360,o),
(180,343,cs),
(180,326,o),
(193,313,o),
(210,313,cs),
(343,313,ls),
(498,313,o),
(557,415,o),
(557,523,cs),
(557,631,o),
(498,730,o),
(343,730,cs),
(288,730,l),
(210,730,ls),
(193,730,o),
(180,717,o),
(180,700,cs),
(180,683,o),
(193,670,o),
(210,670,cs)
);
},
{
closed = 1;
nodes = (
(140,700,ls),
(140,717,o),
(127,730,o),
(110,730,cs),
(93,730,o),
(80,717,o),
(80,700,cs),
(80,30,ls),
(80,13,o),
(93,0,o),
(110,0,cs),
(127,0,o),
(140,13,o),
(140,30,cs)
);
}
);
width = 597;
},
{
associatedMasterId = m01;
hints = (
{
horizontal = 1;
place = (350,25);
type = Stem;
},
{
horizontal = 1;
place = (722,26);
type = Stem;
},
{
place = (62,24);
type = Stem;
},
{
place = (284,26);
type = Stem;
},
{
place = (360,25);
type = Stem;
}
);
layerId = "D43A8306-F57D-4135-9588-F0248A4508F9";
name = "22 août 23 à 12:50";
shapes = (
{
closed = 1;
nodes = (
(86,350,l),
(186,350,ls),
(238,350,o),
(289,371,o),
(326,408,cs),
(364,445,o),
(385,496,o),
(385,549,cs),
(386,601,o),
(364,657,o),
(320,697,cs),
(284,730,o),
(235,748,o),
(186,748,cs),
(74,748,ls),
(67,748,o),
(62,742,o),
(62,735,cs),
(62,15,ls),
(62,8,o),
(67,2,o),
(74,2,cs),
(81,2,o),
(86,8,o),
(86,15,cs)
);
},
{
closed = 1;
nodes = (
(86,375,l),
(86,722,l),
(107,722,ls),
(144,722,o),
(192,707,o),
(229,675,cs),
(266,642,o),
(284,596,o),
(284,549,cs),
(284,502,o),
(266,455,o),
(233,423,cs),
(201,391,o),
(155,376,o),
(107,376,cs),
(105,376,o),
(103,376,o),
(101,375,c)
);
},
{
closed = 1;
nodes = (
(227,385,o),
(240,394,o),
(251,405,cs),
(291,446,o),
(310,500,o),
(310,549,cs),
(310,602,o),
(288,656,o),
(245,693,cs),
(232,705,o),
(218,714,o),
(203,722,c),
(240,718,o),
(276,703,o),
(304,678,cs),
(342,643,o),
(361,594,o),
(360,549,cs),
(360,503,o),
(341,458,o),
(309,426,cs),
(282,399,o),
(248,383,o),
(214,378,c)
);
}
);
width = 422;
},
{
associatedMasterId = m01;
background = {
hints = (
{
horizontal = 1;
place = (350,25);
type = Stem;
},
{
horizontal = 1;
place = (722,26);
type = Stem;
},
{
place = (62,24);
type = Stem;
},
{
place = (284,26);
type = Stem;
},
{
place = (360,25);
type = Stem;
}
);
shapes = (
{
closed = 1;
nodes = (
(86,350,l),
(186,350,ls),
(238,350,o),
(289,371,o),
(326,408,cs),
(364,445,o),
(385,496,o),
(385,549,cs),
(386,601,o),
(364,657,o),
(320,697,cs),
(284,730,o),
(235,748,o),
(186,748,cs),
(74,748,ls),
(67,748,o),
(62,742,o),
(62,735,cs),
(62,15,ls),
(62,8,o),
(67,2,o),
(74,2,cs),
(81,2,o),
(86,8,o),
(86,15,cs)
);
},
{
closed = 1;
nodes = (
(86,375,l),
(86,722,l),
(107,722,ls),
(144,722,o),
(192,707,o),
(229,675,cs),
(266,642,o),
(284,596,o),
(284,549,cs),
(284,502,o),
(266,455,o),
(233,423,cs),
(201,391,o),
(155,376,o),
(107,376,cs),
(105,376,o),
(103,376,o),
(101,375,c)
);
},
{
closed = 1;
nodes = (
(227,385,o),
(240,394,o),
(251,405,cs),
(291,446,o),
(310,500,o),
(310,549,cs),
(310,602,o),
(288,656,o),
(245,693,cs),
(232,705,o),
(218,714,o),
(203,722,c),
(240,718,o),
(276,703,o),
(304,678,cs),
(342,643,o),
(361,594,o),
(360,549,cs),
(360,503,o),
(341,458,o),
(309,426,cs),
(282,399,o),
(248,383,o),
(214,378,c)
);
}
);
};
layerId = "8D8DAB1C-6042-4929-BB1B-2950F2B8BE90";
name = "22 août 23 à 13:37";
shapes = (
{
closed = 0;
nodes = (
(74,364,l),
(212,364,ls),
(308,364,o),
(372,445,o),
(372,542,cs),
(372,553,ls),
(372,652,o),
(308,732,o),
(212,732,cs),
(201,732,l),
(74,732,l),
(74,15,l)
);
},
{
closed = 0;
nodes = (
(141,364,ls),
(237,364,o),
(301,445,o),
(301,542,cs),
(301,553,ls),
(301,652,o),
(237,732,o),
(141,732,cs)
);
}
);
width = 422;
},
{
associatedMasterId = m01;
background = {
hints = (
{
horizontal = 1;
place = (350,25);
type = Stem;
},
{
horizontal = 1;
place = (722,26);
type = Stem;
},
{
place = (62,24);
type = Stem;
},
{
place = (284,26);
type = Stem;
},
{
place = (360,25);
type = Stem;
}
);
shapes = (
{
closed = 1;
nodes = (
(86,350,l),
(186,350,ls),
(238,350,o),
(289,371,o),
(326,408,cs),
(364,445,o),
(385,496,o),
(385,549,cs),
(386,601,o),
(364,657,o),
(320,697,cs),
(284,730,o),
(235,748,o),
(186,748,cs),
(74,748,ls),
(67,748,o),
(62,742,o),
(62,735,cs),
(62,15,ls),
(62,8,o),
(67,2,o),
(74,2,cs),
(81,2,o),
(86,8,o),
(86,15,cs)
);
},
{
closed = 1;
nodes = (
(86,375,l),
(86,722,l),
(107,722,ls),
(144,722,o),
(192,707,o),
(229,675,cs),
(266,642,o),
(284,596,o),
(284,549,cs),
(284,502,o),
(266,455,o),
(233,423,cs),
(201,391,o),
(155,376,o),
(107,376,cs),
(105,376,o),
(103,376,o),
(101,375,c)
);
},
{
closed = 1;
nodes = (
(227,385,o),
(240,394,o),
(251,405,cs),
(291,446,o),
(310,500,o),
(310,549,cs),
(310,602,o),
(288,656,o),
(245,693,cs),
(232,705,o),
(218,714,o),
(203,722,c),
(240,718,o),
(276,703,o),
(304,678,cs),
(342,643,o),
(361,594,o),
(360,549,cs),
(360,503,o),
(341,458,o),
(309,426,cs),
(282,399,o),
(248,383,o),
(214,378,c)
);
}
);
};
layerId = "85F12DB9-52C0-47D2-BA40-4E75E58A972B";
name = "22 août 23 à 15:26";
shapes = (
{
closed = 0;
nodes = (
(74,364,l),
(212,364,ls),
(308,364,o),
(372,445,o),
(372,542,cs),
(372,553,ls),
(372,652,o),
(308,732,o),
(212,732,cs),
(201,732,l),
(74,732,l),
(74,15,l)
);
},
{
closed = 0;
nodes = (
(141,364,ls),
(237,364,o),
(301,445,o),
(301,542,cs),
(301,553,ls),
(301,652,o),
(237,732,o),
(141,732,cs)
);
}
);
width = 422;
},
{
anchors = (
{
name = bottom;
pos = (214,0);
},
{
name = top;
pos = (214,747);
}
);
associatedMasterId = m01;
background = {
hints = (
{
horizontal = 1;
place = (350,25);
type = Stem;
},
{
horizontal = 1;
place = (722,26);
type = Stem;
},
{
place = (62,24);
type = Stem;
},
{
place = (284,26);
type = Stem;
},
{
place = (360,25);
type = Stem;
}
);
shapes = (
{
closed = 1;
nodes = (
(92,350,l),
(192,350,ls),
(244,350,o),
(295,371,o),
(332,408,cs),
(370,445,o),
(391,496,o),
(391,549,cs),
(392,601,o),
(370,657,o),
(326,697,cs),
(290,730,o),
(241,748,o),
(192,748,cs),
(80,748,ls),
(73,748,o),
(68,742,o),
(68,735,cs),
(68,15,ls),
(68,8,o),
(73,2,o),
(80,2,cs),
(87,2,o),
(92,8,o),
(92,15,cs)
);
},
{
closed = 1;
nodes = (
(92,375,l),
(92,722,l),
(113,722,ls),
(150,722,o),
(198,707,o),
(235,675,cs),
(272,642,o),
(290,596,o),
(290,549,cs),
(290,502,o),
(272,455,o),
(239,423,cs),
(207,391,o),
(161,376,o),
(113,376,cs),
(111,376,o),
(109,376,o),
(107,375,c)
);
},
{
closed = 1;
nodes = (
(233,385,o),
(246,394,o),
(257,405,cs),
(297,446,o),
(316,500,o),
(316,549,cs),
(316,602,o),
(294,656,o),
(251,693,cs),
(238,705,o),
(224,714,o),
(209,722,c),
(246,718,o),
(282,703,o),
(310,678,cs),
(348,643,o),
(367,594,o),
(366,549,cs),
(366,503,o),
(347,458,o),
(315,426,cs),
(288,399,o),
(254,383,o),
(220,378,c)
);
}
);
};
layerId = "9C279CC7-A704-4E82-B7E9-5481226B33F8";
name = "22 août 23 à 17:21";
shapes = (
{
closed = 0;
nodes = (
(80,364,l),
(218,364,ls),
(314,364,o),
(378,445,o),
(378,542,cs),
(378,553,ls),
(378,652,o),
(314,732,o),
(218,732,cs),
(207,732,l),
(80,732,l),
(80,15,l)
);
},
{
closed = 0;
nodes = (
(147,364,ls),
(243,364,o),
(307,445,o),
(307,542,cs),
(307,553,ls),
(307,652,o),
(243,732,o),
(147,732,cs)
);
}
);
width = 428;
}
);
note = P;
unicode = 80;
},
{
glyphname = Thorn;
kernLeft = H;
kernRight = Thorn;
lastChange = "2023-09-04 14:13:34 +0000";
layers = (
{
layerId = m01;
shapes = (
{
closed = 1;
nodes = (
(288,592,l),
(343,592,ls),
(461,592,o),
(497,531,o),
(497,445,cs),
(497,358,o),
(461,295,o),
(343,295,cs),
(210,295,ls),
(193,295,o),
(180,282,o),
(180,265,cs),
(180,248,o),
(193,235,o),
(210,235,cs),
(343,235,ls),
(498,235,o),
(557,337,o),
(557,445,cs),
(557,553,o),
(498,652,o),
(343,652,cs),
(288,652,l),
(210,652,ls),
(193,652,o),
(180,639,o),
(180,622,cs),
(180,605,o),
(193,592,o),
(210,592,cs)
);
},
{
closed = 1;
nodes = (
(140,700,ls),
(140,717,o),
(127,730,o),
(110,730,cs),
(93,730,o),
(80,717,o),
(80,700,cs),
(80,30,ls),
(80,13,o),
(93,0,o),
(110,0,cs),
(127,0,o),
(140,13,o),
(140,30,cs)
);
}
);
width = 637;
}
);
unicode = 222;
},
{
glyphname = Q;
kernLeft = O;
kernRight = O;
lastChange = "2023-09-04 14:13:34 +0000";
layers = (
{
anchors = (
{
name = bottom;
pos = (288,15);
},
{
name = top;
pos = (288,822);
}
);
background = {
hints = (
{
horizontal = 1;
place = (2,25);
type = Stem;
},
{
horizontal = 1;
place = (722,26);
type = Stem;
},
{
place = (44,25);
type = Stem;
},
{
place = (456,25);
type = Stem;
}
);
shapes = (
{
closed = 1;
nodes = (
(416,0,o),
(458,9,o),
(496,26,cs),
(507,31,o),
(514,42,o),
(514,54,cs),
(514,58,o),
(513,62,o),
(511,66,cs),
(506,77,o),
(495,84,o),
(483,84,cs),
(479,84,o),
(475,83,o),
(471,81,cs),
(440,67,o),
(406,59,o),
(371,59,cs),
(227,59,o),
(107,187,o),
(107,349,cs),
(107,511,o),
(227,639,o),
(371,639,cs),
(515,639,o),
(635,511,o),
(635,349,cs),
(635,296,o),
(622,246,o),
(599,203,cs),
(597,198,o),
(595,194,o),
(595,189,cs),
(595,173,o),
(607,158,o),
(626,158,cs),
(637,158,o),
(647,165,o),
(653,175,cs),
(680,226,o),
(696,285,o),
(696,348,cs),
(696,539,o),
(553,698,o),
(372,698,cs),
(191,698,o),
(48,539,o),
(48,348,cs),
(48,157,o),
(191,0,o),
(372,0,cs)
);
},
{
closed = 1;
nodes = (
(619,8,ls),
(625,2,o),
(633,-1,o),
(641,-1,cs),
(648,-1,o),
(656,2,o),
(662,8,cs),
(668,14,o),
(671,22,o),
(671,29,cs),
(671,37,o),
(668,45,o),
(662,51,cs),
(411,302,ls),
(405,308,o),
(397,311,o),
(390,311,cs),
(382,311,o),
(374,308,o),
(368,302,cs),
(362,296,o),
(359,288,o),
(359,281,cs),
(359,273,o),
(362,265,o),
(368,259,cs)
);
}
);
};
layerId = m01;
shapes = (
{
closed = 1;
nodes = (
(740,255,o),
(750,310,o),
(750,365,cs),
(750,565,o),
(624,735,o),
(400,735,cs),
(176,735,o),
(50,565,o),
(50,365,cs),
(50,165,o),
(176,-5,o),
(400,-5,cs),
(468,-4,o),
(529,12,o),
(578,40,cs),
(587,45,o),
(593,55,o),
(593,66,cs),
(593,83,o),
(580,96,o),
(563,96,cs),
(558,96,o),
(552,95,o),
(548,92,cs),
(507,68,o),
(459,56,o),
(400,55,cs),
(210,55,o),
(110,189,o),
(110,365,cs),
(110,541,o),
(210,675,o),
(400,675,cs),
(590,675,o),
(690,541,o),
(690,365,cs),
(690,316,o),
(682,271,o),
(665,229,cs),
(664,226,o),
(663,222,o),
(663,218,cs),
(663,201,o),
(676,188,o),
(693,188,cs),
(706,188,o),
(716,196,o),
(721,207,cs)
);
},
{
closed = 1;
nodes = (
(453,355,l),
(448,361,o),
(440,364,o),
(432,364,cs),
(415,364,o),
(402,351,o),
(402,334,cs),
(402,326,o),
(405,318,o),
(411,313,cs),
(719,10,l),
(724,4,o),
(732,1,o),
(740,1,cs),
(757,1,o),
(770,14,o),
(770,31,cs),
(770,39,o),
(767,47,o),
(761,52,cs)
);
}
);
width = 800;
},
{
associatedMasterId = m01;
hints = (
{
horizontal = 1;
place = (2,25);
type = Stem;
},
{
horizontal = 1;
place = (722,26);
type = Stem;
},
{
place = (44,25);
type = Stem;
},
{
place = (456,25);
type = Stem;
}
);
layerId = "083CBB49-3591-445E-A7CC-406924069F0B";
name = "22 août 23 à 12:50";
shapes = (
{
closed = 1;
nodes = (
(454,-46,ls),
(458,-52,o),
(465,-54,o),
(471,-51,cs),
(477,-47,o),
(479,-40,o),
(476,-34,cs),
(413,72,l),
(435,97,o),
(450,127,o),
(460,157,cs),
(476,206,o),
(480,258,o),
(481,309,cs),
(481,398,l),
(481,442,ls),
(480,492,o),
(476,543,o),
(460,592,cs),
(444,641,o),
(414,688,o),
(367,718,cs),
(331,740,o),
(298,748,o),
(261,748,cs),
(219,748,o),
(188,737,o),
(157,718,cs),
(111,688,o),
(81,641,o),
(65,592,cs),
(49,543,o),
(44,492,o),
(44,442,cs),
(44,375,l),
(44,307,ls),
(44,257,o),
(49,206,o),
(65,157,cs),
(81,108,o),
(111,61,o),
(157,32,cs),
(188,12,o),
(219,2,o),
(261,2,cs),
(280,2,o),
(298,4,o),
(316,9,c),
(353,-52,l),
(357,-57,o),
(365,-59,o),
(371,-56,c),
(376,-52,o),
(378,-44,o),
(375,-38,cs),
(340,17,l),
(349,21,o),
(358,26,o),
(367,32,cs),
(377,38,o),
(387,45,o),
(395,53,c)
);
},
{
closed = 1;
nodes = (
(335,204,ls),
(331,210,o),
(324,212,o),
(318,209,cs),
(312,205,o),
(310,198,o),
(313,192,cs),
(382,75,l),
(374,67,o),
(364,59,o),
(354,53,cs),
(345,47,o),
(336,42,o),
(327,39,c),
(229,197,l),
(225,202,o),
(217,204,o),
(211,201,c),
(206,197,o),
(204,189,o),
(207,183,cs),
(302,31,l),
(289,28,o),
(275,27,o),
(261,27,cs),
(223,27,o),
(199,35,o),
(170,53,cs),
(131,78,o),
(103,120,o),
(88,165,cs),
(74,210,o),
(69,258,o),
(69,307,cs),
(69,331,o),
(68,353,o),
(68,375,cs),
(68,397,o),
(69,418,o),
(69,442,cs),
(69,491,o),
(74,539,o),
(88,584,cs),
(103,629,o),
(131,671,o),
(170,697,cs),
(199,714,o),
(223,722,o),
(261,722,cs),
(293,722,o),
(323,716,o),
(354,697,cs),
(394,671,o),
(421,629,o),
(436,584,cs),
(451,539,o),
(455,491,o),
(456,442,cs),
(456,398,l),
(456,309,ls),
(456,259,o),
(451,210,o),
(436,165,cs),
(428,140,o),
(416,116,o),
(400,95,c)
);
}
);
width = 531;
},
{
associatedMasterId = m01;
background = {
hints = (
{
horizontal = 1;
place = (2,25);
type = Stem;
},
{
horizontal = 1;
place = (722,26);
type = Stem;
},
{
place = (44,25);
type = Stem;
},
{
place = (456,25);
type = Stem;
}
);
shapes = (
{
closed = 1;
nodes = (
(454,-46,ls),
(458,-52,o),
(465,-54,o),
(471,-51,cs),
(477,-47,o),
(479,-40,o),
(476,-34,cs),
(413,72,l),
(435,97,o),
(450,127,o),
(460,157,cs),
(476,206,o),
(480,258,o),
(481,309,cs),
(481,398,l),
(481,442,ls),
(480,492,o),
(476,543,o),
(460,592,cs),
(444,641,o),
(414,688,o),
(367,718,cs),
(331,740,o),
(298,748,o),
(261,748,cs),
(219,748,o),
(188,737,o),
(157,718,cs),
(111,688,o),
(81,641,o),
(65,592,cs),
(49,543,o),
(44,492,o),
(44,442,cs),
(44,375,l),
(44,307,ls),
(44,257,o),
(49,206,o),
(65,157,cs),
(81,108,o),
(111,61,o),
(157,32,cs),
(188,12,o),
(219,2,o),
(261,2,cs),
(280,2,o),
(298,4,o),
(316,9,c),
(353,-52,l),
(357,-57,o),
(365,-59,o),
(371,-56,c),
(376,-52,o),
(378,-44,o),
(375,-38,cs),
(340,17,l),
(349,21,o),
(358,26,o),
(367,32,cs),
(377,38,o),
(387,45,o),
(395,53,c)
);
},
{
closed = 1;
nodes = (
(335,204,ls),
(331,210,o),
(324,212,o),
(318,209,cs),
(312,205,o),
(310,198,o),
(313,192,cs),
(382,75,l),
(374,67,o),
(364,59,o),
(354,53,cs),
(345,47,o),
(336,42,o),
(327,39,c),
(229,197,l),
(225,202,o),
(217,204,o),
(211,201,c),
(206,197,o),
(204,189,o),
(207,183,cs),
(302,31,l),
(289,28,o),
(275,27,o),
(261,27,cs),
(223,27,o),
(199,35,o),
(170,53,cs),
(131,78,o),
(103,120,o),
(88,165,cs),
(74,210,o),
(69,258,o),
(69,307,cs),
(69,331,o),
(68,353,o),
(68,375,cs),
(68,397,o),
(69,418,o),
(69,442,cs),
(69,491,o),
(74,539,o),
(88,584,cs),
(103,629,o),
(131,671,o),
(170,697,cs),
(199,714,o),
(223,722,o),
(261,722,cs),
(293,722,o),
(323,716,o),
(354,697,cs),
(394,671,o),
(421,629,o),
(436,584,cs),
(451,539,o),
(455,491,o),
(456,442,cs),
(456,398,l),
(456,309,ls),
(456,259,o),
(451,210,o),
(436,165,cs),
(428,140,o),
(416,116,o),
(400,95,c)
);
}
);
};
layerId = "E6DDAC0E-C076-4A15-8365-EA0924DD78FB";
name = "22 août 23 à 13:37";
shapes = (
{
closed = 0;
nodes = (
(211,201,l),
(371,-56,l)
);
},
{
closed = 0;
nodes = (
(323,201,l),
(483,-56,l)
);
}
);
width = 531;
},
{
associatedMasterId = m01;
background = {
hints = (
{
horizontal = 1;
place = (2,25);
type = Stem;
},
{
horizontal = 1;
place = (722,26);
type = Stem;
},
{
place = (44,25);
type = Stem;
},
{
place = (456,25);
type = Stem;
}
);
shapes = (
{
closed = 1;
nodes = (
(454,-46,ls),
(458,-52,o),
(465,-54,o),
(471,-51,cs),
(477,-47,o),
(479,-40,o),
(476,-34,cs),
(413,72,l),
(435,97,o),
(450,127,o),
(460,157,cs),
(476,206,o),
(480,258,o),
(481,309,cs),
(481,398,l),
(481,442,ls),
(480,492,o),
(476,543,o),
(460,592,cs),
(444,641,o),
(414,688,o),
(367,718,cs),
(331,740,o),
(298,748,o),
(261,748,cs),
(219,748,o),
(188,737,o),
(157,718,cs),
(111,688,o),
(81,641,o),
(65,592,cs),
(49,543,o),
(44,492,o),
(44,442,cs),
(44,375,l),
(44,307,ls),
(44,257,o),
(49,206,o),
(65,157,cs),
(81,108,o),
(111,61,o),
(157,32,cs),
(188,12,o),
(219,2,o),
(261,2,cs),
(280,2,o),
(298,4,o),
(316,9,c),
(353,-52,l),
(357,-57,o),
(365,-59,o),
(371,-56,c),
(376,-52,o),
(378,-44,o),
(375,-38,cs),
(340,17,l),
(349,21,o),
(358,26,o),
(367,32,cs),
(377,38,o),
(387,45,o),
(395,53,c)
);
},
{
closed = 1;
nodes = (
(335,204,ls),
(331,210,o),
(324,212,o),
(318,209,cs),
(312,205,o),
(310,198,o),
(313,192,cs),
(382,75,l),
(374,67,o),
(364,59,o),
(354,53,cs),
(345,47,o),
(336,42,o),
(327,39,c),
(229,197,l),
(225,202,o),
(217,204,o),
(211,201,c),
(206,197,o),
(204,189,o),
(207,183,cs),
(302,31,l),
(289,28,o),
(275,27,o),
(261,27,cs),
(223,27,o),
(199,35,o),
(170,53,cs),
(131,78,o),
(103,120,o),
(88,165,cs),
(74,210,o),
(69,258,o),
(69,307,cs),
(69,331,o),
(68,353,o),
(68,375,cs),
(68,397,o),
(69,418,o),
(69,442,cs),
(69,491,o),
(74,539,o),
(88,584,cs),
(103,629,o),
(131,671,o),
(170,697,cs),
(199,714,o),
(223,722,o),
(261,722,cs),
(293,722,o),
(323,716,o),
(354,697,cs),
(394,671,o),
(421,629,o),
(436,584,cs),
(451,539,o),
(455,491,o),
(456,442,cs),
(456,398,l),
(456,309,ls),
(456,259,o),
(451,210,o),
(436,165,cs),
(428,140,o),
(416,116,o),
(400,95,c)
);
}
);
};
layerId = "950DD6BE-CD46-4E9D-9BC7-C72F2DC9DB45";
name = "22 août 23 à 15:26";
shapes = (
{
closed = 0;
nodes = (
(211,201,l),
(371,-56,l)
);
},
{
closed = 0;
nodes = (
(323,201,l),
(483,-56,l)
);
}
);
width = 531;
},
{
anchors = (
{
name = bottom;
pos = (277,0);
},
{
name = top;
pos = (277,747);
}
);
associatedMasterId = m01;
background = {
hints = (
{
horizontal = 1;
place = (2,25);
type = Stem;
},
{
horizontal = 1;
place = (722,26);
type = Stem;
},
{
place = (44,25);
type = Stem;
},
{
place = (456,25);
type = Stem;
}
);
shapes = (
{
closed = 1;
nodes = (
(454,-46,ls),
(458,-52,o),
(465,-54,o),
(471,-51,cs),
(477,-47,o),
(479,-40,o),
(476,-34,cs),
(413,72,l),
(435,97,o),
(450,127,o),
(460,157,cs),
(476,206,o),
(480,258,o),
(481,309,cs),
(481,398,l),
(481,442,ls),
(480,492,o),
(476,543,o),
(460,592,cs),
(444,641,o),
(414,688,o),
(367,718,cs),
(331,740,o),
(298,748,o),
(261,748,cs),
(219,748,o),
(188,737,o),
(157,718,cs),
(111,688,o),
(81,641,o),
(65,592,cs),
(49,543,o),
(44,492,o),
(44,442,cs),
(44,375,l),
(44,307,ls),
(44,257,o),
(49,206,o),
(65,157,cs),
(81,108,o),
(111,61,o),
(157,32,cs),
(188,12,o),
(219,2,o),
(261,2,cs),
(280,2,o),
(298,4,o),
(316,9,c),
(353,-52,l),
(357,-57,o),
(365,-59,o),
(371,-56,c),
(376,-52,o),
(378,-44,o),
(375,-38,cs),
(340,17,l),
(349,21,o),
(358,26,o),
(367,32,cs),
(377,38,o),
(387,45,o),
(395,53,c)
);
},
{
closed = 1;
nodes = (
(335,204,ls),
(331,210,o),
(324,212,o),
(318,209,cs),
(312,205,o),
(310,198,o),
(313,192,cs),
(382,75,l),
(374,67,o),
(364,59,o),
(354,53,cs),
(345,47,o),
(336,42,o),
(327,39,c),
(229,197,l),
(225,202,o),
(217,204,o),
(211,201,c),
(206,197,o),
(204,189,o),
(207,183,cs),
(302,31,l),
(289,28,o),
(275,27,o),
(261,27,cs),
(223,27,o),
(199,35,o),
(170,53,cs),
(131,78,o),
(103,120,o),
(88,165,cs),
(74,210,o),
(69,258,o),
(69,307,cs),
(69,331,o),
(68,353,o),
(68,375,cs),
(68,397,o),
(69,418,o),
(69,442,cs),
(69,491,o),
(74,539,o),
(88,584,cs),
(103,629,o),
(131,671,o),
(170,697,cs),
(199,714,o),
(223,722,o),
(261,722,cs),
(293,722,o),
(323,716,o),
(354,697,cs),
(394,671,o),
(421,629,o),
(436,584,cs),
(451,539,o),
(455,491,o),
(456,442,cs),
(456,398,l),
(456,309,ls),
(456,259,o),
(451,210,o),
(436,165,cs),
(428,140,o),
(416,116,o),
(400,95,c)
);
}
);
};
layerId = "F9AA824F-3898-4D0B-80D5-435B3D18A339";
name = "22 août 23 à 17:21";
shapes = (
{
closed = 0;
nodes = (
(211,201,l),
(371,-56,l)
);
},
{
closed = 0;
nodes = (
(323,201,l),
(483,-56,l)
);
}
);
width = 554;
}
);
note = Q;
unicode = 81;
},
{
glyphname = R;
kernLeft = H;
kernRight = R;
lastChange = "2023-09-04 14:21:45 +0000";
layers = (
{
anchors = (
{
name = bottom;
pos = (343,16);
},
{
name = top;
pos = (314,774);
}
);
background = {
hints = (
{
horizontal = 1;
place = (274,24);
type = Stem;
},
{
horizontal = 1;
place = (382,24);
type = Stem;
},
{
horizontal = 1;
place = (722,25);
type = Stem;
},
{
place = (62,24);
type = Stem;
},
{
place = (384,25);
type = Stem;
},
{
place = (357,24);
type = Stem;
}
);
shapes = (
{
closed = 1;
nodes = (
(84,30,ls),
(84,13,o),
(97,0,o),
(114,0,cs),
(131,0,o),
(144,13,o),
(144,30,cs),
(144,670,ls),
(144,687,o),
(131,700,o),
(114,700,cs),
(97,700,o),
(84,687,o),
(84,670,cs)
);
},
{
closed = 1;
nodes = (
(214,700,ls),
(197,700,o),
(184,687,o),
(184,670,cs),
(184,653,o),
(197,640,o),
(214,640,cs),
(372,640,ls),
(468,640,o),
(499,588,o),
(499,518,cs),
(499,456,o),
(474,399,o),
(374,399,cs),
(220,399,ls),
(203,399,o),
(190,386,o),
(190,369,cs),
(190,352,o),
(203,339,o),
(220,339,cs),
(374,339,ls),
(483,339,o),
(559,397,o),
(559,517,cs),
(559,638,o),
(484,700,o),
(372,700,cs)
);
},
{
closed = 1;
nodes = (
(542,8,ls),
(548,3,o),
(555,0,o),
(563,0,cs),
(571,0,o),
(578,3,o),
(584,9,cs),
(589,15,o),
(592,22,o),
(592,30,cs),
(592,38,o),
(589,45,o),
(583,51,cs),
(309,311,ls),
(303,316,o),
(296,319,o),
(288,319,cs),
(280,319,o),
(273,316,o),
(267,310,cs),
(262,304,o),
(259,297,o),
(259,289,cs),
(259,281,o),
(262,274,o),
(268,268,cs)
);
},
{
closed = 0;
nodes = (
(110,367,l),
(343,367,ls),
(478,367,o),
(527,442,o),
(527,527,cs),
(527,611,o),
(478,685,o),
(343,685,cs),
(288,685,l),
(110,685,l),
(110,15,l)
);
},
{
closed = 0;
nodes = (
(579,15,l),
(210,365,l)
);
}
);
};
layerId = m01;
shapes = (
{
closed = 1;
nodes = (
(288,670,l),
(343,670,ls),
(462,670,o),
(497,617,o),
(497,542,cs),
(497,466,o),
(462,412,o),
(343,412,cs),
(210,412,ls),
(193,412,o),
(180,399,o),
(180,382,cs),
(180,365,o),
(193,352,o),
(210,352,cs),
(343,352,ls),
(498,352,o),
(557,444,o),
(557,542,cs),
(557,639,o),
(498,730,o),
(343,730,cs),
(288,730,l),
(210,730,ls),
(193,730,o),
(180,717,o),
(180,700,cs),
(180,683,o),
(193,670,o),
(210,670,cs)
);
},
{
closed = 1;
nodes = (
(140,700,ls),
(140,717,o),
(127,730,o),
(110,730,cs),
(93,730,o),
(80,717,o),
(80,700,cs),
(80,30,ls),
(80,13,o),
(93,0,o),
(110,0,cs),
(127,0,o),
(140,13,o),
(140,30,cs)
);
},
{
closed = 1;
nodes = (
(535,13,ls),
(540,5,o),
(549,0,o),
(559,0,cs),
(579,0,o),
(592,11,o),
(592,30,cs),
(592,36,o),
(590,42,o),
(586,47,cs),
(393,318,ls),
(387,327,o),
(379,331,o),
(366,331,cs),
(349,331,o),
(336,318,o),
(336,301,cs),
(336,295,o),
(338,289,o),
(342,284,cs)
);
}
);
width = 609;
},
{
associatedMasterId = m01;
hints = (
{
horizontal = 1;
place = (274,24);
type = Stem;
},
{
horizontal = 1;
place = (382,24);
type = Stem;
},
{
horizontal = 1;
place = (722,25);
type = Stem;
},
{
place = (62,24);
type = Stem;
},
{
place = (384,25);
type = Stem;
},
{
place = (357,24);
type = Stem;
}
);
layerId = "BF68F213-054C-4C4E-9A4B-D653BFCB1183";
name = "22 août 23 à 12:50";
shapes = (
{
closed = 1;
nodes = (
(86,274,l),
(252,274,l),
(357,10,ls),
(360,4,o),
(367,1,o),
(374,3,cs),
(380,6,o),
(383,13,o),
(381,20,c),
(235,382,l),
(278,385,o),
(321,402,o),
(353,432,cs),
(388,466,o),
(409,514,o),
(409,564,cs),
(409,614,o),
(389,662,o),
(353,696,cs),
(319,729,o),
(273,748,o),
(226,748,cs),
(224,748,o),
(222,748,o),
(219,747,c),
(74,747,ls),
(67,747,o),
(62,742,o),
(62,735,cs),
(62,15,ls),
(62,8,o),
(67,2,o),
(74,2,cs),
(81,2,o),
(86,8,o),
(86,15,cs)
);
},
{
closed = 1;
nodes = (
(86,406,l),
(86,722,l),
(219,722,l),
(222,723,o),
(224,723,o),
(226,723,cs),
(266,723,o),
(307,706,o),
(336,678,cs),
(366,649,o),
(384,607,o),
(384,564,cs),
(384,521,o),
(366,479,o),
(335,450,cs),
(305,421,o),
(262,406,o),
(219,406,cs)
);
},
{
closed = 1;
nodes = (
(242,298,l),
(86,298,l),
(86,382,l),
(209,382,l)
);
}
);
width = 452;
},
{
associatedMasterId = m01;
background = {
hints = (
{
horizontal = 1;
place = (274,24);
type = Stem;
},
{
horizontal = 1;
place = (382,24);
type = Stem;
},
{
horizontal = 1;
place = (722,25);
type = Stem;
},
{
place = (62,24);
type = Stem;
},
{
place = (384,25);
type = Stem;
},
{
place = (357,24);
type = Stem;
}
);
shapes = (
{
closed = 1;
nodes = (
(86,274,l),
(252,274,l),
(357,10,ls),
(360,4,o),
(367,1,o),
(374,3,cs),
(380,6,o),
(383,13,o),
(381,20,c),
(235,382,l),
(278,385,o),
(321,402,o),
(353,432,cs),
(388,466,o),
(409,514,o),
(409,564,cs),
(409,614,o),
(389,662,o),
(353,696,cs),
(319,729,o),
(273,748,o),
(226,748,cs),
(224,748,o),
(222,748,o),
(219,747,c),
(74,747,ls),
(67,747,o),
(62,742,o),
(62,735,cs),
(62,15,ls),
(62,8,o),
(67,2,o),
(74,2,cs),
(81,2,o),
(86,8,o),
(86,15,cs)
);
},
{
closed = 1;
nodes = (
(86,406,l),
(86,722,l),
(219,722,l),
(222,723,o),
(224,723,o),
(226,723,cs),
(266,723,o),
(307,706,o),
(336,678,cs),
(366,649,o),
(384,607,o),
(384,564,cs),
(384,521,o),
(366,479,o),
(335,450,cs),
(305,421,o),
(262,406,o),
(219,406,cs)
);
},
{
closed = 1;
nodes = (
(242,298,l),
(86,298,l),
(86,382,l),
(209,382,l)
);
}
);
};
layerId = "15C92AF1-F1C3-472C-B7DE-74CFFD5DA7FA";
name = "22 août 23 à 13:37";
shapes = (
{
closed = 0;
nodes = (
(74,393,l),
(237,393,ls),
(333,393,o),
(397,468,o),
(397,557,cs),
(397,567,ls),
(397,658,o),
(333,732,o),
(237,732,cs),
(201,732,l),
(74,732,l),
(74,15,l)
);
},
{
closed = 0;
nodes = (
(405,0,l),
(219,394,l)
);
},
{
closed = 0;
nodes = (
(75,286,l),
(269,286,l)
);
}
);
width = 452;
},
{
associatedMasterId = m01;
background = {
hints = (
{
horizontal = 1;
place = (274,24);
type = Stem;
},
{
horizontal = 1;
place = (382,24);
type = Stem;
},
{
horizontal = 1;
place = (722,25);
type = Stem;
},
{
place = (62,24);
type = Stem;
},
{
place = (384,25);
type = Stem;
},
{
place = (357,24);
type = Stem;
}
);
shapes = (
{
closed = 1;
nodes = (
(86,274,l),
(252,274,l),
(357,10,ls),
(360,4,o),
(367,1,o),
(374,3,cs),
(380,6,o),
(383,13,o),
(381,20,c),
(235,382,l),
(278,385,o),
(321,402,o),
(353,432,cs),
(388,466,o),
(409,514,o),
(409,564,cs),
(409,614,o),
(389,662,o),
(353,696,cs),
(319,729,o),
(273,748,o),
(226,748,cs),
(224,748,o),
(222,748,o),
(219,747,c),
(74,747,ls),
(67,747,o),
(62,742,o),
(62,735,cs),
(62,15,ls),
(62,8,o),
(67,2,o),
(74,2,cs),
(81,2,o),
(86,8,o),
(86,15,cs)
);
},
{
closed = 1;
nodes = (
(86,406,l),
(86,722,l),
(219,722,l),
(222,723,o),
(224,723,o),
(226,723,cs),
(266,723,o),
(307,706,o),
(336,678,cs),
(366,649,o),
(384,607,o),
(384,564,cs),
(384,521,o),
(366,479,o),
(335,450,cs),
(305,421,o),
(262,406,o),
(219,406,cs)
);
},
{
closed = 1;
nodes = (
(242,298,l),
(86,298,l),
(86,382,l),
(209,382,l)
);
}
);
};
layerId = "08D1B2EF-3FEB-4FB9-A3BF-25DFB266687B";
name = "22 août 23 à 15:26";
shapes = (
{
closed = 0;
nodes = (
(74,393,l),
(237,393,ls),
(333,393,o),
(397,468,o),
(397,557,cs),
(397,567,ls),
(397,658,o),
(333,732,o),
(237,732,cs),
(201,732,l),
(74,732,l),
(74,15,l)
);
},
{
closed = 0;
nodes = (
(405,15,l),
(219,394,l)
);
},
{
closed = 0;
nodes = (
(75,286,l),
(272,286,l)
);
}
);
width = 452;
},
{
anchors = (
{
name = bottom;
pos = (226,0);
},
{
name = top;
pos = (226,747);
}
);
associatedMasterId = m01;
background = {
hints = (
{
horizontal = 1;
place = (274,24);
type = Stem;
},
{
horizontal = 1;
place = (382,24);
type = Stem;
},
{
horizontal = 1;
place = (722,25);
type = Stem;
},
{
place = (62,24);
type = Stem;
},
{
place = (384,25);
type = Stem;
},
{
place = (357,24);
type = Stem;
}
);
shapes = (
{
closed = 1;
nodes = (
(92,274,l),
(258,274,l),
(363,10,ls),
(366,4,o),
(373,1,o),
(380,3,cs),
(386,6,o),
(389,13,o),
(387,20,c),
(241,382,l),
(284,385,o),
(327,402,o),
(359,432,cs),
(394,466,o),
(415,514,o),
(415,564,cs),
(415,614,o),
(395,662,o),
(359,696,cs),
(325,729,o),
(279,748,o),
(232,748,cs),
(230,748,o),
(228,748,o),
(225,747,c),
(80,747,ls),
(73,747,o),
(68,742,o),
(68,735,cs),
(68,15,ls),
(68,8,o),
(73,2,o),
(80,2,cs),
(87,2,o),
(92,8,o),
(92,15,cs)
);
},
{
closed = 1;
nodes = (
(92,406,l),
(92,722,l),
(225,722,l),
(228,723,o),
(230,723,o),
(232,723,cs),
(272,723,o),
(313,706,o),
(342,678,cs),
(372,649,o),
(390,607,o),
(390,564,cs),
(390,521,o),
(372,479,o),
(341,450,cs),
(311,421,o),
(268,406,o),
(225,406,cs)
);
},
{
closed = 1;
nodes = (
(248,298,l),
(92,298,l),
(92,382,l),
(215,382,l)
);
}
);
};
layerId = "9F869D4A-B71C-4616-BFD4-CCCA33F6FDD2";
name = "22 août 23 à 17:21";
shapes = (
{
closed = 0;
nodes = (
(80,393,l),
(243,393,ls),
(339,393,o),
(403,468,o),
(403,557,cs),
(403,567,ls),
(403,658,o),
(339,732,o),
(243,732,cs),
(207,732,l),
(80,732,l),
(80,15,l)
);
},
{
closed = 0;
nodes = (
(411,15,l),
(225,394,l)
);
},
{
closed = 0;
nodes = (
(81,286,l),
(278,286,l)
);
}
);
width = 451;
}
);
note = R;
unicode = 82;
},
{
glyphname = S;
kernLeft = S;
kernRight = S;
lastChange = "2023-09-04 14:20:49 +0000";
layers = (
{
anchors = (
{
name = bottom;
pos = (312,16);
},
{
name = top;
pos = (312,774);
}
);
background = {
hints = (
{
horizontal = 1;
place = (2,25);
type = Stem;
},
{
horizontal = 1;
place = (638,24);
type = Stem;
},
{
horizontal = 1;
place = (722,26);
type = Stem;
},
{
place = (25,25);
type = Stem;
},
{
place = (373,25);
type = Stem;
},
{
place = (49,25);
type = Stem;
}
);
shapes = (
{
closed = 1;
nodes = (
(170,699,o),
(103,622,o),
(103,544,cs),
(103,527,o),
(117,514,o),
(134,514,cs),
(150,514,o),
(163,527,o),
(164,543,cs),
(169,603,o),
(222,639,o),
(290,639,cs),
(362,639,o),
(431,593,o),
(435,520,cs),
(436,504,o),
(449,491,o),
(465,491,cs),
(483,491,o),
(497,505,o),
(496,523,cs),
(490,627,o),
(398,699,o),
(289,699,cs)
);
},
{
closed = 1;
nodes = (
(152,491,o),
(146,489,o),
(141,486,cs),
(132,480,o),
(127,471,o),
(127,461,cs),
(127,456,o),
(129,450,o),
(132,445,cs),
(166,389,o),
(216,359,o),
(278,337,cs),
(325,320,o),
(372,310,o),
(407,285,cs),
(414,280,o),
(421,274,o),
(427,268,cs),
(433,262,o),
(441,258,o),
(449,258,cs),
(456,258,o),
(463,261,o),
(469,266,cs),
(475,272,o),
(479,280,o),
(479,288,cs),
(479,295,o),
(476,302,o),
(471,308,cs),
(462,317,o),
(452,325,o),
(442,332,cs),
(398,364,o),
(342,377,o),
(299,393,cs),
(245,412,o),
(213,434,o),
(182,477,cs),
(176,486,o),
(167,491,o),
(157,491,cs)
);
},
{
closed = 1;
nodes = (
(291,1,ls),
(414,1,o),
(518,72,o),
(518,190,cs),
(518,207,o),
(504,220,o),
(487,220,cs),
(470,220,o),
(457,206,o),
(457,189,cs),
(457,100,o),
(374,59,o),
(293,59,cs),
(292,59,ls),
(200,59,o),
(108,112,o),
(108,208,cs),
(108,226,o),
(94,240,o),
(76,240,cs),
(60,240,o),
(47,227,o),
(46,211,cs),
(46,84,o),
(154,1,o),
(290,1,cs)
);
},
{
closed = 0;
nodes = (
(70,227,l),
(70,94,o),
(153,10,o),
(287,10,cs),
(421,10,o),
(505,94,o),
(505,227,c)
);
},
{
closed = 0;
nodes = (
(482,505,l),
(482,619,o),
(411,690,o),
(297,690,cs),
(183,690,o),
(112,619,o),
(112,505,c)
);
},
{
closed = 0;
nodes = (
(70,227,l),
(70,94,o),
(153,10,o),
(287,10,cs),
(421,10,o),
(505,84,o),
(505,197,cs),
(505,428,o),
(112,314,o),
(112,535,cs),
(112,619,o),
(183,690,o),
(297,690,cs),
(411,690,o),
(482,619,o),
(482,505,c)
);
}
);
};
layerId = m01;
shapes = (
{
closed = 1;
nodes = (
(166,55,o),
(100,121,o),
(100,242,cs),
(100,259,o),
(87,272,o),
(70,272,cs),
(53,272,o),
(40,259,o),
(40,242,cs),
(40,92,o),
(136,-5,o),
(247,-5,cs),
(264,-5,o),
(277,8,o),
(277,25,cs),
(277,42,o),
(264,55,o),
(247,55,cs)
);
},
{
closed = 1;
nodes = (
(512,651,o),
(428,735,o),
(337,735,cs),
(320,735,o),
(307,722,o),
(307,705,cs),
(307,688,o),
(320,675,o),
(337,675,cs),
(399,675,o),
(452,622,o),
(452,520,cs),
(452,503,o),
(465,490,o),
(482,490,cs),
(499,490,o),
(512,503,o),
(512,520,cs)
);
},
{
closed = 1;
nodes = (
(157,735,o),
(82,660,o),
(82,560,cs),
(82,299,o),
(475,433,o),
(475,212,cs),
(475,103,o),
(420,55,o),
(337,55,cs),
(320,55,o),
(307,42,o),
(307,25,cs),
(307,8,o),
(320,-5,o),
(337,-5,cs),
(446,-5,o),
(535,71,o),
(535,212,cs),
(535,493,o),
(142,359,o),
(142,560,cs),
(142,632,o),
(185,675,o),
(247,675,cs),
(264,675,o),
(277,688,o),
(277,705,cs),
(277,722,o),
(264,735,o),
(247,735,cs)
);
}
);
width = 575;
},
{
associatedMasterId = m01;
hints = (
{
horizontal = 1;
place = (2,25);
type = Stem;
},
{
horizontal = 1;
place = (638,24);
type = Stem;
},
{
horizontal = 1;
place = (722,26);
type = Stem;
},
{
place = (25,25);
type = Stem;
},
{
place = (373,25);
type = Stem;
},
{
place = (49,25);
type = Stem;
}
);
layerId = "27D00761-4386-4C05-ACCF-93F499B00754";
name = "22 août 23 à 12:50";
shapes = (
{
closed = 1;
nodes = (
(216,722,ls),
(269,722,o),
(322,692,o),
(357,645,cs),
(361,639,o),
(369,638,o),
(375,642,cs),
(380,646,o),
(381,654,o),
(377,659,cs),
(340,710,o),
(281,747,o),
(216,748,cs),
(214,748,ls),
(185,748,o),
(156,740,o),
(130,725,cs),
(103,709,o),
(81,684,o),
(66,654,cs),
(55,632,o),
(49,607,o),
(49,581,c),
(43,571,ls),
(31,546,o),
(25,519,o),
(25,491,cs),
(25,482,o),
(25,473,o),
(27,463,cs),
(32,425,o),
(54,393,o),
(74,367,cs),
(106,325,o),
(149,304,o),
(194,284,cs),
(239,264,o),
(282,244,o),
(309,207,c),
(333,179,o),
(352,141,o),
(352,100,c),
(351,100,o),
(352,100,o),
(352,99,c),
(346,90,o),
(340,82,o),
(334,74,c),
(305,43,o),
(265,27,o),
(225,27,cs),
(213,27,l),
(160,32,o),
(107,64,o),
(72,112,cs),
(68,118,o),
(60,119,o),
(54,115,cs),
(49,111,o),
(48,103,o),
(52,98,cs),
(91,44,o),
(149,7,o),
(211,3,c),
(216,2,o),
(221,2,o),
(225,2,cs),
(272,2,o),
(319,20,o),
(352,58,cs),
(381,90,o),
(398,135,o),
(398,181,cs),
(398,183,ls),
(398,230,o),
(380,275,o),
(352,308,cs),
(317,349,o),
(272,371,o),
(229,391,cs),
(186,411,o),
(144,432,o),
(114,467,cs),
(94,490,o),
(80,519,o),
(75,551,cs),
(74,559,o),
(74,566,o),
(74,574,c),
(86,594,o),
(101,608,o),
(120,619,cs),
(143,633,o),
(165,638,o),
(194,638,cs),
(249,638,o),
(301,605,o),
(334,558,cs),
(338,552,o),
(346,551,o),
(351,555,cs),
(357,559,o),
(358,567,o),
(354,572,cs),
(317,625,o),
(259,662,o),
(194,662,cs),
(163,662,o),
(135,657,o),
(108,641,cs),
(98,635,o),
(88,628,o),
(80,620,c),
(82,628,o),
(85,636,o),
(89,644,cs),
(101,669,o),
(120,690,o),
(143,703,cs),
(164,716,o),
(189,722,o),
(214,722,cs)
);
},
{
closed = 1;
nodes = (
(373,181,ls),
(373,170,o),
(372,158,o),
(370,147,c),
(361,176,o),
(346,202,o),
(329,223,cs),
(296,266,o),
(249,286,o),
(204,306,cs),
(159,326,o),
(122,346,o),
(94,383,cs),
(75,407,o),
(56,435,o),
(51,467,cs),
(50,475,o),
(50,483,o),
(50,491,cs),
(50,504,o),
(51,517,o),
(54,529,c),
(62,500,o),
(76,473,o),
(95,451,cs),
(129,410,o),
(175,388,o),
(218,368,cs),
(261,349,o),
(302,328,o),
(332,292,cs),
(357,263,o),
(373,223,o),
(373,183,cs)
);
}
);
width = 436;
},
{
associatedMasterId = m01;
background = {
hints = (
{
horizontal = 1;
place = (2,25);
type = Stem;
},
{
horizontal = 1;
place = (638,24);
type = Stem;
},
{
horizontal = 1;
place = (722,26);
type = Stem;
},
{
place = (25,25);
type = Stem;
},
{
place = (373,25);
type = Stem;
},
{
place = (49,25);
type = Stem;
}
);
shapes = (
{
closed = 1;
nodes = (
(216,722,ls),
(269,722,o),
(322,692,o),
(357,645,cs),
(361,639,o),
(369,638,o),
(375,642,cs),
(380,646,o),
(381,654,o),
(377,659,cs),
(340,710,o),
(281,747,o),
(216,748,cs),
(214,748,ls),
(185,748,o),
(156,740,o),
(130,725,cs),
(103,709,o),
(81,684,o),
(66,654,cs),
(55,632,o),
(49,607,o),
(49,581,c),
(43,571,ls),
(31,546,o),
(25,519,o),
(25,491,cs),
(25,482,o),
(25,473,o),
(27,463,cs),
(32,425,o),
(54,393,o),
(74,367,cs),
(106,325,o),
(149,304,o),
(194,284,cs),
(239,264,o),
(282,244,o),
(309,207,c),
(333,179,o),
(352,141,o),
(352,100,c),
(351,100,o),
(352,100,o),
(352,99,c),
(346,90,o),
(340,82,o),
(334,74,c),
(305,43,o),
(265,27,o),
(225,27,cs),
(213,27,l),
(160,32,o),
(107,64,o),
(72,112,cs),
(68,118,o),
(60,119,o),
(54,115,cs),
(49,111,o),
(48,103,o),
(52,98,cs),
(91,44,o),
(149,7,o),
(211,3,c),
(216,2,o),
(221,2,o),
(225,2,cs),
(272,2,o),
(319,20,o),
(352,58,cs),
(381,90,o),
(398,135,o),
(398,181,cs),
(398,183,ls),
(398,230,o),
(380,275,o),
(352,308,cs),
(317,349,o),
(272,371,o),
(229,391,cs),
(186,411,o),
(144,432,o),
(114,467,cs),
(94,490,o),
(80,519,o),
(75,551,cs),
(74,559,o),
(74,566,o),
(74,574,c),
(86,594,o),
(101,608,o),
(120,619,cs),
(143,633,o),
(165,638,o),
(194,638,cs),
(249,638,o),
(301,605,o),
(334,558,cs),
(338,552,o),
(346,551,o),
(351,555,cs),
(357,559,o),
(358,567,o),
(354,572,cs),
(317,625,o),
(259,662,o),
(194,662,cs),
(163,662,o),
(135,657,o),
(108,641,cs),
(98,635,o),
(88,628,o),
(80,620,c),
(82,628,o),
(85,636,o),
(89,644,cs),
(101,669,o),
(120,690,o),
(143,703,cs),
(164,716,o),
(189,722,o),
(214,722,cs)
);
},
{
closed = 1;
nodes = (
(373,181,ls),
(373,170,o),
(372,158,o),
(370,147,c),
(361,176,o),
(346,202,o),
(329,223,cs),
(296,266,o),
(249,286,o),
(204,306,cs),
(159,326,o),
(122,346,o),
(94,383,cs),
(75,407,o),
(56,435,o),
(51,467,cs),
(50,475,o),
(50,483,o),
(50,491,cs),
(50,504,o),
(51,517,o),
(54,529,c),
(62,500,o),
(76,473,o),
(95,451,cs),
(129,410,o),
(175,388,o),
(218,368,cs),
(261,349,o),
(302,328,o),
(332,292,cs),
(357,263,o),
(373,223,o),
(373,183,cs)
);
}
);
};
layerId = "166BED24-A14B-4EB7-8189-D21B9B9F697B";
name = "22 août 23 à 13:37";
shapes = (
{
closed = 0;
nodes = (
(377,644,l),
(348,699,o),
(289,737,o),
(222,737,cs),
(126,737,o),
(48,660,o),
(48,565,cs),
(48,374,o),
(395,394,o),
(395,188,cs),
(395,90,o),
(313,10,o),
(214,10,cs),
(142,10,o),
(79,52,o),
(51,113,c)
);
},
{
closed = 0;
nodes = (
(348,554,l),
(319,609,o),
(260,647,o),
(193,647,cs),
(97,647,o),
(19,570,o),
(19,475,cs),
(19,284,o),
(366,304,o),
(366,98,cs),
(366,96,o),
(366,94,o),
(366,92,c)
);
}
);
width = 436;
},
{
associatedMasterId = m01;
background = {
hints = (
{
horizontal = 1;
place = (2,25);
type = Stem;
},
{
horizontal = 1;
place = (638,24);
type = Stem;
},
{
horizontal = 1;
place = (722,26);
type = Stem;
},
{
place = (25,25);
type = Stem;
},
{
place = (373,25);
type = Stem;
},
{
place = (49,25);
type = Stem;
}
);
shapes = (
{
closed = 1;
nodes = (
(216,722,ls),
(269,722,o),
(322,692,o),
(357,645,cs),
(361,639,o),
(369,638,o),
(375,642,cs),
(380,646,o),
(381,654,o),
(377,659,cs),
(340,710,o),
(281,747,o),
(216,748,cs),
(214,748,ls),
(185,748,o),
(156,740,o),
(130,725,cs),
(103,709,o),
(81,684,o),
(66,654,cs),
(55,632,o),
(49,607,o),
(49,581,c),
(43,571,ls),
(31,546,o),
(25,519,o),
(25,491,cs),
(25,482,o),
(25,473,o),
(27,463,cs),
(32,425,o),
(54,393,o),
(74,367,cs),
(106,325,o),
(149,304,o),
(194,284,cs),
(239,264,o),
(282,244,o),
(309,207,c),
(333,179,o),
(352,141,o),
(352,100,c),
(351,100,o),
(352,100,o),
(352,99,c),
(346,90,o),
(340,82,o),
(334,74,c),
(305,43,o),
(265,27,o),
(225,27,cs),
(213,27,l),
(160,32,o),
(107,64,o),
(72,112,cs),
(68,118,o),
(60,119,o),
(54,115,cs),
(49,111,o),
(48,103,o),
(52,98,cs),
(91,44,o),
(149,7,o),
(211,3,c),
(216,2,o),
(221,2,o),
(225,2,cs),
(272,2,o),
(319,20,o),
(352,58,cs),
(381,90,o),
(398,135,o),
(398,181,cs),
(398,183,ls),
(398,230,o),
(380,275,o),
(352,308,cs),
(317,349,o),
(272,371,o),
(229,391,cs),
(186,411,o),
(144,432,o),
(114,467,cs),
(94,490,o),
(80,519,o),
(75,551,cs),
(74,559,o),
(74,566,o),
(74,574,c),
(86,594,o),
(101,608,o),
(120,619,cs),
(143,633,o),
(165,638,o),
(194,638,cs),
(249,638,o),
(301,605,o),
(334,558,cs),
(338,552,o),
(346,551,o),
(351,555,cs),
(357,559,o),
(358,567,o),
(354,572,cs),
(317,625,o),
(259,662,o),
(194,662,cs),
(163,662,o),
(135,657,o),
(108,641,cs),
(98,635,o),
(88,628,o),
(80,620,c),
(82,628,o),
(85,636,o),
(89,644,cs),
(101,669,o),
(120,690,o),
(143,703,cs),
(164,716,o),
(189,722,o),
(214,722,cs)
);
},
{
closed = 1;
nodes = (
(373,181,ls),
(373,170,o),
(372,158,o),
(370,147,c),
(361,176,o),
(346,202,o),
(329,223,cs),
(296,266,o),
(249,286,o),
(204,306,cs),
(159,326,o),
(122,346,o),
(94,383,cs),
(75,407,o),
(56,435,o),
(51,467,cs),
(50,475,o),
(50,483,o),
(50,491,cs),
(50,504,o),
(51,517,o),
(54,529,c),
(62,500,o),
(76,473,o),
(95,451,cs),
(129,410,o),
(175,388,o),
(218,368,cs),
(261,349,o),
(302,328,o),
(332,292,cs),
(357,263,o),
(373,223,o),
(373,183,cs)
);
}
);
};
layerId = "9475D59E-9F7B-4A11-8EF3-3F7BA3493B24";
name = "22 août 23 à 15:26";
shapes = (
{
closed = 0;
nodes = (
(377,644,l),
(348,699,o),
(289,737,o),
(222,737,cs),
(127,737,o),
(53,660,o),
(53,565,cs),
(53,374,o),
(395,394,o),
(395,188,cs),
(395,90,o),
(313,10,o),
(214,10,cs),
(127,10,o),
(64,52,o),
(36,113,c)
);
},
{
closed = 0;
nodes = (
(349,550,l),
(320,605,o),
(261,643,o),
(194,643,cs),
(99,643,o),
(25,566,o),
(25,471,cs),
(25,280,o),
(367,300,o),
(367,94,c)
);
}
);
width = 436;
},
{
anchors = (
{
name = bottom;
pos = (225,0);
},
{
name = top;
pos = (225,747);
}
);
associatedMasterId = m01;
background = {
hints = (
{
horizontal = 1;
place = (2,25);
type = Stem;
},
{
horizontal = 1;
place = (638,24);
type = Stem;
},
{
horizontal = 1;
place = (722,26);
type = Stem;
},
{
place = (25,25);
type = Stem;
},
{
place = (373,25);
type = Stem;
},
{
place = (49,25);
type = Stem;
}
);
shapes = (
{
closed = 1;
nodes = (
(231,722,ls),
(284,722,o),
(337,692,o),
(372,645,cs),
(376,639,o),
(384,638,o),
(390,642,cs),
(395,646,o),
(396,654,o),
(392,659,cs),
(355,710,o),
(296,747,o),
(231,748,cs),
(229,748,ls),
(200,748,o),
(171,740,o),
(145,725,cs),
(118,709,o),
(96,684,o),
(81,654,cs),
(70,632,o),
(64,607,o),
(64,581,c),
(58,571,ls),
(46,546,o),
(40,519,o),
(40,491,cs),
(40,482,o),
(40,473,o),
(42,463,cs),
(47,425,o),
(69,393,o),
(89,367,cs),
(121,325,o),
(164,304,o),
(209,284,cs),
(254,264,o),
(297,244,o),
(324,207,c),
(348,179,o),
(367,141,o),
(367,100,c),
(366,100,o),
(367,100,o),
(367,99,c),
(361,90,o),
(355,82,o),
(349,74,c),
(320,43,o),
(280,27,o),
(240,27,cs),
(228,27,l),
(175,32,o),
(122,64,o),
(87,112,cs),
(83,118,o),
(75,119,o),
(69,115,cs),
(64,111,o),
(63,103,o),
(67,98,cs),
(106,44,o),
(164,7,o),
(226,3,c),
(231,2,o),
(236,2,o),
(240,2,cs),
(287,2,o),
(334,20,o),
(367,58,cs),
(396,90,o),
(413,135,o),
(413,181,cs),
(413,183,ls),
(413,230,o),
(395,275,o),
(367,308,cs),
(332,349,o),
(287,371,o),
(244,391,cs),
(201,411,o),
(159,432,o),
(129,467,cs),
(109,490,o),
(95,519,o),
(90,551,cs),
(89,559,o),
(89,566,o),
(89,574,c),
(101,594,o),
(116,608,o),
(135,619,cs),
(158,633,o),
(180,638,o),
(209,638,cs),
(264,638,o),
(316,605,o),
(349,558,cs),
(353,552,o),
(361,551,o),
(366,555,cs),
(372,559,o),
(373,567,o),
(369,572,cs),
(332,625,o),
(274,662,o),
(209,662,cs),
(178,662,o),
(150,657,o),
(123,641,cs),
(113,635,o),
(103,628,o),
(95,620,c),
(97,628,o),
(100,636,o),
(104,644,cs),
(116,669,o),
(135,690,o),
(158,703,cs),
(179,716,o),
(204,722,o),
(229,722,cs)
);
},
{
closed = 1;
nodes = (
(388,181,ls),
(388,170,o),
(387,158,o),
(385,147,c),
(376,176,o),
(361,202,o),
(344,223,cs),
(311,266,o),
(264,286,o),
(219,306,cs),
(174,326,o),
(137,346,o),
(109,383,cs),
(90,407,o),
(71,435,o),
(66,467,cs),
(65,475,o),
(65,483,o),
(65,491,cs),
(65,504,o),
(66,517,o),
(69,529,c),
(77,500,o),
(91,473,o),
(110,451,cs),
(144,410,o),
(190,388,o),
(233,368,cs),
(276,349,o),
(317,328,o),
(347,292,cs),
(372,263,o),
(388,223,o),
(388,183,cs)
);
}
);
};
layerId = "B55D2BE0-4AC4-458F-96EB-EB969C82804A";
name = "22 août 23 à 17:21";
shapes = (
{
closed = 0;
nodes = (
(392,644,l),
(363,699,o),
(304,737,o),
(237,737,cs),
(142,737,o),
(68,660,o),
(68,565,cs),
(68,374,o),
(410,394,o),
(410,188,cs),
(410,90,o),
(328,10,o),
(229,10,cs),
(142,10,o),
(79,52,o),
(51,113,c)
);
},
{
closed = 0;
nodes = (
(364,550,l),
(335,605,o),
(276,643,o),
(209,643,cs),
(114,643,o),
(40,566,o),
(40,471,cs),
(40,280,o),
(382,300,o),
(382,94,c)
);
}
);
width = 450;
},
{
anchors = (
{
name = bottom;
pos = (315,1);
},
{
name = top;
pos = (315,699);
}
);
associatedMasterId = m01;
background = {
hints = (
{
horizontal = 1;
place = (2,25);
type = Stem;
},
{
horizontal = 1;
place = (638,24);
type = Stem;
},
{
horizontal = 1;
place = (722,26);
type = Stem;
},
{
place = (25,25);
type = Stem;
},
{
place = (373,25);
type = Stem;
},
{
place = (49,25);
type = Stem;
}
);
shapes = (
{
closed = 1;
nodes = (
(173,699,o),
(106,622,o),
(106,544,cs),
(106,527,o),
(120,514,o),
(137,514,cs),
(153,514,o),
(166,527,o),
(167,543,cs),
(172,603,o),
(225,639,o),
(293,639,cs),
(365,639,o),
(434,593,o),
(438,520,cs),
(439,504,o),
(452,491,o),
(468,491,cs),
(486,491,o),
(500,505,o),
(499,523,cs),
(493,627,o),
(401,699,o),
(292,699,cs)
);
},
{
closed = 1;
nodes = (
(155,491,o),
(149,489,o),
(144,486,cs),
(135,480,o),
(130,471,o),
(130,461,cs),
(130,456,o),
(132,450,o),
(135,445,cs),
(169,389,o),
(219,359,o),
(281,337,cs),
(328,320,o),
(375,310,o),
(410,285,cs),
(417,280,o),
(424,274,o),
(430,268,cs),
(436,262,o),
(444,258,o),
(452,258,cs),
(459,258,o),
(466,261,o),
(472,266,cs),
(478,272,o),
(482,280,o),
(482,288,cs),
(482,295,o),
(479,302,o),
(474,308,cs),
(465,317,o),
(455,325,o),
(445,332,cs),
(401,364,o),
(345,377,o),
(302,393,cs),
(248,412,o),
(216,434,o),
(185,477,cs),
(179,486,o),
(170,491,o),
(160,491,cs)
);
},
{
closed = 1;
nodes = (
(294,1,ls),
(417,1,o),
(521,72,o),
(521,190,cs),
(521,207,o),
(507,220,o),
(490,220,cs),
(473,220,o),
(460,206,o),
(460,189,cs),
(460,100,o),
(377,59,o),
(296,59,cs),
(295,59,ls),
(203,59,o),
(111,112,o),
(111,208,cs),
(111,226,o),
(97,240,o),
(79,240,cs),
(63,240,o),
(50,227,o),
(49,211,cs),
(49,84,o),
(157,1,o),
(293,1,cs)
);
}
);
};
layerId = "41EFFCCC-603B-40A6-922D-3A0F578DB6AB";
name = "1 sept. 23 à 11:35";
shapes = (
{
closed = 0;
nodes = (
(466,603,l),
(432,655,o),
(365,690,o),
(287,690,cs),
(177,690,o),
(91,618,o),
(91,529,cs),
(91,351,o),
(487,369,o),
(487,177,cs),
(487,85,o),
(392,10,o),
(278,10,cs),
(177,10,o),
(104,50,o),
(71,107,c)
);
}
);
width = 630;
},
{
anchors = (
{
name = bottom;
pos = (292,1);
},
{
name = top;
pos = (292,759);
}
);
associatedMasterId = m01;
background = {
hints = (
{
horizontal = 1;
place = (2,25);
type = Stem;
},
{
horizontal = 1;
place = (638,24);
type = Stem;
},
{
horizontal = 1;
place = (722,26);
type = Stem;
},
{
place = (25,25);
type = Stem;
},
{
place = (373,25);
type = Stem;
},
{
place = (49,25);
type = Stem;
}
);
shapes = (
{
closed = 1;
nodes = (
(150,699,o),
(83,622,o),
(83,544,cs),
(83,527,o),
(97,514,o),
(114,514,cs),
(130,514,o),
(143,527,o),
(144,543,cs),
(149,603,o),
(202,639,o),
(270,639,cs),
(342,639,o),
(411,593,o),
(415,520,cs),
(416,504,o),
(429,491,o),
(445,491,cs),
(463,491,o),
(477,505,o),
(476,523,cs),
(470,627,o),
(378,699,o),
(269,699,cs)
);
},
{
closed = 1;
nodes = (
(132,491,o),
(126,489,o),
(121,486,cs),
(112,480,o),
(107,471,o),
(107,461,cs),
(107,456,o),
(109,450,o),
(112,445,cs),
(146,389,o),
(196,359,o),
(258,337,cs),
(305,320,o),
(352,310,o),
(387,285,cs),
(394,280,o),
(401,274,o),
(407,268,cs),
(413,262,o),
(421,258,o),
(429,258,cs),
(436,258,o),
(443,261,o),
(449,266,cs),
(455,272,o),
(459,280,o),
(459,288,cs),
(459,295,o),
(456,302,o),
(451,308,cs),
(442,317,o),
(432,325,o),
(422,332,cs),
(378,364,o),
(322,377,o),
(279,393,cs),
(225,412,o),
(193,434,o),
(162,477,cs),
(156,486,o),
(147,491,o),
(137,491,cs)
);
},
{
closed = 1;
nodes = (
(271,1,ls),
(394,1,o),
(498,72,o),
(498,190,cs),
(498,207,o),
(484,220,o),
(467,220,cs),
(450,220,o),
(437,206,o),
(437,189,cs),
(437,100,o),
(354,59,o),
(273,59,cs),
(272,59,ls),
(180,59,o),
(88,112,o),
(88,208,cs),
(88,226,o),
(74,240,o),
(56,240,cs),
(40,240,o),
(27,227,o),
(26,211,cs),
(26,84,o),
(134,1,o),
(270,1,cs)
);
},
{
closed = 0;
nodes = (
(50,227,l),
(50,94,o),
(133,10,o),
(267,10,cs),
(401,10,o),
(485,94,o),
(485,227,c)
);
},
{
closed = 0;
nodes = (
(462,505,l),
(462,619,o),
(391,690,o),
(277,690,cs),
(163,690,o),
(92,619,o),
(92,505,c)
);
},
{
closed = 0;
nodes = (
(50,227,l),
(50,94,o),
(133,10,o),
(267,10,cs),
(401,10,o),
(485,84,o),
(485,197,cs),
(485,428,o),
(92,314,o),
(92,535,cs),
(92,619,o),
(163,690,o),
(277,690,cs),
(391,690,o),
(462,619,o),
(462,505,c)
);
}
);
};
layerId = "C7B2A54C-96B8-472A-9402-494344054FD4";
name = "1 sept. 23 à 16:08";
shapes = (
{
closed = 1;
nodes = (
(455,98,o),
(390,40,o),
(267,40,cs),
(146,40,o),
(80,106,o),
(80,227,cs),
(80,244,o),
(67,257,o),
(50,257,cs),
(33,257,o),
(20,244,o),
(20,227,cs),
(20,78,o),
(116,-20,o),
(267,-20,cs),
(417,-20,o),
(515,66,o),
(515,197,cs),
(515,214,o),
(502,227,o),
(485,227,cs),
(468,227,o),
(455,214,o),
(455,197,cs)
);
},
{
closed = 1;
nodes = (
(492,635,o),
(407,720,o),
(277,720,cs),
(146,720,o),
(62,636,o),
(62,535,cs),
(62,518,o),
(75,505,o),
(92,505,cs),
(109,505,o),
(122,518,o),
(122,535,cs),
(122,607,o),
(175,660,o),
(277,660,cs),
(379,660,o),
(432,607,o),
(432,505,cs),
(432,488,o),
(445,475,o),
(462,475,cs),
(479,475,o),
(492,488,o),
(492,505,cs)
);
},
{
closed = 1;
nodes = (
(175,336,o),
(357,345,o),
(426,275,cs),
(431,269,o),
(439,266,o),
(447,266,cs),
(464,266,o),
(477,279,o),
(477,296,cs),
(477,304,o),
(474,312,o),
(468,317,c),
(381,407,o),
(203,398,o),
(143,470,cs),
(138,477,o),
(129,481,o),
(120,481,cs),
(103,481,o),
(90,468,o),
(90,451,cs),
(90,444,o),
(93,437,o),
(97,432,cs)
);
}
);
width = 535;
}
);
note = S;
unicode = 83;
},
{
glyphname = Germandbls;
kernLeft = Germandbls;
kernRight = Germandbls;
lastChange = "2023-09-14 13:34:04 +0000";
layers = (
{
layerId = m01;
shapes = (
{
closed = 1;
nodes = (
(472,383,o),
(527,320,o),
(527,229,cs),
(527,214,ls),
(527,124,o),
(472,60,o),
(379,60,cs),
(259,60,ls),
(242,60,o),
(229,47,o),
(229,30,cs),
(229,13,o),
(242,0,o),
(259,0,cs),
(379,0,ls),
(504,0,o),
(587,98,o),
(587,214,cs),
(587,229,ls),
(587,346,o),
(504,443,o),
(379,443,cs),
(362,443,o),
(349,430,o),
(349,413,cs),
(349,396,o),
(362,383,o),
(379,383,cs)
);
},
{
closed = 1;
nodes = (
(130,700,ls),
(130,717,o),
(117,730,o),
(100,730,cs),
(83,730,o),
(70,717,o),
(70,700,cs),
(70,30,ls),
(70,13,o),
(83,0,o),
(100,0,cs),
(117,0,o),
(130,13,o),
(130,30,cs)
);
},
{
closed = 1;
nodes = (
(264,433,ls),
(260,428,o),
(258,422,o),
(258,415,cs),
(258,398,o),
(271,385,o),
(288,385,cs),
(298,385,o),
(306,390,o),
(312,397,cs),
(483,616,ls),
(487,621,o),
(489,627,o),
(489,634,cs),
(489,651,o),
(476,664,o),
(459,664,cs),
(449,664,o),
(441,659,o),
(435,652,cs)
);
},
{
closed = 1;
nodes = (
(506,670,ls),
(523,670,o),
(536,683,o),
(536,700,cs),
(536,717,o),
(523,730,o),
(506,730,cs),
(181,730,ls),
(164,730,o),
(151,717,o),
(151,700,cs),
(151,683,o),
(164,670,o),
(181,670,cs)
);
}
);
width = 637;
}
);
unicode = 7838;
},
{
glyphname = T;
kernLeft = T;
kernRight = T;
lastChange = "2023-09-04 14:20:53 +0000";
layers = (
{
anchors = (
{
name = bottom;
pos = (310,16);
},
{
name = center;
pos = (310,366);
},
{
name = top;
pos = (310,774);
}
);
background = {
hints = (
{
horizontal = 1;
place = (647,25);
type = Stem;
},
{
horizontal = 1;
place = (720,25);
type = Stem;
},
{
place = (207,25);
type = Stem;
}
);
shapes = (
{
closed = 1;
nodes = (
(73,700,ls),
(56,700,o),
(43,687,o),
(43,670,cs),
(43,653,o),
(56,640,o),
(73,640,cs),
(542,640,ls),
(559,640,o),
(572,653,o),
(572,670,cs),
(572,687,o),
(559,700,o),
(542,700,cs)
);
},
{
closed = 1;
nodes = (
(277,30,ls),
(277,13,o),
(290,0,o),
(307,0,cs),
(324,0,o),
(337,13,o),
(337,30,cs),
(337,580,ls),
(337,597,o),
(324,610,o),
(307,610,cs),
(290,610,o),
(277,597,o),
(277,580,cs)
);
},
{
closed = 0;
nodes = (
(310,15,l),
(310,585,l)
);
},
{
closed = 0;
nodes = (
(50,685,l),
(570,685,l)
);
}
);
};
layerId = m01;
shapes = (
{
closed = 1;
nodes = (
(280,30,ls),
(280,13,o),
(293,0,o),
(310,0,cs),
(327,0,o),
(340,13,o),
(340,30,cs),
(340,600,ls),
(340,617,o),
(327,630,o),
(310,630,cs),
(293,630,o),
(280,617,o),
(280,600,cs)
);
},
{
closed = 1;
nodes = (
(50,730,ls),
(33,730,o),
(20,717,o),
(20,700,cs),
(20,683,o),
(33,670,o),
(50,670,cs),
(570,670,ls),
(587,670,o),
(600,683,o),
(600,700,cs),
(600,717,o),
(587,730,o),
(570,730,cs)
);
}
);
width = 620;
},
{
associatedMasterId = m01;
hints = (
{
horizontal = 1;
place = (647,25);
type = Stem;
},
{
horizontal = 1;
place = (720,25);
type = Stem;
},
{
place = (207,25);
type = Stem;
}
);
layerId = "4D33AD07-F82B-4F7D-97F2-66F667954D41";
name = "22 août 23 à 12:50";
shapes = (
{
closed = 1;
nodes = (
(232,647,l),
(415,647,ls),
(422,647,o),
(428,653,o),
(428,660,cs),
(428,666,o),
(422,672,o),
(415,672,cs),
(232,672,l),
(232,720,l),
(415,720,ls),
(421,720,o),
(427,726,o),
(427,732,cs),
(427,739,o),
(421,745,o),
(415,745,cs),
(24,745,ls),
(18,745,o),
(12,739,o),
(12,732,cs),
(12,726,o),
(18,720,o),
(24,720,cs),
(207,720,l),
(207,672,l),
(25,672,ls),
(18,672,o),
(12,666,o),
(12,660,cs),
(12,653,o),
(18,647,o),
(25,647,cs),
(207,647,l),
(207,12,ls),
(207,6,o),
(213,0,o),
(220,0,cs),
(226,0,o),
(232,6,o),
(232,12,cs)
);
}
);
width = 456;
},
{
associatedMasterId = m01;
background = {
hints = (
{
horizontal = 1;
place = (647,25);
type = Stem;
},
{
horizontal = 1;
place = (720,25);
type = Stem;
},
{
place = (207,25);
type = Stem;
}
);
shapes = (
{
closed = 1;
nodes = (
(232,647,l),
(415,647,ls),
(422,647,o),
(428,653,o),
(428,660,cs),
(428,666,o),
(422,672,o),
(415,672,cs),
(232,672,l),
(232,720,l),
(415,720,ls),
(421,720,o),
(427,726,o),
(427,732,cs),
(427,739,o),
(421,745,o),
(415,745,cs),
(24,745,ls),
(18,745,o),
(12,739,o),
(12,732,cs),
(12,726,o),
(18,720,o),
(24,720,cs),
(207,720,l),
(207,672,l),
(25,672,ls),
(18,672,o),
(12,666,o),
(12,660,cs),
(12,653,o),
(18,647,o),
(25,647,cs),
(207,647,l),
(207,12,ls),
(207,6,o),
(213,0,o),
(220,0,cs),
(226,0,o),
(232,6,o),
(232,12,cs)
);
}
);
};
layerId = "4ADCDA1D-CE7D-42D5-8897-5C156DF57FC7";
name = "22 août 23 à 13:37";
shapes = (
{
closed = 0;
nodes = (
(219,0,l),
(219,732,l)
);
},
{
closed = 0;
nodes = (
(19,732,l),
(419,732,l)
);
},
{
closed = 0;
nodes = (
(19,610,l),
(419,610,l)
);
}
);
width = 456;
},
{
associatedMasterId = m01;
background = {
hints = (
{
horizontal = 1;
place = (647,25);
type = Stem;
},
{
horizontal = 1;
place = (720,25);
type = Stem;
},
{
place = (207,25);
type = Stem;
}
);
shapes = (
{
closed = 1;
nodes = (
(232,647,l),
(415,647,ls),
(422,647,o),
(428,653,o),
(428,660,cs),
(428,666,o),
(422,672,o),
(415,672,cs),
(232,672,l),
(232,720,l),
(415,720,ls),
(421,720,o),
(427,726,o),
(427,732,cs),
(427,739,o),
(421,745,o),
(415,745,cs),
(24,745,ls),
(18,745,o),
(12,739,o),
(12,732,cs),
(12,726,o),
(18,720,o),
(24,720,cs),
(207,720,l),
(207,672,l),
(25,672,ls),
(18,672,o),
(12,666,o),
(12,660,cs),
(12,653,o),
(18,647,o),
(25,647,cs),
(207,647,l),
(207,12,ls),
(207,6,o),
(213,0,o),
(220,0,cs),
(226,0,o),
(232,6,o),
(232,12,cs)
);
}
);
};
layerId = "5E88EF2A-5976-44C1-895A-1DB2EF6A41B9";
name = "22 août 23 à 15:26";
shapes = (
{
closed = 0;
nodes = (
(219,15,l),
(219,732,l)
);
},
{
closed = 0;
nodes = (
(19,732,l),
(419,732,l)
);
},
{
closed = 0;
nodes = (
(19,610,l),
(419,610,l)
);
}
);
width = 456;
},
{
anchors = (
{
name = bottom;
pos = (220,0);
},
{
name = center;
pos = (220,374);
},
{
name = top;
pos = (220,747);
}
);
associatedMasterId = m01;
background = {
hints = (
{
horizontal = 1;
place = (647,25);
type = Stem;
},
{
horizontal = 1;
place = (720,25);
type = Stem;
},
{
place = (207,25);
type = Stem;
}
);
shapes = (
{
closed = 1;
nodes = (
(233,647,l),
(416,647,ls),
(423,647,o),
(429,653,o),
(429,660,cs),
(429,666,o),
(423,672,o),
(416,672,cs),
(233,672,l),
(233,720,l),
(416,720,ls),
(422,720,o),
(428,726,o),
(428,732,cs),
(428,739,o),
(422,745,o),
(416,745,cs),
(25,745,ls),
(19,745,o),
(13,739,o),
(13,732,cs),
(13,726,o),
(19,720,o),
(25,720,cs),
(208,720,l),
(208,672,l),
(26,672,ls),
(19,672,o),
(13,666,o),
(13,660,cs),
(13,653,o),
(19,647,o),
(26,647,cs),
(208,647,l),
(208,12,ls),
(208,6,o),
(214,0,o),
(221,0,cs),
(227,0,o),
(233,6,o),
(233,12,cs)
);
}
);
};
layerId = "55DAF07F-29EA-40A0-961C-DE473E2B0076";
name = "22 août 23 à 17:21";
shapes = (
{
closed = 0;
nodes = (
(220,15,l),
(220,732,l)
);
},
{
closed = 0;
nodes = (
(20,732,l),
(420,732,l)
);
},
{
closed = 0;
nodes = (
(20,610,l),
(420,610,l)
);
}
);
width = 440;
}
);
note = T;
unicode = 84;
},
{
glyphname = Tbar;
kernLeft = T;
kernRight = T;
lastChange = "2023-09-04 14:13:34 +0000";
layers = (
{
layerId = m01;
shapes = (
{
ref = T;
},
{
closed = 1;
nodes = (
(127,396,ls),
(110,396,o),
(97,383,o),
(97,366,cs),
(97,349,o),
(110,336,o),
(127,336,cs),
(220,336,ls),
(237,336,o),
(250,349,o),
(250,366,cs),
(250,383,o),
(237,396,o),
(220,396,cs)
);
},
{
closed = 1;
nodes = (
(400,396,ls),
(383,396,o),
(370,383,o),
(370,366,cs),
(370,349,o),
(383,336,o),
(400,336,cs),
(493,336,ls),
(510,336,o),
(523,349,o),
(523,366,cs),
(523,383,o),
(510,396,o),
(493,396,cs)
);
}
);
width = 620;
}
);
unicode = 358;
},
{
glyphname = U;
kernLeft = U;
kernRight = U;
lastChange = "2023-09-04 14:13:34 +0000";
layers = (
{
anchors = (
{
name = bottom;
pos = (344,16);
},
{
name = ogonek;
pos = (392,25);
},
{
name = top;
pos = (344,774);
},
{
name = topright;
pos = (732,714);
}
);
background = {
hints = (
{
horizontal = 1;
place = (2,26);
type = Stem;
},
{
horizontal = 1;
place = (174,24);
type = Stem;
},
{
place = (55,25);
type = Stem;
},
{
place = (416,25);
type = Stem;
}
);
shapes = (
{
closed = 1;
nodes = (
(102,440,ls),
(102,423,o),
(115,410,o),
(132,410,cs),
(149,410,o),
(162,423,o),
(162,440,cs),
(162,670,ls),
(162,687,o),
(149,700,o),
(132,700,cs),
(115,700,o),
(102,687,o),
(102,670,cs)
);
},
{
closed = 1;
nodes = (
(549,439,ls),
(549,422,o),
(562,409,o),
(579,409,cs),
(596,409,o),
(609,422,o),
(609,439,cs),
(609,669,ls),
(609,686,o),
(596,699,o),
(579,699,cs),
(562,699,o),
(549,686,o),
(549,669,cs)
);
},
{
closed = 1;
nodes = (
(552,239,ls),
(552,127,o),
(456,63,o),
(357,63,cs),
(257,63,o),
(162,128,o),
(162,239,cs),
(162,341,ls),
(162,358,o),
(149,371,o),
(132,371,cs),
(115,371,o),
(102,358,o),
(102,341,cs),
(102,240,ls),
(102,93,o),
(218,2,o),
(357,2,cs),
(474,2,o),
(612,77,o),
(612,240,cs),
(612,341,ls),
(612,358,o),
(599,371,o),
(582,371,cs),
(565,371,o),
(552,358,o),
(552,341,cs)
);
},
{
closed = 0;
nodes = (
(110,685,l),
(110,243,ls),
(110,100,o),
(200,10,o),
(344,10,cs),
(488,10,o),
(578,100,o),
(578,243,cs),
(578,685,l)
);
}
);
};
layerId = m01;
shapes = (
{
closed = 1;
nodes = (
(140,700,ls),
(140,717,o),
(127,730,o),
(110,730,cs),
(93,730,o),
(80,717,o),
(80,700,cs),
(80,445,ls),
(80,428,o),
(93,415,o),
(110,415,cs),
(127,415,o),
(140,428,o),
(140,445,cs)
);
},
{
closed = 1;
nodes = (
(548,445,ls),
(548,428,o),
(561,415,o),
(578,415,cs),
(595,415,o),
(608,428,o),
(608,445,cs),
(608,700,ls),
(608,717,o),
(595,730,o),
(578,730,cs),
(561,730,o),
(548,717,o),
(548,700,cs)
);
},
{
closed = 1;
nodes = (
(548,258,ls),
(548,127,o),
(476,55,o),
(344,55,cs),
(212,55,o),
(140,127,o),
(140,258,cs),
(140,345,ls),
(140,362,o),
(127,375,o),
(110,375,cs),
(93,375,o),
(80,362,o),
(80,345,cs),
(80,258,ls),
(80,99,o),
(184,-5,o),
(344,-5,cs),
(504,-5,o),
(608,99,o),
(608,258,cs),
(608,345,ls),
(608,362,o),
(595,375,o),
(578,375,cs),
(561,375,o),
(548,362,o),
(548,345,cs)
);
}
);
width = 688;
},
{
associatedMasterId = m01;
hints = (
{
horizontal = 1;
place = (2,26);
type = Stem;
},
{
horizontal = 1;
place = (174,24);
type = Stem;
},
{
place = (55,25);
type = Stem;
},
{
place = (416,25);
type = Stem;
}
);
layerId = "4713C889-C8EF-457F-BB44-49A07AE0CFAD";
name = "22 août 23 à 12:50";
shapes = (
{
closed = 1;
nodes = (
(441,735,ls),
(441,742,o),
(435,748,o),
(428,748,cs),
(422,748,o),
(416,742,o),
(416,735,cs),
(416,198,l),
(80,198,l),
(80,735,ls),
(80,742,o),
(74,748,o),
(68,748,cs),
(61,748,o),
(55,742,o),
(55,735,cs),
(55,190,ls),
(55,186,o),
(55,181,o),
(56,176,c),
(59,129,o),
(82,83,o),
(117,51,cs),
(156,16,o),
(199,2,o),
(248,2,cs),
(297,2,o),
(341,16,o),
(379,51,cs),
(414,83,o),
(437,129,o),
(440,176,c),
(441,181,o),
(441,186,o),
(441,190,cs)
);
},
{
closed = 1;
nodes = (
(415,174,l),
(411,134,o),
(392,96,o),
(362,69,cs),
(331,41,o),
(297,28,o),
(248,28,cs),
(205,28,o),
(167,39,o),
(134,69,cs),
(104,96,o),
(85,134,o),
(81,174,c)
);
}
);
width = 512;
},
{
associatedMasterId = m01;
background = {
hints = (
{
horizontal = 1;
place = (2,26);
type = Stem;
},
{
horizontal = 1;
place = (174,24);
type = Stem;
},
{
place = (55,25);
type = Stem;
},
{
place = (416,25);
type = Stem;
}
);
shapes = (
{
closed = 1;
nodes = (
(441,735,ls),
(441,742,o),
(435,748,o),
(428,748,cs),
(422,748,o),
(416,742,o),
(416,735,cs),
(416,198,l),
(80,198,l),
(80,735,ls),
(80,742,o),
(74,748,o),
(68,748,cs),
(61,748,o),
(55,742,o),
(55,735,cs),
(55,190,ls),
(55,186,o),
(55,181,o),
(56,176,c),
(59,129,o),
(82,83,o),
(117,51,cs),
(156,16,o),
(199,2,o),
(248,2,cs),
(297,2,o),
(341,16,o),
(379,51,cs),
(414,83,o),
(437,129,o),
(440,176,c),
(441,181,o),
(441,186,o),
(441,190,cs)
);
},
{
closed = 1;
nodes = (
(415,174,l),
(411,134,o),
(392,96,o),
(362,69,cs),
(331,41,o),
(297,28,o),
(248,28,cs),
(205,28,o),
(167,39,o),
(134,69,cs),
(104,96,o),
(85,134,o),
(81,174,c)
);
}
);
};
layerId = "7AFD56C9-053E-47C5-823A-98F74EA4A605";
name = "22 août 23 à 13:37";
shapes = (
{
closed = 0;
nodes = (
(69,747,l),
(69,195,ls),
(69,85,o),
(144,10,o),
(254,10,cs),
(268,10,ls),
(378,10,o),
(453,85,o),
(453,195,cs),
(453,747,l)
);
},
{
closed = 0;
nodes = (
(453,188,l),
(69,188,l)
);
}
);
width = 512;
},
{
associatedMasterId = m01;
background = {
hints = (
{
horizontal = 1;
place = (2,26);
type = Stem;
},
{
horizontal = 1;
place = (174,24);
type = Stem;
},
{
place = (55,25);
type = Stem;
},
{
place = (416,25);
type = Stem;
}
);
shapes = (
{
closed = 1;
nodes = (
(441,735,ls),
(441,742,o),
(435,748,o),
(428,748,cs),
(422,748,o),
(416,742,o),
(416,735,cs),
(416,198,l),
(80,198,l),
(80,735,ls),
(80,742,o),
(74,748,o),
(68,748,cs),
(61,748,o),
(55,742,o),
(55,735,cs),
(55,190,ls),
(55,186,o),
(55,181,o),
(56,176,c),
(59,129,o),
(82,83,o),
(117,51,cs),
(156,16,o),
(199,2,o),
(248,2,cs),
(297,2,o),
(341,16,o),
(379,51,cs),
(414,83,o),
(437,129,o),
(440,176,c),
(441,181,o),
(441,186,o),
(441,190,cs)
);
},
{
closed = 1;
nodes = (
(415,174,l),
(411,134,o),
(392,96,o),
(362,69,cs),
(331,41,o),
(297,28,o),
(248,28,cs),
(205,28,o),
(167,39,o),
(134,69,cs),
(104,96,o),
(85,134,o),
(81,174,c)
);
}
);
};
layerId = "17790A8E-7403-44B0-BCF0-EC052E3135D4";
name = "22 août 23 à 15:26";
shapes = (
{
closed = 1;
nodes = (
(438,195,ls),
(438,91,o),
(372,25,o),
(268,25,cs),
(254,25,ls),
(150,25,o),
(84,91,o),
(84,195,cs),
(84,732,ls),
(84,740,o),
(77,747,o),
(69,747,cs),
(61,747,o),
(54,740,o),
(54,732,cs),
(54,195,ls),
(54,77,o),
(136,-5,o),
(254,-5,cs),
(268,-5,ls),
(386,-5,o),
(468,77,o),
(468,195,cs),
(468,732,ls),
(468,740,o),
(461,747,o),
(453,747,cs),
(445,747,o),
(438,740,o),
(438,732,cs)
);
},
{
closed = 1;
nodes = (
(453,173,ls),
(461,173,o),
(468,180,o),
(468,188,cs),
(468,196,o),
(461,203,o),
(453,203,cs),
(69,203,ls),
(61,203,o),
(54,196,o),
(54,188,cs),
(54,180,o),
(61,173,o),
(69,173,cs)
);
}
);
width = 512;
},
{
associatedMasterId = m01;
background = {
hints = (
{
horizontal = 1;
place = (2,26);
type = Stem;
},
{
horizontal = 1;
place = (174,24);
type = Stem;
},
{
place = (55,25);
type = Stem;
},
{
place = (416,25);
type = Stem;
}
);
shapes = (
{
closed = 1;
nodes = (
(441,735,ls),
(441,742,o),
(435,748,o),
(428,748,cs),
(422,748,o),
(416,742,o),
(416,735,cs),
(416,198,l),
(80,198,l),
(80,735,ls),
(80,742,o),
(74,748,o),
(68,748,cs),
(61,748,o),
(55,742,o),
(55,735,cs),
(55,190,ls),
(55,186,o),
(55,181,o),
(56,176,c),
(59,129,o),
(82,83,o),
(117,51,cs),
(156,16,o),
(199,2,o),
(248,2,cs),
(297,2,o),
(341,16,o),
(379,51,cs),
(414,83,o),
(437,129,o),
(440,176,c),
(441,181,o),
(441,186,o),
(441,190,cs)
);
},
{
closed = 1;
nodes = (
(415,174,l),
(411,134,o),
(392,96,o),
(362,69,cs),
(331,41,o),
(297,28,o),
(248,28,cs),
(205,28,o),
(167,39,o),
(134,69,cs),
(104,96,o),
(85,134,o),
(81,174,c)
);
}
);
};
layerId = "1E62A28A-ED51-4CDE-9C6D-E9AFA5141197";
name = "22 août 23 à 15:28";
shapes = (
{
closed = 1;
nodes = (
(337,223,ls),
(337,160,o),
(316,139,o),
(254,139,cs),
(242,139,ls),
(180,139,o),
(159,160,o),
(159,223,cs),
(159,674,ls),
(159,714,o),
(127,746,o),
(87,746,cs),
(47,746,o),
(15,714,o),
(15,674,cs),
(15,223,ls),
(15,90,o),
(110,-5,o),
(242,-5,cs),
(254,-5,ls),
(386,-5,o),
(481,90,o),
(481,223,cs),
(481,674,ls),
(481,714,o),
(449,746,o),
(409,746,cs),
(369,746,o),
(337,714,o),
(337,674,cs)
);
},
{
closed = 1;
nodes = (
(409,231,ls),
(449,231,o),
(481,263,o),
(481,303,cs),
(481,343,o),
(449,375,o),
(409,375,cs),
(87,375,ls),
(47,375,o),
(15,343,o),
(15,303,cs),
(15,263,o),
(47,231,o),
(87,231,cs)
);
}
);
width = 512;
},
{
anchors = (
{
name = bottom;
pos = (272,0);
},
{
name = ogonek;
pos = (490,10);
},
{
name = top;
pos = (272,747);
},
{
name = topright;
pos = (524,747);
}
);
associatedMasterId = m01;
background = {
hints = (
{
horizontal = 1;
place = (2,26);
type = Stem;
},
{
horizontal = 1;
place = (174,24);
type = Stem;
},
{
place = (55,25);
type = Stem;
},
{
place = (416,25);
type = Stem;
}
);
shapes = (
{
closed = 1;
nodes = (
(452,735,ls),
(452,742,o),
(446,748,o),
(439,748,cs),
(433,748,o),
(427,742,o),
(427,735,cs),
(427,198,l),
(91,198,l),
(91,735,ls),
(91,742,o),
(85,748,o),
(79,748,cs),
(72,748,o),
(66,742,o),
(66,735,cs),
(66,190,ls),
(66,186,o),
(66,181,o),
(67,176,c),
(70,129,o),
(93,83,o),
(128,51,cs),
(167,16,o),
(210,2,o),
(259,2,cs),
(308,2,o),
(352,16,o),
(390,51,cs),
(425,83,o),
(448,129,o),
(451,176,c),
(452,181,o),
(452,186,o),
(452,190,cs)
);
},
{
closed = 1;
nodes = (
(426,174,l),
(422,134,o),
(403,96,o),
(373,69,cs),
(342,41,o),
(308,28,o),
(259,28,cs),
(216,28,o),
(178,39,o),
(145,69,cs),
(115,96,o),
(96,134,o),
(92,174,c)
);
}
);
};
layerId = "65DBDE8D-3A14-4E76-B9F8-FAFAB490CFA1";
name = "22 août 23 à 17:21";
shapes = (
{
closed = 0;
nodes = (
(80,732,l),
(80,195,ls),
(80,85,o),
(155,10,o),
(265,10,cs),
(279,10,ls),
(389,10,o),
(464,85,o),
(464,195,cs),
(464,732,l)
);
},
{
closed = 0;
nodes = (
(464,188,l),
(80,188,l)
);
}
);
width = 544;
}
);
note = U;
unicode = 85;
},
{
glyphname = V;
kernLeft = V;
kernRight = V;
lastChange = "2023-09-04 14:13:34 +0000";
layers = (
{
anchors = (
{
name = bottom;
pos = (330,16);
},
{
name = top;
pos = (330,774);
}
);
background = {
hints = (
{
horizontal = 1;
place = (747,-20);
target = down;
type = TopGhost;
},
{
place = (19.57,394.84);
type = Stem;
}
);
shapes = (
{
closed = 1;
nodes = (
(281,19,ls),
(286,7,o),
(297,-1,o),
(309,-1,cs),
(327,-1,o),
(340,14,o),
(340,29,cs),
(340,33,o),
(339,36,o),
(338,40,cs),
(101,680,ls),
(96,692,o),
(85,700,o),
(73,700,cs),
(55,700,o),
(42,685,o),
(42,670,cs),
(42,666,o),
(43,663,o),
(44,659,cs)
);
},
{
closed = 1;
nodes = (
(352,230,ls),
(351,227,o),
(350,223,o),
(350,219,cs),
(350,204,o),
(362,189,o),
(381,189,cs),
(393,189,o),
(404,197,o),
(409,209,cs),
(577,659,ls),
(578,662,o),
(579,666,o),
(579,670,cs),
(579,685,o),
(567,700,o),
(548,700,cs),
(536,700,o),
(525,692,o),
(520,680,cs)
);
},
{
closed = 0;
nodes = (
(60,685,l),
(330,15,l)
);
},
{
closed = 0;
nodes = (
(385,153,l),
(600,685,l)
);
}
);
};
layerId = m01;
shapes = (
{
closed = 1;
nodes = (
(88,711,ls),
(83,722,o),
(73,730,o),
(60,730,cs),
(43,730,o),
(30,717,o),
(30,700,cs),
(30,696,o),
(31,692,o),
(32,689,cs),
(302,19,ls),
(307,8,o),
(317,0,o),
(330,0,cs),
(347,0,o),
(360,13,o),
(360,30,cs),
(360,34,o),
(359,38,o),
(358,41,cs)
);
},
{
closed = 1;
nodes = (
(357,179,ls),
(356,176,o),
(355,172,o),
(355,168,cs),
(355,151,o),
(368,138,o),
(385,138,cs),
(398,138,o),
(408,146,o),
(413,157,cs),
(628,689,ls),
(629,692,o),
(630,696,o),
(630,700,cs),
(630,717,o),
(617,730,o),
(600,730,cs),
(587,730,o),
(577,722,o),
(572,711,cs)
);
}
);
width = 660;
},
{
associatedMasterId = m01;
hints = (
{
horizontal = 1;
place = (747,-20);
target = down;
type = TopGhost;
},
{
place = (19.57,394.84);
type = Stem;
}
);
layerId = "EA5CE75A-D2BC-4E89-A853-8F748E6274B3";
name = "22 août 23 à 12:50";
shapes = (
{
closed = 1;
nodes = (
(275,291,l),
(155,741,ls),
(153,748,o),
(146,752,o),
(140,750,cs),
(133,748,o),
(129,741,o),
(131,735,cs),
(262,241,l),
(217,65,l),
(44,738,ls),
(42,745,o),
(36,749,o),
(29,747,cs),
(22,745,o),
(18,739,o),
(20,732,cs),
(205,12,ls),
(206,6,o),
(211,2,o),
(217,2,cs),
(223,2,o),
(228,6,o),
(229,12,cs),
(414,732,ls),
(416,739,o),
(412,745,o),
(405,747,cs),
(398,749,o),
(392,745,o),
(390,738,cs)
);
}
);
width = 485;
},
{
associatedMasterId = m01;
background = {
hints = (
{
horizontal = 1;
place = (747,-20);
target = down;
type = TopGhost;
},
{
place = (19.57,394.84);
type = Stem;
}
);
shapes = (
{
closed = 1;
nodes = (
(275,291,l),
(155,741,ls),
(153,748,o),
(146,752,o),
(140,750,cs),
(133,748,o),
(129,741,o),
(131,735,cs),
(262,241,l),
(217,65,l),
(44,738,ls),
(42,745,o),
(36,749,o),
(29,747,cs),
(22,745,o),
(18,739,o),
(20,732,cs),
(205,12,ls),
(206,6,o),
(211,2,o),
(217,2,cs),
(223,2,o),
(228,6,o),
(229,12,cs),
(414,732,ls),
(416,739,o),
(412,745,o),
(405,747,cs),
(398,749,o),
(392,745,o),
(390,738,cs)
);
}
);
};
layerId = "E7962E2D-C675-4C7E-BC5B-A07A3F882FD4";
name = "22 août 23 à 13:37";
shapes = (
{
closed = 0;
nodes = (
(29,747,l),
(222,0,l),
(415,747,l)
);
},
{
closed = 0;
nodes = (
(149,747,l),
(282,232,l)
);
}
);
width = 485;
},
{
associatedMasterId = m01;
background = {
hints = (
{
horizontal = 1;
place = (747,-20);
target = down;
type = TopGhost;
},
{
place = (19.57,394.84);
type = Stem;
}
);
shapes = (
{
closed = 1;
nodes = (
(275,291,l),
(155,741,ls),
(153,748,o),
(146,752,o),
(140,750,cs),
(133,748,o),
(129,741,o),
(131,735,cs),
(262,241,l),
(217,65,l),
(44,738,ls),
(42,745,o),
(36,749,o),
(29,747,cs),
(22,745,o),
(18,739,o),
(20,732,cs),
(205,12,ls),
(206,6,o),
(211,2,o),
(217,2,cs),
(223,2,o),
(228,6,o),
(229,12,cs),
(414,732,ls),
(416,739,o),
(412,745,o),
(405,747,cs),
(398,749,o),
(392,745,o),
(390,738,cs)
);
}
);
};
layerId = "7D585A6E-62FD-469C-831D-2CA5461A9A45";
name = "22 août 23 à 15:26";
shapes = (
{
closed = 0;
nodes = (
(29,732,l),
(222,15,l)
);
},
{
closed = 0;
nodes = (
(149,732,l),
(281,235,l)
);
},
{
closed = 0;
nodes = (
(222,15,l),
(415,732,l)
);
}
);
width = 485;
},
{
anchors = (
{
name = bottom;
pos = (233,0);
},
{
name = top;
pos = (233,747);
}
);
associatedMasterId = m01;
background = {
hints = (
{
horizontal = 1;
place = (747,-20);
target = down;
type = TopGhost;
},
{
place = (19.57,394.84);
type = Stem;
}
);
shapes = (
{
closed = 1;
nodes = (
(286,291,l),
(166,741,ls),
(164,748,o),
(157,752,o),
(151,750,cs),
(144,748,o),
(140,741,o),
(142,735,cs),
(273,241,l),
(228,65,l),
(55,738,ls),
(53,745,o),
(47,749,o),
(40,747,cs),
(33,745,o),
(29,739,o),
(31,732,cs),
(216,12,ls),
(217,6,o),
(222,2,o),
(228,2,cs),
(234,2,o),
(239,6,o),
(240,12,cs),
(425,732,ls),
(427,739,o),
(423,745,o),
(416,747,cs),
(409,749,o),
(403,745,o),
(401,738,cs)
);
}
);
};
layerId = "5773DCDE-E91F-4AB7-BD51-82669A6E8FE1";
name = "22 août 23 à 17:21";
shapes = (
{
closed = 0;
nodes = (
(40,732,l),
(233,15,l)
);
},
{
closed = 0;
nodes = (
(160,732,l),
(292,235,l)
);
},
{
closed = 0;
nodes = (
(233,15,l),
(426,732,l)
);
}
);
width = 466;
}
);
note = V;
unicode = 86;
},
